<svg id="svg1570" version="1.1" viewBox="0 0 1280 800" xmlns="http://www.w3.org/2000/svg">
	<g id="coms">
		<path id="path2484" d="m644.782 50.0002c-5.41694 0-47.6314 62.5302-69.3656 102.749-9.03314 16.7156-10.2949 17.9525-22.3817 21.9124-31.2497 10.2381-68.7199 33.9882-95.65 60.6317-56.9996 56.3923-83.7743 131.004-76.0957 212.043 4.3991 46.4284 22.0264 92.5514 49.0529 128.347l10.5246 13.9367-5.17015 37.6724c-6.57878 47.9424-12.4954 101.539-12.525 113.465-0.0186 5.08364 0.43035 9.243 0.98567 9.243 0.55535 0 14.8272-17.4692 31.7149-38.8205 16.8874-21.3513 35.8639-44.5516 42.1711-51.5585l11.4672-12.7416 10.8459 6.06207c16.7978 9.38843 47.8662 19.9622 71.9436 24.4866 30.1909 5.67332 84.9943 3.96344 114.299-3.56722 28.0301-7.20321 71.1393-28.7579 92.1014-46.0488 13.115-10.8181 17.4164-13.2004 19.0925-10.5861 1.18957 1.85573 10.1893 19.7311 19.9986 39.7267 9.80935 19.9956 18.6858 36.3581 19.728 36.3581 3.28846 0 2.09058-18.0645-4.376-65.9536l-6.27135-46.4459 11.5716-17.1284c56.7741-84.0229 56.8528-200.216 0.19136-285.171-31.2812-46.9011-84.2572-88.78-131.597-104.031-12.7971-4.12259-12.8817-4.21715-26.8623-30.4693-23.1916-43.5488-52.9528-94.1122-55.3929-94.1122zm-0.14786 2.20243 18.0201 30.3249c47.249 79.5186 101.159 199.267 130.167 289.128 29.9515 92.7843 54.4093 209.526 62.7367 299.472l1.48036 16.02-27.906-54.2266c-61.6756-119.836-92.665-156.871-125-149.396-19.0894 4.41218-55.9219 26.7524-89.9636 54.5661-45.2656 36.984-98.0007 92.8272-154.722 163.846-33.3354 41.7376-33.8343 42.3283-33.8343 39.8603 0-8.21358 8.99271-84.4893 15.0161-127.361 33.1726-236.102 100.799-426.485 195.944-551.625zm-0.0536 39.344c-2.38303-0.410714-5.72454 4.36893-16.0417 20.4031-68.9864 107.215-118.373 234.35-147.317 379.247-8.79007 44.0041-19.6657 114.825-22.6742 147.653l-1.67168 18.2513 29.3502-31.5994c16.1426-17.3795 44.8771-46.0074 63.8559-63.6176 78.0714-72.4407 127.001-104.445 163.699-107.071 9.74208-0.697 20.4889 0.0264 25.6493 1.72942 11.5639 3.81647 38.0569 32.1499 59.368 63.4913 8.93886 13.1459 16.251 22.694 16.251 21.2191 0-1.47493-2.16656-13.2209-4.81652-26.1006-16.3031-79.2343-45.4314-168.239-85.6779-261.807-16.5824-38.5522-71.6543-151.891-77.6879-159.881-0.80413-1.06507-1.49107-1.78029-2.28541-1.91721zm-1.67168 51.4321c1.16665 6e-3 5.03465 28.4772 13.1171 95.6143 6.19058 51.4237 12.0611 94.1857 13.0448 95.0257 0.98382 0.84005 12.6015 4.65603 25.8189 8.48115 13.2174 3.82515 24.0317 7.39671 24.0317 7.936 0 0.53928-10.6358 6.01911-23.6381 12.1784-23.4712 11.1184-23.6306 11.2564-22.2445 18.9481 3.85302 21.3819 6.76696 43.99 5.79497 44.962-0.60079 0.60086-8.08536-9.50985-16.6302-22.4684-8.54478-12.9585-16.3571-24.0692-17.3596-24.6889-1.00249-0.61958-8.01886 9.72585-15.5939 22.9883s-15.4339 26.2894-17.4642 28.9493c-3.49773 4.58247-3.62935 4.44674-2.52-2.55986 2.40409-15.1832 6.13419-46.1275 6.13419-50.8761 0-3.80522-5.44301-7.48243-24.0317-16.2438l-24.0317-11.3262 23.4143-7.12358c12.8786-3.91723 24.7714-7.569 26.4255-8.1165 1.65412-0.5475 3.53118-3.53877 4.17393-6.647 1.5665-7.57635 21.1612-174.82 21.1612-180.614 0-2.90493 0.12757-4.42071 0.39729-4.41928z" style="stroke-width:.993336"/>
	</g>
</svg>
