<svg id="svg6" version="1.1" viewBox="0 0 1280 800" xmlns="http://www.w3.org/2000/svg">
	<g id="buttonA" transform="translate(5 10)">
		<rect id="rect749" y="150" width="95" height="480"/>
	</g>
	<g id="frameA">
		<path id="patha" d="m52.4395 5c-25.3668 0-46.9879 17.3005-47.4297 42.3926h-0.00977v102.607h94.8359v-100.113h0.01367v-7.89648c0-6.67702 4.47729-12.0527 10.0391-12.0527l40.1113-0.001953v-24.9355zm107.561 0v24.9375h960v-24.9375zm970 0v24.9355l40.1113 2e-3c5.5618 0 10.0391 5.37575 10.0391 12.0527v7.89648h0.014v100.113h94.8356v-102.607h-0.01c-0.4412-25.092-22.0625-42.3926-47.4295-42.3926zm50 155v480h95v-480zm-1175 490v102.607h0.00977c0.441793 25.0921 22.0628 42.3926 47.4297 42.3926h97.5605v-24.9356l-40.1113-2e-3c-5.56174 0-10.0391-5.37576-10.0391-12.0527v-7.89649h-0.01367v-100.113zm1175.16 0v100.113h-0.014v7.89649c0 6.677-4.4773 12.0527-10.0391 12.0527l-40.1113 2e-3v24.9355h97.5605c25.367 0 46.9881-17.3005 47.4297-42.3926h0.01v-102.607zm-1020.16 120.062v24.9375h960v-24.9375z"/>
	</g>
	<g id="frameB">
		<path id="pathd" d="m6.0391 5.00002c-0.054 64.7496-1.0391 37.5309-1.0391 102.5h0.01c0.4425 25.1559 22.0985 42.5 47.5058 42.5h97.4844v-25h-39.9453c-5.5707 0-10.0548-5.39003-10.0547-12.084v-7.91602h-0.014c-0.8176-64.7506 1.0528-35.2077 1.0528-100zm148.961 120v25h789.986v-25zm1025.16-0.11353v25l94.8332-4.9e-4v-25zm-1127.65 30.1135c-25.4072 0-47.0633 17.3441-47.5058 42.5h-0.01v102.5h94.9864v-100h0.014v-7.91602c0-6.69403 4.4841-12.084 10.0547-12.084h39.9453v-25h-50zm102.484 0v25h789.986v-25zm1025.16-0.11353v25l94.8332-4.9e-4v-25z"/>
		<text id="lable" x="950" y="165" font-size="24px">10 letters +3</text>
	</g>
	<g id="stlogo">
		<path id="pathb" d="m622.883 183.965c-74.0266 0.93812-142.523 43.6675-177.301 113.234-27.9001 55.81-28.702 119.685-2.19922 175.119 30.474 63.7408 91.6861 108.242 159.807 116.18 12.101 1.41 36.8249 1.19145 49.373-0.43555 46.3365-6.00792 87.9872-26.9808 121.406-61.1328 34.9506-35.7169 53.9032-81.1882 55.6191-133.449 1.42562-43.4201-9.63689-83.4999-32.8144-118.887-31.0517-47.4083-82.5162-79.4791-141.908-88.4297-10.7189-1.61536-21.4072-2.33323-31.9824-2.19922zm10.375 4.8125c29.088 0.51926 53.5292 6.38654 79.1074 18.7774 62.1553 30.1095 105.698 91.2503 112.449 157.895 1.47719 14.5812 1.27274 35.8162-0.46289 48.0273-13.0518 91.8276-92.2703 166.538-180.986 170.684-6.04997 0.28274-12.35 0.62819-14 0.76757-1.64997 0.13939-7.95-0.0359-14-0.39062-37.5738-2.20284-74.3279-15.323-105.912-37.8086-9.40072-6.69257-27.1593-23.4383-34.877-32.8867-24.4196-29.8961-40.4665-68.8663-44.7773-108.746-1.45541-13.464-0.69016-39.4923 1.52929-52 6.94911-39.1611 24.1239-73.2901 50.9414-101.229 17.9192-18.6679 36.8595-32.547 59.0957-43.3047 26.9424-13.0345 49.8776-18.7404 79.125-19.6836 4.36205-0.14066 8.61214-0.17575 12.7676-0.10157zm134.723 1.81836c-1.0954 7e-3 -1.10725 1.24863-1.09375 3.24805 0.0503 7.43782 8.29182 19.9908 21.3477 32.5156 9.18649 8.81285 20.0345 16.4436 25.6816 18.0644 8.56113 2.45734 11.9492 0.95018 11.9492-5.3125 0-7.04713-8.84173-22.6951-18.8574-33.377l-3.14843-3.35743-1.86915 2.3086c-2.96358 3.65987-7.90577 3.10328-14.5976-1.64258-12.7508-9.04273-17.5864-12.4588-19.4121-12.4473zm-280.365 1.99805c-2.83776 9.9e-4 -13.2425 4.89193-20.123 9.45898-4.76969 3.16594-5.72265 3.43431-10.2637 2.89649-6.15451-0.72891-9.37092 0.75694-15.1094 6.98242-6.03914 6.55169-11.5453 18.3416-13.7891 29.5254l-0.67578 3.36524 7.35547-0.37305c9.58103-0.48588 16.8473-3.99848 25.8594-12.5 6.19023-5.83958 25.1612-29.0597 27.8574-34.0977 1.79739-3.35843 1.39593-5.25869-1.11133-5.25781zm140.324 2.88477c-11.8702-0.0761-23.8516 0.79627-34.5742 2.62695-67.3081 11.4916-126.404 63.2514-148.412 129.988-7.48894 22.709-9.5685 38.3921-8.79882 66.3691 0.4041 14.6887 1.0812 22.1355 2.6875 29.582 6.53358 30.2885 21.9622 61.7882 41.709 85.1543 34.0271 40.2639 80.3079 64.6387 129.756 68.3379 57.2833 4.28536 114.822-16.5247 152.875-55.291 33.9407-34.5765 53.2738-80.2055 55.3594-130.652 2.40611-58.1995-23.4127-114.931-69.2383-152.135-24.2775-19.7098-57.2506-35.1338-87.4629-40.9141-10.272-1.96524-22.0302-2.99032-33.9004-3.0664zm0.88867 9.67187h2e-3c12.6469 0.0987 25.3783 1.29292 35.877 3.56445 53.4202 11.5584 101.069 48.8828 126.111 98.7871 13.4243 26.7515 18.7373 52.6299 17.8184 86.8008-0.52239 19.425-2.90487 32.8387-8.91797 50.2109-4.07721 11.7794-13.5641 30.8609-20.416 41.0664-17.5393 26.1238-42.5322 48.9032-68.5078 62.4414-18.8817 9.84096-35.2356 15.2298-54.7285 18.0332-37.9476 5.45747-76.1213-0.26622-109.701-16.4492-63.9707-30.829-105.308-103.065-100.393-175.438 2.5535-37.5971 15.6458-70.8592 39.4082-100.121 27.4205-33.7668 65.6551-57.0753 108.078-65.8867 10.1602-2.11031 22.7223-3.10848 35.3691-3.00977zm54.959 11.8555c-0.46874-8.6e-4 -0.88605 0.15168-1.22266 0.48828-1.2189 1.2189-1.37661 9.19487-0.21875 11.0684 1.05878 1.71315 8.49286 1.25985 9.19141-0.56055 1.3544-3.52949-4.4688-10.9901-7.75-10.9961zm-123.924 5.12305c-0.60458 4e-3 -1.15413 0.1772-1.61133 0.55664-1.45354 1.20633-1.9905 10.9704-0.67578 12.2852 0.39137 0.39137 2.97887 0.58018 5.75 0.41797 4.36799-0.25568 5.08053-0.59604 5.35938-2.56055 0.62798-4.42408-5.12762-10.7267-8.82227-10.6992zm91.1113 0.9707c-0.17285-6e-4 -0.3322 0.0247-0.47656 0.0801-2.12173 0.81417-2.95385 3.8949-2.17383 8.05273 0.64292 3.42708 0.70307 3.46323 5.3457 3.16406 4.01479-0.25872 4.7413-0.63299 5.01758-2.58007 0.38437-2.70894-5.12011-8.70787-7.71289-8.7168zm187.996 8.49414c-0.43961 0-1.06751 5.32027-1.39453 11.8242s-1.13311 13.0107-1.79297 14.459c-1.13599 2.49324-1.55148 2.62331-7.80859 2.42578-6.4245-0.20282-6.61617-0.13697-6.9082 2.375-0.64962 5.58781 16.1374 22.9939 26.875 27.8652 5.31437 2.41099 5.98587 2.4598 8.48437 0.625 4.51619-3.31651 0.62177-26.1945-7.51367-44.1367-3.0874-6.80909-8.64474-15.4375-9.94141-15.4375zm-422.188 2.90234c-1.27975-0.0675-3.82302 1.36248-5.95703 3.79297-5.8007 6.60667-11.2103 21.2206-13.5293 36.5488-1.56683 10.3565-1.21763 14.1922 1.42968 15.7383 3.09815 1.80932 8.71944 1.11092 12.748-1.58398 5.90933-3.95299 8.88425-7.03666 16.7891-17.3984 9.50594-12.4607 9.39604-12.2303 5.03516-10.4082-4.84674 2.02507-8.66022 1.05157-12.3496-3.15039-4.73667-5.39477-6.32736-15.0095-3.58789-21.6914 0.50293-1.22673 0.18973-1.80713-0.57813-1.84766zm319.135 17.3379c-0.14597-3e-3 -0.27883 0.0154-0.39649 0.0606-1.69172 0.64919-2.39064 6.63276-0.94336 8.08008 1.10973 1.10972 7.58513 0.25902 8.01563-1.05273 0.60155-1.83299-4.48626-7.0393-6.67578-7.0879zm-121.869 8.90821c-1.57317 0.01-2.2945 2.04899-1.54297 5.80664 0.44535 2.22674 1.22177 3.01474 3.22266 3.26953 5.77373 0.73525 6.61982-1.30802 2.54687-6.14844-1.67574-1.9915-3.15018-2.93459-4.22656-2.92773zm-228.684 3.35156-2.79687 4.11914c-7.75289 11.4206-11.6452 34.4364-8.61524 50.9473 1.3043 7.10737 4.48655 15.0891 7.25 18.1836 2.33167 2.61092 6.45355 2.92541 10.5508 0.80664 6.06792-3.13785 17.6074-17.8408 20.9922-26.7461l1.02149-2.6875-4.07617 1.4375c-9.70424 3.42383-17.4239 0.74317-21.1289-7.33789-1.8624-4.06214-2.23749-7.10237-2.68164-21.7227zm484.859 5.55859c-1.79565-0.13172-1.72195 1.43681-1.79492 18.4414-0.0707 16.4768-0.96958 19.969-5.72461 22.248-2.25748 1.08198-3.32299 0.97294-7.32422-0.74219-5.70302-2.44461-11.0604-2.63715-11.9082-0.42773-2.32261 6.05259 8.94546 22.2572 19.8125 28.4902 2.79329 1.60218 5.37662 2.91687 5.74023 2.92187 0.3636 5e-3 1.89836-1.45273 3.41016-3.24023 7.36114-8.70355 10.6358-23.4603 8.65429-38.9961-2.19218-17.1874-5.96796-28.0052-9.97461-28.5742-0.33865-0.0481-0.6341-0.10228-0.89062-0.1211zm-146.088 6.13477c-0.21341-2e-3 -0.42026 0.0319-0.61719 0.10742-1.16213 0.44595-1.6543 1.83845-1.6543 4.66797 0 3.94058 0.0788 4.03125 3.5 4.03125 3.02339 0 3.5-0.32676 3.5-2.39063 0-2.97767-2.6656-6.40011-4.72851-6.41601zm-194.826 4.80664c-3.0206 0-4.98782 10.1815-2.19532 11.3613 0.6875 0.29043 2.82503 0.43917 4.75 0.33203 2.96803-0.16518 3.54584-0.59109 3.80274-2.80469 0.33195-2.8603-3.9802-8.88867-6.35742-8.88867zm59.4043 2.06055c-1.04592-0.0242-1.84183 0.47307-2.24414 1.52148-1.11527 2.90633-0.65843 11.2301 0.64453 11.7559 1.80915 0.73002 7.32303 0.76265 9.16797 0.0547 2.86009-1.09752 1.92197-6.25186-1.81836-9.99219-2.15659-2.15662-4.22134-3.30449-5.75-3.33984zm165.953 4.24023c-0.30573-2e-3 -0.59108 0.0685-0.84375 0.22461-0.52762 0.32609-0.95899 2.36569-0.95899 4.5332 0 3.819 0.1051 3.94141 3.41602 3.94141 1.87916 0 3.61024-0.5625 3.84766-1.25 0.89792-2.60014-2.97145-7.43196-5.46094-7.44922zm-195.428 0.80859c-1.19434 4.7e-4 -1.375 0.77381-1.375 3.73633 0 2.2533 0.54344 4.20707 1.25 4.49219 2.6219 1.05796 5.8366 0.59899 6.41797-0.91602 0.80401-2.09519-2.81205-6.83971-5.51953-7.24218-0.29586-0.044-0.55226-0.0704-0.77344-0.0703zm175.617 7.95508c-1.86408-6e-3 -3.38919 0.71263-4.09765 2.26758-1.41395 3.10328 0.48464 10.3559 2.875 10.9824 3.30776 0.86703 9.37236 0.67932 11.2949-0.34961 2.51147-1.34409 2.45489-4.03257-0.1543-7.34961-2.76564-3.51592-6.81116-5.54012-9.91797-5.55078zm-68.9922 5.93555c-0.55471 0-0.94841 2.33779-0.88281 5.25 0.10114 4.48755 0.23033 4.81432 0.88281 2.25 1.13072-4.44367 1.13072-7.5 0-7.5zm-307.801 4.5-1.84961 4c-2.89568 6.26238-2.63448 32.099 0.4336 42.7988 2.95826 10.317 6.93852 17.9981 13.2266 25.5234 5.45435 6.52763 7.12587 7.19151 11.8926 4.72656 7.71398-3.98908 20.1621-22.8755 20.3906-30.9375 0.152-5.36199-1.10909-5.93875-6.74023-3.08789-9.75825 4.94024-18.0368 2.54787-23.959-6.92188-4.43266-7.088-6.2612-11.5692-10.082-24.707zm539.301 1.96875c-0.37145-0.0244-0.83892 0.42487-1.64843 1.23438-1.14751 1.14747-3.07998 6.74514-4.92774 14.2754-3.60552 14.6937-6.91852 22.1736-11.25 25.3965-5.10387 3.79757-8.07864 4.04723-12.5976 1.05664-2.1636-1.4318-5.72117-2.84364-7.90625-3.13672-3.36674-0.45158-4.15177-0.1985-5.14649 1.66016-3.19069 5.96187 3.22435 20.6049 13.2734 30.2949 3.8501 3.7125 7.7956 6.75 8.76758 6.75 2.91373 0 12.7806-11.8844 17.0195-20.5 6.346-12.8982 8.26013-22.3995 7.65039-37.957-0.28116-7.17379-1.07069-14.5465-1.75391-16.3848-0.6849-1.84274-1.00288-2.65807-1.48047-2.68945zm-152.5 2.53125c-1.59997 0-2 0.66537-2 3.33203 0 1.83334 0.32019 3.65609 0.71289 4.04883 1.36673 1.36673 6.76 0.17197 7.08985-1.57031 0.41209-2.17665-3.21707-5.81055-5.80274-5.81055zm-79.8144 2.98242-2.15039 4.44531c-2.40969 4.97775-8.36592 10.8085-13.5801 13.2949-1.90078 0.90642-3.45508 1.92725-3.45508 2.26953 0 0.34229 1.74673 1.39349 3.88282 2.33594 5.89196 2.59951 12.4368 7.99495 14.623 12.0547l1.95899 3.63672 2.30469-5.22266c3.45446-7.82745 7.31787-11.1788 14.7305-12.7793l3-0.64844-4.94531-2.21484c-7.37726-3.30448-11.0691-6.53535-13.8594-12.1348zm115.754 0.0977c-1.904-0.0215-3.34423 0.65863-4.3125 2.04101-1.51627 2.16478-1.17515 4.26496 1.5625 9.62891 1.43643 2.81446 4.79642 2.89209 10.627 0.24609 3.75994-1.7063 4.27706-2.31804 4-4.72851-0.24563-2.13705-1.33492-3.28068-4.7793-5.01758-2.82622-1.42519-5.19365-2.14845-7.09765-2.16992zm-84.6484 3.08984c-2.52847-0.0596-4.02651 2.76544-2.88086 7.33008 0.5098 2.03119 1.24254 2.5 3.9082 2.5 5.85149 0 7.32539-3.44806 3.22657-7.54687-1.53759-1.53759-3.01908-2.25412-4.25391-2.28321zm19.3535 1.98242c-1.90725 0.0343-2.5693 1.79369-1.92579 5.16016 0.43466 2.27373 1.0244 2.6875 3.8379 2.6875 1.82839 0 3.63005-0.4947 4.0039-1.09961 0.94862-1.5349-2.8374-6.33655-5.28516-6.70312-0.22387-0.0335-0.43355-0.0485-0.63085-0.0449zm32.832 5.41602c-1.04251 0.0732-1.47657 1.56535-1.47657 4.55078 0 3.99848 2e-3 4.00155 3.67188 3.69141 4.79181-0.40494 5.19963-2.09334 1.41992-5.87305-1.62589-1.62589-2.80439-2.42604-3.61523-2.36914zm-14.4766 5.43164c-1.67159 0-2 0.66685-2 4.06055v4.06054l3.74024-0.31054c2.55795-0.21218 3.84387-0.84567 4.0625-2 0.41224-2.1766-3.21701-5.81055-5.80274-5.81055zm-268.223 2.13867c-0.15465-6e-3 -0.30242 3e-3 -0.44141 0.0293-1.88505 0.35775-3.00929 4.64335-1.94531 7.41601 1.05952 2.76107 8.60742 1.43025 8.60742-1.51757 0-2.24212-3.9009-5.835-6.2207-5.92774zm172.223 0.97656c-0.8156 0-1.63125 0.0586-2.25 0.17774-1.23747 0.23835-0.22497 0.43359 2.25 0.43359 2.475 0 3.4875-0.19524 2.25-0.43359-0.61875-0.11918-1.43437-0.17774-2.25-0.17774zm55.6738 0.0117c-0.48208 9e-3 -0.98057 0.0688-1.40625 0.17969-0.97297 0.25354-0.41755 0.47765 1.23242 0.49805 1.65 0.0204 2.44461-0.18701 1.76758-0.46094-0.38083-0.15411-0.97393-0.22781-1.59375-0.2168zm78.3789 0.11328c-0.14597-3e-3 -0.27883 0.0154-0.39649 0.0605-1.69172 0.64919-2.39064 6.63276-0.94336 8.08008 1.10973 1.10972 7.58513 0.25902 8.01563-1.05273 0.60155-1.83299-4.48626-7.0393-6.67578-7.0879zm-70.5977 4.92188c-0.0781 4e-3 -0.15412 0.0132-0.22851 0.0273-1.2863 0.24422-1.80456 1.51711-2.0293 4.99219-0.27078 4.18685-0.0659 4.71041 2 5.10547 1.26592 0.24207 2.60319 0.50127 2.9707 0.57617 1.91904 0.3911 3.83203-1.36354 3.83203-3.51562 0-2.87487-4.12291-7.32141-6.54492-7.18555zm-73.8047 0.24609c-0.38843 0.0236-0.74083 0.27229-1.16992 0.71094-0.74238 0.75893-1.64628 2.59294-2.00976 4.07617-0.59348 2.42184-0.32043 2.78975 2.68359 3.59375 1.83978 0.49244 3.90823 0.69228 4.5957 0.44531 2.07219-0.74438 1.41029-4.16391-1.33593-6.91015-1.36928-1.36928-2.11624-1.9553-2.76368-1.91602zm57.0938 3.60938c-1.08447-0.0101-1.97996 0.43022-2.38672 1.49023-0.31814 0.82914-0.27813 3.1037 0.0879 5.05469 0.64895 3.45919 0.76912 3.53941 4.85937 3.24219 3.69388-0.26841 4.23119-0.6198 4.5-2.93946 0.38802-3.3484-4.06233-6.81966-7.06054-6.84765zm77.8144 1.28906c-0.79347-0.016-1.49893 0.22741-2.10742 0.73242-1.66591 1.38258-1.90654 6.63341-0.47657 10.3945 0.79694 2.09611 1.63239 2.56641 4.56641 2.56641 7.78076 0 9.8064-4.49827 4.44336-9.86133-2.50856-2.50857-4.68015-3.79691-6.42578-3.83203zm-55.7129 7.30273c-3.75254 0.076-4.78663 3.39239-2.74805 9.24024 0.92021 2.63973 1.60779 3.14716 4.25 3.13476 4.03912-0.0189 8.0387-2.04195 8.4707-4.28515 0.41642-2.16229-4.88938-7.28916-8.19921-7.92188-0.64602-0.12349-1.23737-0.1788-1.77344-0.16797zm-137.504 0.73633c-0.13939 0.015-0.23517 0.37863-0.26367 1.07032-0.0434 1.05413 0.1931 1.64479 0.52539 1.3125 0.33225-0.33229 0.367-1.19415 0.0781-1.91602-0.12969-0.32408-0.24448-0.47709-0.33985-0.4668zm-231.662 1.32032c-0.75403-0.16095-0.67755 2.54552-0.3125 12.834 1.14153 32.1728 13.2004 56.6475 33.1348 67.2539 7.80582 4.15319 10.5504 4.12731 14.8144-0.13672 6.6652-6.66524 13.6856-23.0711 13.6856-31.9844 0-5.25126-1.22417-6.44912-4.30078-4.21094-11.2429 8.17906-14.2143 8.95816-21.2207 5.56641-6.53873-3.16536-13.6092-12.1781-24.0879-30.709-4.84071-8.5605-9.63881-16.5125-10.6621-17.6719-0.45577-0.51636-0.79944-0.88775-1.05078-0.9414zm385.928 1.5625c-1.4025-0.0786-2.19109 1.44594-2.41797 4.58984l-0.31055 4.30273 4.30078-0.31054c5.29499-0.38212 5.99575-2.36167 2.1836-6.17383-1.54871-1.5487-2.79626-2.35441-3.75586-2.4082zm193.162 2.77148c-2.7543 0-8.21378 7.29303-15.2754 20.4043-7.68373 14.2663-13.9077 21.9695-19.9727 24.7246-6.50607 2.95549-10.0418 2.4624-15.2578-2.12891-4.72739-4.16123-8.61394-5.1342-9.65625-2.41797-2.49146 6.49262 5.13769 27.5432 12.9258 35.668 1.97703 2.0625 3.86933 3.75 4.20703 3.75 0.33769 0 4.45505-1.85912 9.14844-4.13086 21.2214-10.2718 32.7254-31.9005 34.7734-65.375 0.55364-9.04859 0.43145-10.4941-0.89257-10.4941zm-292.008 0.0996c-1.15194 3e-3 -2.0723 0.61149-2.72656 1.83398-1.14327 2.13622-1.38846 8.98495-0.41211 11.5293 0.5007 1.30479 1.8351 1.56831 6.75 1.33203l6.12695-0.29492 0.31641-3.30078c0.2618-2.7248-0.37228-3.98945-3.63281-7.25-2.56151-2.56151-4.73826-3.85329-6.42188-3.84961zm41.7363 0.0703c-0.13897-0.0254-0.23846 0.81758-0.24609 2.33008-0.0111 2.19996 0.1833 3.21781 0.43359 2.26172 0.25031-0.95609 0.26067-2.75609 0.0215-4-0.0747-0.38872-0.14582-0.58024-0.20899-0.5918zm69.5117 0.83008c-2.15522 0-3.43935 3.07105-2.50977 6 0.86552 2.72701 7.5 2.92396 7.5 0.22266 0-2.65899-2.8582-6.22266-4.99023-6.22266zm49.6582 0.20313c-0.22913-6e-3 -0.45212 2e-3 -0.66797 0.0254-2.88975 0.31279-3.75178 3.66776-2.07421 8.08007 0.8921 2.34647 1.57176 2.68918 5.29882 2.67578 5.67382-0.0203 7.21665-1.08595 6.38282-4.4082-0.74889-2.98379-5.50245-6.28072-8.93946-6.37304zm-306.057 1.79687c-1.52418 0-2.97279 0.80595-3.61914 2.01367-1.43883 2.68848-0.22826 8.76256 1.85742 9.31641 5.45493 1.44854 10.1504-0.14462 10.1504-3.44336 0-2.88825-5.31733-7.88672-8.38867-7.88672zm101.055 4.33594c-0.2755 0.01-0.53129 0.0788-0.75781 0.21875-1.37041 0.84696-1.0909 7.20509 0.34179 7.7832 2.16257 0.87262 5.60593 0.70193 6.23047-0.30859 1.39497-2.2571-3.15132-7.78769-5.81445-7.69336zm-10.8086 3.625c-0.43618 0.15088-0.9652 1.40892-1.74414 3.70703-0.96338 2.84215-3.01748 6.82534-4.56446 8.85351-3.02926 3.9716-10.4978 9.1864-14.5488 10.1562-4.29206 1.02766-4.20753 1.41354 0.86524 3.94141 9.21283 4.59096 17.6836 16.1067 19.7734 26.8809l0.77539 4 0.74023-6.32813c2.07898-17.7604 8.76623-25.2818 22.5508-25.3613 3.56988-0.0206 7.68439-0.35912 9.14258-0.75196 2.07777-0.55976 1.2463-0.84811-3.84766-1.33398-15.3399-1.46314-25.9016-8.63347-27.5762-18.7246-0.59712-3.5982-1.0056-5.23306-1.5664-5.03906zm133.752 4.27734c-0.73712 0.0238-1.56068 0.30476-2.12305 0.77149-1.80463 1.49767-1.97822 7.62524-0.23633 8.32812 2.48567 1.00299 6.54644 0.63294 7.03516-0.64062 0.70636-1.84075-1.89888-7.61088-3.75781-8.32422-0.26719-0.10253-0.58292-0.14556-0.91797-0.13477zm-48.2246 3.76172c-3.85678 0-3.87673 10.5534-0.0215 11.3086 1.17473 0.23013 2.43717 0.47979 2.80468 0.55469 1.8822 0.38359 3.83203-1.34375 3.83203-3.39453 0-2.69223-4.513-8.46875-6.61523-8.46875zm33.3789 2.20313c-0.25805-3e-3 -0.51263 4e-3 -0.76368 0.0234-3.14253 0.24466-3.53329 0.60092-3.8125 3.49024-0.17103 1.76987 0.58993 5.25261 1.68946 7.73828 1.89959 4.29431 2.16368 4.49051 5.31054 3.94726 8.64941-1.4931 11.3492-4.4072 8.33985-9-2.3326-3.55999-6.89293-6.14735-10.7637-6.19921zm-184.293 3.11328c-0.11804 2e-3 -0.22203 0.0285-0.3086 0.082-1.26525 0.78198-1.60549 6.82611-0.44922 7.98242 1.09413 1.09413 6.58174 0.27034 7.01563-1.05273 0.52936-1.61423-4.48725-7.04454-6.25781-7.01172zm119.5 2.01367c-0.52938 0.0122-0.99211 0.27179-1.58008 0.75976-1.89984 1.57673-1.34482 8.68988 0.7832 10.0391 1.73953 1.10285 3.14693 1.07803 6.25977-0.10547 4.21354-1.60199 3.03836-5.73872-2.68945-9.4668-1.30273-0.84791-2.09282-1.2422-2.77344-1.22656zm42.7461 3.86914c-0.24392-5e-3 -0.48311 4e-3 -0.7168 0.0293-3.11432 0.3371-3.83619 4.25396-1.58593 8.60546 1.39876 2.70491 1.83454 2.89799 4.9414 2.19727 4.7592-1.07337 5.64453-1.79461 5.64453-4.60547 0-2.7929-4.62443-6.15113-8.2832-6.22656zm45.1641 1.97461c-0.0834 2e-3 -0.16671 0.01-0.24804 0.0215-1.78467 0.25452-2.18268 1.0834-2.4375 5.05469l-0.30664 4.75h4.55664c4.12249 0 4.55468-0.22458 4.55468-2.36523 0-3.30648-3.53209-7.53726-6.11914-7.46094zm-175.322 1.82617c-1.95746 0-3.5586 0.45-3.5586 1s1.32192 1 2.93946 1 3.22062-0.45 3.56054-1c0.3678-0.59512-0.82337-1-2.9414-1zm235.27 4.12305c-0.17093 3.8e-4 -0.33856 0.0155-0.50391 0.0469-1.40517 0.26699-1.89415 1.43635-2.1289 5.08789l-0.30664 4.74219h3.93359c2.16279 0 4.38545-0.5625 4.93945-1.25 1.98912-2.46842-2.45801-8.63474-5.93359-8.62695zm-236.85 1.08789c-0.0904 8.6e-4 -0.17441 0.0136-0.25195 0.0391-1.36583 0.44835-2.18905 5.10402-1.3086 7.39844 0.7726 2.01336 6.9592 1.41405 7.36133-0.71289 0.35336-1.86906-3.96305-6.74213-5.80078-6.72461zm93.1211 6.49023c-2.83593 0.0841-3.38658 2.73785-0.80468 6.07031 1.00414 1.29606 4.35005 0.80258 6.18164-0.91211 1.41242-1.32223-0.66335-4.18526-3.57227-4.92773-0.67663-0.1727-1.27951-0.24605-1.80469-0.23047zm64.3106 0.6836c-0.1546 6e-3 -0.29668 0.043-0.41992 0.11914-1.43832 0.88893-1.22203 8.23605 0.25976 8.83398 0.6875 0.27741 2.26253 0.53863 3.5 0.58203 1.76472 0.0619 2.25-0.47037 2.25-2.46679 0-2.58075-3.76558-7.1359-5.58984-7.06836zm-92.0176 0.61523c-1.82936 0-2.68188 3.59198-1.41406 5.96094 1.29807 2.42546 5.80768 2.75567 6.67773 0.48828 0.65429-1.70506-3.21743-6.44922-5.26367-6.44922zm324.121 0c-2.24949 0-7.0474 5.09009-17.0117 18.0488-19.1418 24.8941-31.6375 33.431-44.0195 30.0723-3.41616-0.92667-4.3884-1.86382-6.85352-6.60156-4.72347-9.07807-7.60566-7.18874-7.59766 4.98047 7e-3 11.7588 4.07173 25.2198 9.28321 30.75 3.36586 3.57175 6.83588 3.5406 17.4453-0.15234 24.7927-8.62992 42.5463-30.8238 47.8086-59.7656 2.83291-15.5806 2.92824-17.332 0.94532-17.332zm-592.955 0.33789c-1.50221 0.1928-1.67124 3.47193-1.27539 9.55664 1.09712 16.8638 9.28689 35.7557 21.1543 48.8027 8.71606 9.58249 21.7644 17.4764 33.4766 20.252 5.33107 1.26333 5.51314 1.23903 9.16601-1.22266 4.02279-2.71093 7.51211-7.6359 8.93555-12.6094 1.84855-6.45879 2.87279-18.4637 2.14258-25.1172l-0.71289-6.5-1.63672 3c-2.18318 4.00246-7.64437 9.12596-11.123 10.4375-4.24843 1.60173-10.0851 1.28056-15.7324-0.86523-9.08263-3.45114-12.3225-6.71254-30.3516-30.5723-7.97607-10.5556-12.1116-15.41-14.043-15.1621zm133.791 2.17969c-0.61833 8e-3 -1.08597 0.35941-1.78711 1.06055-0.92628 0.92628-1.55782 3.26735-1.54882 5.74218 0.0166 4.5412 0.67477 6.07126 2.98632 6.95117 2.07614 0.79031 5.52831 0.84624 7.41797 0.1211 3.6432-1.39803 0.62443-10.286-4.37109-12.8691-1.30859-0.67671-2.07893-1.01338-2.69727-1.00586zm221.15 6.05078-3.89062 7.89062c-2.20294 4.46708-5.747 9.69006-8.16797 12.043l-4.27539 4.15625 3.16602 1.14844c4.79378 1.73798 10.4061 6.83136 11.8125 10.7207 0.69055 1.90976 1.50267 3.46127 1.80468 3.44727s1.93069-2.82653 3.61719-6.25c3.75859-7.62961 7.83169-10.6981 14.3301-10.791l4.60351-0.0664-5.25-1.41211c-12.0436-3.24308-16.3633-7.21774-17.2402-15.8613zm-48.2246 0.42578c-1.92131-0.0375-3.4948 0.54708-4.19921 1.86328-1.37756 2.574 0.44059 8.69071 3.14648 10.5859 2.33815 1.63771 5.8164 1.23029 9.58008-1.12109 3.24454-2.02708 3.74-4.06543 1.57031-6.4629-2.72673-3.01298-6.8954-4.80268-10.0977-4.86523zm92.666 1.12891c-0.42782 0.0283-0.8062 0.49004-1.44531 1.31836-2.42208 3.13906-1.88726 6.25894 1.2539 7.32812 5.59991 1.90606 7.08703-1.59736 2.7461-6.46484-1.37283-1.53935-2.00463-2.21807-2.55469-2.18164zm-64.9902 0.97461c-2.94642 0.0329-4.01553 4.69543-1.38086 7.33007 1.77263 1.77264 5.98218 2.10328 6.94531 0.54493 0.92667-1.49938-2.81423-7.40683-4.95117-7.81836-0.21258-0.0409-0.41686-0.0588-0.61328-0.0566zm-57.127 1.90234c-1.39876 0-1.82422 0.77052-1.82422 3.29883 0 1.815 0.55855 3.85933 1.24219 4.54297 1.80164 1.80164 6.17236 1.01813 6.58985-1.18164 0.43094-2.27064-3.52937-6.66016-6.00782-6.66016zm-89.3535 4c-2.08512 0-3.51851 6.61822-1.80469 8.33203 0.36666 0.36667 2.39166 0.66797 4.5 0.66797 3.39165 0 3.83398-0.28003 3.83398-2.42773 0-2.44953-4.09642-6.57227-6.52929-6.57227zm106.812 1.20117c-0.25217 5e-3 -0.48917 0.0473-0.70703 0.13086-1.61901 0.62128-2.26712 6.64693-0.86524 8.04883 0.39284 0.39286 2.30536 0.57969 4.25 0.41601 2.97931-0.25073 3.53711-0.67382 3.53711-2.68945 0-2.56556-3.77715-5.95654-6.21484-5.90625zm-48.1953 2.77539c-1.68522 0.0123-2.27109 1.946-1.08398 5.54297 1.26541 3.83422 4.05699 4.61577 7.49805 2.09961 1.80942-1.32308 1.7598-1.50974-1.23047-4.5-2.13787-2.13787-3.95384-3.15154-5.1836-3.14258zm-109.959 2.54297c-0.65423-0.0165-1.23769 0.15279-1.70312 0.53906-0.84246 0.69917-1.42774 2.99444-1.42774 5.59571 0 3.63844 0.39356 4.56824 2.25 5.31445 3.33619 1.34098 6.12843 1.20687 8.3086-0.39844 1.92117-1.41466 1.92145-1.46758-8e-3 -5.07812-1.85709-3.47577-5.08336-5.91385-7.41992-5.97266zm195.078 7.51953c-1.22611 0-2.10505 0.3201-1.70899 0.96094 0.33992 0.55 2.05356 0.99237 3.8086 0.98437 2.42806-0.0116 2.83277-0.24676 1.6914-0.98437-0.99161-0.64084-2.56491-0.96094-3.79101-0.96094zm118.863 0.23242c-0.51464-0.0146-0.96701 0.22441-1.52735 0.68946-1.96582 1.6315-2.21119 13.6036-0.29492 14.377 0.6875 0.27741 3.15347 0.53863 5.48047 0.58203 3.70315 0.0691 4.30924-0.2299 4.85547-2.40625 0.77636-3.0933-2.21157-9.14568-5.85938-11.8691-1.22788-0.91674-1.99262-1.35424-2.65429-1.37305zm-222.982 2.70508c-1.68522 0.0123-2.27109 1.946-1.08398 5.54297 1.26541 3.83422 4.05699 4.61577 7.49805 2.09961 1.80942-1.32308 1.7598-1.50974-1.23047-4.5-2.13787-2.13787-3.95384-3.15154-5.1836-3.14258zm-15.6582 0.0234c-1.67914 0-2.55166 2.67195-1.82226 5.57813 0.49331 1.96548 1.24403 2.42187 3.99804 2.42187 2.51399 0 3.39258-0.43614 3.39258-1.68555 0-1.98718-3.81629-6.31445-5.56836-6.31445zm107.553 2.18359c-2.11623 0.0383-3.79825 2.25141-2.59961 5.375 0.63694 1.65983 6.17207 1.96684 7.14257 0.39649 0.35487-0.57418-0.0967-2.17603-1.0039-3.56055-1.02805-1.56899-2.35191-2.23244-3.53906-2.21094zm-42.5957 1.93946c-0.63596-0.0303-1.02659 0.27488-1.44336 0.93359-1.37107 2.16707-1.13081 4.61335 0.62696 6.37109 1.75777 1.75777 4.20402 2.00001 6.37109 0.62891 2.03877-1.28992-0.0914-5.7126-3.5-7.26562-0.91818-0.41835-1.56005-0.64442-2.05469-0.66797zm16.5645 12.5117c-0.9415 0.0262-1.75471 0.31134-2.34571 0.90234-2.30287 2.30291-2.2012 11.0165 0.14453 12.3828 2.77616 1.61696 10.8837 1.30188 12.6777-0.49219 1.91846-1.91844 1.91695-1.8577 0.0859-5.39843-2.21679-4.2868-7.20003-7.48799-10.5625-7.39453zm-84.4902 2.5371c-0.11598 2e-3 -0.23105 0.0101-0.3457 0.0234-2.41635 0.28033-2.63967 0.71635-2.92383 5.70899-0.20707 3.63824 0.11984 5.68585 1 6.26172 0.71921 0.47055 3.10862 0.73725 5.30859 0.59375 3.67794-0.2399 4.02419-0.51117 4.30274-3.3711 0.40679-4.17644-3.74639-9.28834-7.3418-9.2168zm34.9766 0.99415c-0.0712 2e-3 -0.13892 9e-3 -0.20507 0.0215-1.79786 0.34089-2.86559 4.7229-1.81641 7.45703 0.78752 2.05225 7.954 1.44454 8.36133-0.70898 0.39617-2.09458-4.13172-6.83993-6.33985-6.76953zm-60.5176 5.02734c-0.30125 4e-3 -0.60763 0.0143-0.91993 0.0332-4.13081 0.2497-4.52813 0.50779-4.82812 3.13086-0.43662 3.81789 1.46809 8.15728 4.14844 9.45313 3.19222 1.54332 4.03085 1.42529 7.78125-1.09375 7.09653-4.76665 3.15709-11.6472-6.18164-11.5234zm38.5215 2.54492c-0.40961 8e-3 -0.78058 0.12711-1.08398 0.37891-1.40282 1.16424-1.86961 6.03665-0.69141 7.21484 0.36666 0.36667 2.16666 0.66797 4 0.66797 2.86231 0 3.33398-0.34335 3.33398-2.42773 0-2.70549-3.34668-5.87713-5.55859-5.83399zm-76.5156 3.26172c-1.57599 0-1.92579 0.71506-1.92579 3.92578 0 2.8988 0.45812 4.04716 1.75 4.38477 2.75767 0.72062 2.99369 0.72454 4.66797 0.082 0.86999-0.33384 1.58203-1.17326 1.58203-1.86524 0-2.16792-4.05749-6.52734-6.07421-6.52734zm167.639 2c-2.19638 0-2.56446 0.44008-2.56446 3.06445 0 1.68616 0.46581 3.93616 1.03516 5 1.35253 2.52717 6.1084 2.53722 8.38867 0.0176 2.99586-3.3104-1.0545-8.08203-6.85937-8.08203zm270.111 0.0371c-0.98339-0.14589-4.36791 2.25842-12.4883 8.71289-13.1724 10.4701-19.9375 14.6709-28.9453 17.9785-15.0184 5.51462-25.4514 2.54143-31.1602-8.88282-1.69432-3.39061-3.08008-6.99371-3.08008-8.00586 0-1.91267-1.62417-2.36647-3.71289-1.03906-5.63266 3.57959-6.86341 30.1297-2.07422 44.748 1.01326 3.09285 1.92753 4.08157 4.28711 4.63476 4.37727 1.02621 17.3774 0.0387 23.6055-1.79296 13.8646-4.07757 30.1794-15.8385 39.4062-28.4082 3.03885-4.13974 14.4883-25.8376 14.4883-27.457 0-0.28689-0.0992-0.45461-0.32617-0.48828zm-571.676 0.76172v2.99804c0 4.40632 8.01424 19.5908 14.8867 28.2031 11.4244 14.3168 24.5371 23.1149 37.1133 24.9023 3.575 0.50814 7.62503 1.40697 9 1.99805 1.375 0.59104 4.16639 0.9 6.20313 0.6875 9.31812-0.97215 15.1071-10.3502 15.1484-24.5371 0.0271-9.28704-1.48861-17.0992-4.63477-23.877l-2.00781-4.32422-3.3125 6.19922c-4.24118 7.93792-5.80876 9.61445-11.8457 12.6758-12.747 6.46385-34.9394-1.51792-54.8711-19.7344zm240.33 2.18164c-2.46784-0.0331-4.56424 0.58831-5.2539 1.87695-1.56278 2.92008 0.52017 8.8585 3.71679 10.5938 3.64455 1.97831 4.36559 1.91405 8.3086-0.73437 4.82922-3.24373 5.10501-7.01047 0.71093-9.68946-2.17662-1.32704-5.01457-2.01379-7.48242-2.04687zm-49.957 0.1289c-1.19674 1e-3 -1.37305 0.78582-1.37305 3.82032 0 3.97092 0.0819 4.07031 3.43946 4.07031 1.89254 0 3.74724-0.4947 4.12109-1.09961 0.97326-1.57478-2.86566-6.34217-5.41211-6.7207-0.29683-0.0441-0.55377-0.0706-0.77539-0.0703zm128.344 2.28516c-0.43935 1e-3 -0.8319 0.29088-1.35937 0.81836-0.98634 0.98634-1.25018 2.37167-0.79493 4.18555 0.57864 2.30545 1.13723 2.66505 3.73243 2.40625 4.04666-0.40356 4.43465-2.16496 1.19336-5.40625-1.39052-1.39052-2.12936-2.00583-2.77149-2.00391zm-11.668 6.60547c-1.14453 0-1.41352 3.88977-0.44336 6.41797 0.70162 1.82841 5.44045 2.13377 7.11524 0.45898 0.61701-0.61702 0.87875-1.75879 0.58008-2.53711-0.5581-1.45437-5.38079-4.33984-7.25196-4.33984zm103.723 4.0293c-1.11252 5e-3 -2.00741 0.42039-2.34375 1.29687-0.28018 0.73015-0.053 2.53015 0.50586 4 0.77915 2.04934 1.69237 2.67383 3.91797 2.67383 1.59627 0 3.4738-0.68817 4.17187-1.5293 1.05291-1.26867 0.87278-1.95039-1.05273-4-1.48476-1.58044-3.57323-2.44919-5.19922-2.4414zm-193.584 2.0625c-2.18099-0.0494-3.75701 1.00536-3.99804 3.09179-0.1705 1.47598 0.40326 4.06351 1.27539 5.75 1.18529 2.29209 2.27418 3.06178 4.31054 3.05078 7.84528-0.0424 10.3024-5.66749 4.25586-9.74218-2.08559-1.4055-4.1474-2.11195-5.84375-2.15039zm-53.3867 7.33984c-1.19276-0.0501-1.80079 1.32976-1.80079 4.12695 0 3.26588 0.17813 3.44141 3.5 3.44141 4.29468 0 4.7425-2.48364 1.07227-5.93164-1.13117-1.06268-2.05585-1.60664-2.77148-1.63672zm15.1484 1.75c-2.19595-0.0271-3.51265 2.43784-2.50586 6.44922 0.54425 2.16883 1.09799 2.44667 4.33203 2.17773 4.56865-0.37993 5.41561-2.91241 2.14063-6.39843-1.42452-1.51633-2.81653-2.21434-3.9668-2.22852zm140.613 4.0293c-1.40377 0.0333-2.15288 1.53708-2.37109 4.54687l-0.30664 4.24219h4.58789c6.13671 0 7.07425-2.229 2.61328-6.21484-1.94329-1.73634-3.43159-2.6001-4.52344-2.57422zm-28.9766 3.09179c-0.18807 8e-3 -0.3522 0.0519-0.48633 0.13477-1.19009 0.73552-1.52353 6.80459-0.43359 7.89453 0.93265 0.93266 4.56794 0.80585 6.18164-0.2168 0.74162-0.46998 1.19162-1.65309 1-2.6289-0.40767-2.07607-4.44365-5.26275-6.26172-5.1836zm-76.9297 0.34766c-2.98079-0.0325-5.65625 0.6689-5.65625 1.79492 0 0.67053 1.91253 2.73297 4.25 4.58399 2.3375 1.85103 4.609 3.95194 5.04883 4.66797 0.83272 1.3556 5.38258 1.74544 8.11914 0.69531 4.45621-1.71-0.77066-9.29118-7.73047-11.2129-1.25798-0.34736-2.67633-0.51451-4.03125-0.5293zm86.8086 7.59961c-1.2454 0.0401-1.91061 1.10105-1.76563 3.12695 0.11014 1.53913 0.74469 3.45401 1.41016 4.25586 0.66548 0.80185 1.849 1.21214 2.63086 0.91211 0.78187-0.30003 2.05982-0.54492 2.83984-0.54492 2.37405 0 1.58566-3.72552-1.26367-5.9668-1.56268-1.2292-2.88292-1.81435-3.85156-1.7832zm-200.732 6.35937-1.70508 2.10743c-0.93828 1.15873-2.24369 5.35945-2.90039 9.33593-2.59767 15.7295-9.33043 18.4039-35.127 13.9473-14.4925-2.50373-17.003-2.54063-16.998-0.25 0.0192 8.98296 19.6927 19.7106 41.8457 22.8203 5.79499 0.81348 10.7487 1.69401 11.0098 1.95508 0.80434 0.80434 4.87573 0.52602 7.63086-0.52148 1.71718-0.65288 3.33317-2.60775 4.68945-5.67383 1.79029-4.04725 2.00035-6.03427 1.55859-14.7539-0.59427-11.7299-3.46593-21.9119-7.36328-26.1172zm368.25 1.9004c-0.13095 0.0125-0.26225 0.0438-0.39258 0.0937-3.4368 1.31879-8.59863 20.026-8.58203 31.1035 5e-3 3.18569 0.29413 8.16697 0.64257 11.0684l0.63282 5.27539 9.10742-0.60351c11.4627-0.75809 25.6067-3.00934 32.1094-5.11133 12.6496-4.08899 26.5118-13.2556 25.2031-16.666-1.45818-3.79991-4.9999-4.14158-18.9805-1.83008-26.1425 4.32238-31.1522 2.50722-34.2754-12.4199-1.4867-7.10564-3.50068-11.0982-5.46484-10.9102zm-284.371 2.0957c-0.4596-0.0123-0.86088 0.1854-1.31054 0.55859-1.691 1.4034-1.05018 6.74091 0.96289 8.01953 2.70546 1.71844 6.73632 0.40033 6.73632-2.20312 0-0.99226-1.40174-2.98172-3.11328-4.42188-1.58187-1.33104-2.50938-1.93262-3.27539-1.95312zm-57.498 25.3965c-0.45922 3e-3 -1.07688 2.67324-1.37305 5.93946-1.01039 11.1428-7.77587 21.9614-16.3203 26.0976-4.70146 2.27594-5.20826 2.28328-25.6699 0.33203-4.54839-0.43374-5.75-0.25368-5.75 0.86524 0 1.89741 3.41234 4.93602 9.625 8.56836 8.73168 5.10507 15.8127 6.9906 29.875 7.95898 19.1566 1.31919 24.1376 0.16007 27.2363-6.33789 3.32428-6.97105-1.38442-21.4906-11.7578-36.2617-2.76594-3.93854-5.40412-7.15909-5.86523-7.16211zm317.602 0.99805c-2.10965 0-10.6398 10.3975-14.0254 17.0957-5.14049 10.1702-6.57866 18.2843-4.29883 24.2539 0.9437 2.47105 2.43477 5.08949 3.3125 5.82031s5.01646 1.61865 9.19726 1.97266c4.18082 0.35403 10.5793 0.46961 14.2207 0.25586 11.088-0.65086 30.4607-7.17493 36.1309-12.168 4.59025-4.04203-0.83903-7.24146-8.09375-4.76953-10.2399 3.48908-20.19 1.40187-26.7949-5.62305-4.66388-4.96049-6.3886-9.11049-7.66016-18.4356-0.63023-4.62177-1.52444-8.40234-1.98828-8.40234zm-135.404 3c-2.5259 0-2.86988 1.39897-1.33594 5.43359 0.58501 1.53871 1.75246 2.56641 2.91797 2.56641 2.9796 0 5.10742-1.06995 5.10742-2.56836 0-2.09226-4.11319-5.43164-6.68945-5.43164zm103.449 33.0723-2.62891 1.34375c-6.13944 3.13393-19.2317 7.1264-44.6094 13.6035-36.9701 9.43591-35.4808 9.03946-40.5195 10.7578-5.91792 2.01824-12.4104 8.51593-14.082 14.0957-1.17483 3.92122-1.10989 4.73403 0.63672 7.99609 2.52953 4.7243 6.74082 6.666 18.4453 8.50586 11.7339 1.84446 16.8112 1.39633 23.123-2.03906 5.73513-3.12145 7.31255-4.75584 6.53907-6.77149-0.7909-2.06102-6.42019-3.36004-19.5664-4.51367-6.25701-0.54908-11.5565-1.17774-11.7773-1.39844-0.22069-0.2207 0.76122-1.78262 2.18164-3.4707 4.99568-5.93701 15.7927-8.4075 44.5-10.1797 9.07498-0.56022 21.1514-1.31076 26.8359-1.66797 12.9252-0.81214 13.6684-1.38325 12.7266-9.77734-0.37381-3.33144-0.93279-8.40229-1.24219-11.2695zm-246.23 2.23046c-0.94837 0.016-1.75748 0.38849-3.02344 0.99219-2.48176 1.18348-4.6485 3.7426-7.95703 9.39453-2.50085 4.27224-4.54687 8.07691-4.54687 8.45508 0 0.37818 3.93751 1.61138 8.75 2.74024 8.37187 1.96376 15.5212 2.74998 46.75 5.13281 16.2241 1.23794 24.5195 2.94506 31.5078 6.48633 8.42196 4.26771 7.20968 5.16893-9.25195 6.87695-13.6348 1.41473-17.0406 2.62703-16.5664 5.89453 0.42044 2.89687 7.29582 7.54148 12.8106 8.6543 9.06172 1.82857 21.9847-1.15474 32.625-7.53125 9.39617-5.63095 9.43763-5.72255 4.83203-10.4531-9.40109-9.65619-22.887-16.0295-44.457-21.0098-7.42499-1.71435-18.225-4.21967-24-5.56641-6.28438-1.46554-13.83-4.10503-18.793-6.57422-5.12961-2.55208-7.09908-3.51884-8.67969-3.49219z"/>
	</g>
	<g id="tearran">
		<path id="pathc" d="m609.174 148.648c-2.86234 0.0133-5.65333 0.0825-8.36133 0.21289-49.5592 2.3855-71.9521 11.4846-101.814 41.373-31.1869 31.2142-37.5746 45.3159-43.334 95.6406-3.15894 27.6025-3.33177 45.2094-0.59765 61.3516 2.20449 13.0154 7.22005 33.307 8.79492 35.5859 0.52262 0.75625 2.4356 5.0875 4.25195 9.625 4.3996 10.9908 12.4379 24.7706 18.748 32.1426 2.823 3.29799 12.291 11.332 21.041 17.8535 29.7217 22.1519 35.3837 28.7 42.373 49.0039 3.52844 10.2499 3.77824 12.4533 3.6582 32.3125-0.11083 18.3405-0.65297 23.4217-3.88867 36.4375-6.16076 24.7821-6.60235 26.966-5.6289 27.9394 0.5126 0.51259 1.65559 1e-3 2.53906-1.13672 0.88348-1.13783 3.71657-3.80985 6.29492-5.9375 9.25869-7.64019 21.8268-26.3235 26.5234-39.4277 6.32964-17.6607 8.81432-38.9142 6.23437-53.3164-1.30854-7.30463 1.19089-8.84695 8.21094-5.0664 10.6045 5.71089 17.0947 15.2139 17.2051 25.1914l0.0703 6.37891 2.54688-8.25c4.53285-14.6871 2.34788-37.7272-4.51758-47.6504-1.38881-2.00736-2.52343-4.11671-2.52343-4.6875s-2.49543-4.34183-5.54492-8.38086c-3.0495-4.03904-5.28006-7.34375-4.95508-7.34375s4.88258 2.20657 10.127 4.9043c22.2471 11.444 34.007 30.0548 29.4414 46.5898-1.83912 6.66079-0.35623 5.19655 5.7832-5.71094 6.00091-10.6614 8.34186-21.4548 7.12305-32.8359-1.1063-10.3305-5.41638-17.5699-16.3887-27.5234-10.521-9.54415-10.7461-9.70323-21.1562-14.9277-9.05679-4.54526-12.3892-5.71917-39.4922-13.9258-14.6188-4.42649-26.5342-10.4729-38.2402-19.4062-10.0947-7.70369-24.3223-22.1713-24.3223-24.7305 0-0.99526-0.49601-1.80859-1.10156-1.80859-1.41687 0-6.41871-10.3079-10.2441-21.1113-5.54215-15.6516-3.47653-45.2554 4.42773-63.4512 9.54979-21.9841 15.1158-30.5545 28.4102-43.75 12.2726-12.1814 23.1311-19.5558 43.1328-29.293 9.96769-4.85245 13.0688-5.92831 25.9394-9.00195 7.993-1.9088 55.1716-0.75221 64.123 1.57226 49.5246 12.8603 89.8877 40.2798 103.598 70.375 12.548 27.5447 17.2766 60.2406 13.3984 92.627-1.02861 8.58992-0.79965 10.4862 2.0625 17.1875 3.2224 7.54469 7.91736 15.848 20.5898 36.4082 3.72899 6.04994 6.78215 12.3447 6.78515 13.9883 6e-3 3.9578-5.76676 10.6517-12.3984 14.3789-6.70721 3.76959-7.32572 5.43711-5.32813 14.3633 1.49152 6.66477 1.37031 7.59777-1.60156 12.4863-1.76638 2.90562-3.8269 5.7018-4.58008 6.21484-0.8924 0.60787-0.79764 2.18869 0.27149 4.53516 2.54972 5.59605 1.97333 9.47436-2.28126 15.3476-4.66082 6.434-6.53252 12.0636-7.6914 23.1465-0.9448 9.03599-5.42311 18.0339-11.2598 22.625-4.11669 3.23824-14.6748 3.80166-25.252 1.34765-14.184-3.29079-35.5299-6.70511-42.0312-6.72461-7.87199-0.0236-18.746 2.87169-27.2012 7.24219-5.9051 3.0524-24.4541 20.8827-35.2676 33.9024-3.40316 4.0974-8.80364 10.2792-12 13.7363-11.2895 12.2104-24.8908 44.2749-26.1426 61.6289-0.73034 10.1247 0.20113 12.0102 4.01172 8.10937 0.9993-1.02299 9.21268-9.84019 18.252-19.5937 22.7155-24.5105 44.8548-46.4956 49.1445-48.8027 23.7534-12.7751 25.4456-13.0972 54.7344-10.4023 15.1356 1.39263 28.0589 3.49357 38.8262 6.31054 8.87679 2.32238 19.6025 4.22266 23.8359 4.22266 6.63256 0 8.69439-0.69636 14.9004-5.0332 10.9725-7.6678 13.7501-13.5909 15.8828-33.8594 1.17934-11.2078 1.67745-12.5864 6.87891-19.1191 6.75134-8.47939 7.60379-11.3629 5.58203-18.8711-1.54294-5.73-0.90115-11.1172 1.32422-11.1172 0.64361 0 2.53153-2.20516 4.19726-4.90039 3.07729-4.9792 3.15688-8.56836 0.49415-22.3106-1.0515-5.42692 1.08115-8.22359 10.3105-13.5254 8.98609-5.16207 12.3594-8.58261 13.2676-13.4531 1.0018-5.3729-0.87147-9.52974-11.0977-24.6367-13.405-19.803-22.5687-34.2967-24.9258-39.4238-1.90004-4.1331-2.04222-7.53022-1.00195-24.0625 1.82621-29.0225 1.31453-50.6578-1.48047-62.5625-4.3001-18.3156-12.1148-41.7078-16.9961-50.875-11.4656-21.5327-34.1628-42.6156-61.5898-57.209-31.3237-16.6665-90.1742-29.3417-133.109-29.1426zm32.5352 59.7363v0.0234c-7.67621-0.018-15.398 0.4118-19.1211 1.31446-19.1871 4.65839-35.162 13.731-47.4219 26.9277-22.8393 24.5843-30.3549 58.5755-19.9961 90.457 1.99873 6.15136 2.52272 6.75429 6.54297 7.51758 2.69788 0.51187 2.68605 1.05205 0.0606-6.30078-2.47963-6.94123-4.20793-14.6089-4.70703-20.8848l-0.46289-5.88672h34.9453l0.83984 10.0352c0.951 11.3498 3.37383 25.0208 4.57227 25.7617 0.62536 0.3886 4.59519 0.0687 5.30273-0.42578 0.0799-0.0436-0.6509-3.94166-1.61719-8.63672-0.96632-4.69487-1.96246-12.6072-2.21289-17.5762l-0.45117-9.03711 19.5469-0.25391c11.1905-0.15136 20.152 0.017 20.9688 0.40039 0.78468 0.36491-0.0234 22.3555-0.0234 22.3555l5.72851-1.10742 0.23047-19.2656 0.21875-2.25h19.8867c10.9383 0 20.0072 0.23933 20.1543 0.53516 0.14663 0.29579 0.0615 3.73852-0.19531 7.66211-0.25721 3.92377-0.38229 7.26331-0.26758 7.4082l-1.13086 4.48828c-3.0306 1.53529-5.97744 3.12078-5.84961 3.45313l2.04297 5.30469c0.0691 0.17252 0.74046 0.0504 1.6543-0.23242l-3.94141 15.582s-5.86334 15.5267-10.4961 21.7832c-6.06395 8.18956-12.0794 13.0157-18.7442 15.0215l-3.21093 0.96094-0.90039-31.5625-5.76368 2.27344 0.25391 28.6445h-1.71484c-2.75961 0-9.76617-4.0675-13.877-8.06445-5.23443-5.08984-9.58548-11.3368-13.0273-18.6816l-2.90625-6.19141-2.61523 0.47461c-1.43512 0.26778-2.72919 0.62589-2.88282 0.77734-0.49924 0.49008 3.51722 9.06817 6.9336 14.8145 1.83328 3.08351 5.01818 7.46686 7.07812 9.74414 2.05981 2.27705 3.7461 4.32474 3.7461 4.54883 0 0.65861-9.91482-3.09343-15.3379-5.80274-6.92635-3.46014-13.4372-7.92671-18.9004-12.9785-4.52232-4.182-4.60241-4.3288-3.21093-5.46093 0.78473-0.63918 4.22167-3.18958 8.13672-4.43946l11.1777-3.5625 4.7793-1.5332 5.41211-2.49414c2.61595-1.20488 5.08398-1.48912 5.08398-1.78711 0-0.2983-0.6577-1.3849-1.4707-2.41992-1.69077-2.14854-3.16427-2.29657-8.08789-0.80274-4.12355 1.25021-23.9673 1.45516-34.4453 0.35157-10.2304-1.07754-26.3279-6.88797-29.2773-10.5684-6.45094-8.04919-6.44467-14.1342-0.0117-23.7676 2.87795-4.30941 3.02735-4.82028 3.02735-9.71875 0-3.12655-0.28557-5.08896-0.7168-4.94922-0.39239 0.1296-2.69809 2.61301-5.13281 5.50977-7.88977 9.38689-11.1138 18.1924-9.5 25.9668 2.89323 13.9364 18.2062 22.5966 45.3086 25.6406l7.13867 0.80273-3.4414 2.01953c-3.09202 1.81598-3.56195 1.92613-4.63477 0.96094-1.35221-1.2136-8.69531-2.7543-8.69531-1.82422 0 1.05584 7.81624 10.0566 13.4394 15.4824 13.0631 12.6041 32.055 21.609 50.416 23.9004 5.97889 0.74716 20.6745 0.38167 26.8066-0.66797 35.3523-6.04315 63.6844-32.3944 72.6855-67.5898 0.7856-3.07213 1.64522-7.70369 1.91016-10.291l0.47461-4.70703-2.06836 1.48437c-3.46237 2.46769-4.34069 3.92343-5.22852 8.75781-1.11919 6.09431-1.82342 8.33006-5.21874 16.4199-2.65036 6.31502-6.74629 13.244-10.7285 18.123l-1.68945 2.05469-4.95118-2.91992c-2.71728-1.60875-7.34635-3.9322-10.2891-5.16797-2.94277-1.23518-5.58075-2.46161-5.86328-2.72461-0.2824-0.26342-0.0485-2.22905 0.52344-4.37891 0.61109-2.29712 1.86651-6.44229 2.86914-10.2773 6.88548-2.95398 15.3192-6.92967 19.1094-9.0625 25.5836-14.3962 40.1191-29.7132 41.5977-43.8594 1.33471-12.77-8.00392-23.0079-25.957-28.4746-1.66745-0.50941-3.02734-0.77615-3.02735-0.58204 0 0.19426 1.14388 2.40226 2.54102 4.9004 2.20406 3.94129 3.04061 4.78042 6.36133 6.30078 2.10496 0.9631 5.29202 3.0835 7.06641 4.71875 8.33079 7.67916 6.90532 17.3232-4.31641 29.252l-5.37695 5.7168h-36.0391l-0.48633-6.95704c-0.65707-9.33829-2.34349-20.7085-4.07421-27.5488-0.78083-3.08638-1.32342-5.69124-1.20508-5.78907 0.11663-0.10758 2.14568-0.88079 4.5-1.74023 2.35422-0.85939 7.10737-3.16922 10.5586-5.12109 3.45127-1.95203 6.53093-3.38121 6.84766-3.18555 1.44937 0.89613 8.29658 11.7128 10.7637 17.0039 4.41368 9.46593 7.85742 21.988 7.85742 28.582v2.23828l5.81445-5.8125-0.81445-4.47656c-5.02689-27.7235-23.5923-52.9279-47.8125-64.9258-2.55039-1.26322-5.51476-2.76871-6.59375-3.3457-1.07902-0.57654-1.95703-0.82424-1.95703-0.55859 0 0.26561-0.40979 0.16977-0.90039-0.21875-1.02215-0.79264-5.80157-2.33281-13.0137-4.18555-3.59253-0.92203-11.226-1.4003-18.9024-1.42187zm-3.56445 5.49609v42.7305l-4.82812-0.0859c-5.83176-0.10758-11.0003-0.82031-20.7266-2.85937-8.6549-1.81386-8.43694-1.04032-3.29492-11.9316 6.79025-14.3812 15.9256-23.9692 25.6387-26.8926zm8.40625 0.53516c0.72966 0.0436 1.71832 0.47541 3.07617 0.9375 8.36759 2.85204 17.4417 12.9514 23.8633 26.5527 5.01313 10.6186 5.19476 9.89417-3.02734 11.6875-3.85045 0.83999-9.50685 1.86794-12.5762 2.27539-3.06924 0.40791-7.32158 0.74219-9.45117 0.74219h-3.88086v-21.043c0-17.6482-0.19204-21.2411 1.99609-21.1523zm-27.793 2.64062c0.0738 0.0163 0.1211 0.0494 0.1211 0.0977 0 0.21802-1.68615 2.21951-3.7461 4.46289-4.62366 5.03578-9.70962 13.4398-12.9785 21.4434-1.36193 3.33535-2.88438 6.14784-3.39258 6.24023-2.02372 0.36929-18.4023-7.70866-18.4023-9.07422 0-0.88534 7.41549-7.49796 12.3808-11.0312 2.40698-1.71454 7.05913-4.45046 10.3262-6.09375 5.18809-2.60976 13.4011-5.78422 15.375-6.0332 0.14105-0.022 0.24269-0.0278 0.3164-0.0117zm45.1738 0c0.0742-0.0163 0.18345-0.022 0.32813 0v0.0117c2.014 0.2656 10.3937 3.48528 15.4707 6.05664 7.03103 3.56119 15.5127 9.52315 19.8262 13.9394 3.07336 3.14679 3.1049 3.26264 1.71484 4.30469-0.7847 0.58726-4.31437 2.48875-7.8457 4.2207-8.12022 3.98296-10.167 4.50369-10.7891 2.72461-3.51013-10.0376-9.48886-20.5731-15.252-26.8789-1.95963-2.14425-3.5625-4.07919-3.5625-4.29493 0-0.0436 0.0348-0.0679 0.10937-0.084zm-88.1348 27.9141 4.96289 2.88282c4.82085 2.80197 8.76135 4.69305 13.8535 6.6289 1.3731 0.5225 2.5964 0.99906 2.70117 1.07031 0.10582 0.0648-0.44899 2.83306-1.22851 6.12891-1.78385 7.54284-3.35062 18.217-3.99024 27.209l-0.49804 6.95704h-34.9941l0.46289-5.88672c0.89504-11.256 5.01788-23.7708 11.2871-34.2871 2.0274-3.401 4.53546-7.20172 5.57031-8.44141zm28.4492 13.0625c0.5299 0 3.64213 0.62462 6.91016 1.38672 5.9862 1.39714 13.2802 2.49107 22.1602 3.29688l4.82812 0.42578v32.7051h-19.8613c-10.9208 0-19.9946-0.15444-20.166-0.31641-0.1727-0.17252-0.0716-4.01987 0.21875-8.5625 0.89136-13.9099 3.95754-28.9356 5.91015-28.9356zm74.377 0.40235c0.5152-0.018 0.84891 7e-3 0.92578 0.084 1.52365 1.59791 4.63273 21.2338 5.11914 32.3301l0.19531 4.64648-20.1426 0.19336-20.166 0.19532v-16.4316c0-9.0307 0.25448-16.4081 0.54883-16.4082 3.91927-3e-3 18.1601-1.88404 25.043-3.29687 3.64209-0.74719 6.93066-1.24772 8.47657-1.3125zm12.5156 43.1289 27.9766 0.0254-1.78906 1.48243c-8.2482 6.36753-18.2689 10.9692-27.7188 15.375 0.92636-0.69966 0.67783-5.304 1.04492-10.3027zm-31.9394 20.2031c-5.74862 0.31947-11.7391 3.38655-12.9414 9.17187-0.46337 2.22938-0.44256 2.22024-4.14648 3.38086l-2.54297 0.79102-3.16211 1.00781 0.13281 0.0742c-0.039-0.0198-0.13431-0.0672-0.13281-0.0625l-2.76172 1.14453c-1.55043 0.53305-2.99125 1.19864-3.19922 1.4707-0.48736 0.63701-0.14222 2.10233 0.59766 2.56641 0.58171 0.36494 0.99623 0.36056 4.59765 0l8.54883-1.07031 3.17578-0.40039c5.68154 6.523 14.2373 4.95083 19.5938 1.66601 5.0793-3.11548 9.60662-8.01803 7.50586-14.2305-2.10081-6.21225-9.61292-5.35493-15.2656-5.50976zm-17.4297 4.86523c-0.45541-8e-3 -6.48653 1.44136-13.4043 3.21094-12.9277 3.30571-13.4549 3.48683-13.1836 4.66992 0.26212 1.14449 0.83269 1.1163 7.13867-0.32812l6.13086-1.41016 4.20899 2.66406 3.80664-1.21679 1.14258-2.39649 0.9746-1.30078c4.01247-1.00406 4.3327-1.13257 4.51172-1.78906 0.28651-1.05157-0.35772-2.0841-1.32617-2.10352zm-3.11328 15.9453-3.50391 0.56055-3.06445 4.23242-5.95898 1.36133c-4.90079 1.12506-6.05143 1.47784-6.51953 1.9961-0.63548 0.70394-0.56492 1.61957 0.1582 1.98242 0.30727 0.15136 5.11908-0.69542 13.6094-2.40821 12.3469-2.49035 13.1468-2.69187 13.5859-3.32031 0.59905-0.85717 0.41153-1.6705-0.53516-2.26367-0.67455-0.42347-1.16194-0.3802-4.79101 0.45117l-1.22852-0.98633-1.10742-0.81445zm45.4648 5.48633c1.1531-0.23974 14.6741 6.01354 17.1621 7.94141 1.40163 1.08617 1.37077 1.14716-1.08203 3.71094-4.12525 4.31202-12.8248 10.5183-19.6309 14.0117-6.39436 3.28178-16.7363 7.35202-16.7363 6.58007 0-0.22483 1.67445-2.27157 3.73438-4.54882 4.57587-5.05825 9.88836-13.8542 13.0742-21.6504 1.3414-3.28246 2.85525-5.91454 3.47851-6.04493z"/>
	</g>
</svg>
