<svg id="svg1570" version="1.1" viewBox="0 0 1280 800" xmlns="http://www.w3.org/2000/svg">
	<g id="icon1">
		<path id="path2601" d="m619.838 741.718c-21.922-18.426-44.1485-86.3599-56.1176-171.52-8.42252-59.9258-8.55402-57.0375 2.30555-50.6296 8.01378 4.7286 9.39573 8.45699 16.0733 43.3632 11.0463 57.7428 28.2934 100.283 44.0794 108.722 25.1588 13.4498 46.7386-12.484 62.0176-74.5313 2.86124-11.6199 5.57592-21.5934 6.03217-22.1633 0.45657-0.56985 4.622 1.44568 9.25658 4.47903 7.91023 5.17732 8.29952 6.52999 6.35445 22.0804-1.13978 9.11084-6.25478 32.4898-11.3667 51.9533-21.5171 81.9234-49.1982 112.988-78.6347 88.2463zm-227.791-93.3392c-7.91245-7.90378-8.42344-9.96835-6.96344-28.1365 2.55608-31.8084 33.0747-90.4099 78.1985-150.155 30.4533-40.3214 37.1967-47.561 38.9917-41.8626 0.84296 2.67592 2.18353 6.9537 2.97908 9.50613 0.79556 2.55246-8.90018 19.934-21.546 38.6257-28.6673 42.3728-42.7724 71.5649-45.0012 93.1363-1.46328 14.162-0.72179 17.7006 4.88189 23.2981 3.63397 3.62996 10.3987 7.55056 15.0329 8.71234 11.8438 2.96936 44.9288-8.33406 73.4841-25.1056l23.5816-13.8504 2.2205 9.86456c1.92987 8.57348 0.90639 10.9612-7.81971 18.2432-15.2564 12.7315-70.44 44.9238-93.4395 54.5098-11.2385 4.68399-28.4497 9.24241-38.2473 10.1299-16.2622 1.47293-18.5575 0.87053-26.3528-6.91613zm433.994-1.20711c-30.9816-12.2158-77.2632-40.1114-120.543-72.6563-46.86-35.2366-47.8671-36.4092-33.301-38.7704 9.75869-1.58193 13.6974-0.0286 29.6135 11.6748 38.3293 28.1854 92.9482 55.2716 111.455 55.2716 17.7133 0 28.9733-16.5668 25.4439-37.4352-2.19057-12.9503-21.1769-54.0735-32.6936-70.8116-7.18044-10.4362-4.72671-14.1126 9.47416-14.1951 6.9198-0.04 11.2485 4.42778 26.5778 27.4337 35.3362 53.0309 56.9862 105.123 52.6631 126.715-4.5576 22.7624-30.9212 27.6651-68.6893 12.7736zm-240.485-96.192c0-13.2147 6.80128-17.7713 21.9164-14.6833l10.7123 2.18846-14.28 11.6886c-7.85404 6.42867-15.1954 11.6886-16.3143 11.6886-1.11889 0-2.03433-4.89703-2.03433-10.8822zm122.265-4.99224c-10.5045-7.68542-8.91891-18.6963 3.77089-26.184l9.16539-5.40828-0.31428 11.9554c-0.17269 6.57553-1.23345 15.0369-2.35818 18.803-2.03333 6.80982-2.08993 6.81442-10.2646 0.83379zm-100.18-23.507c-36.5976-10.2534-66.5365-35.5182-82.8493-69.9152-9.1049-19.198-9.96377-23.6645-9.78515-50.8827 0.15267-23.2732 1.76783-33.8342 7.34111-48.0054 9.98294-25.3835 35.9839-52.6844 62.6594-65.792 19.754-9.70649 22.7651-10.2631 55.5227-10.2631 31.9107 0 36.0387 0.70993 52.4616 9.02256 23.9325 12.1139 47.8739 36.5986 60.1445 61.5098 9.39272 19.069 10.0681 22.6557 10.0681 53.4731 0 29.808-0.85805 34.7784-8.78906 50.9109-27.4965 55.9317-90.1738 85.7992-146.774 69.942zm1.06897-56.0316c29.1346-12.1598 35.7584-49.6792 12.8165-72.5963-28.8654-28.8338-75.2739-9.14163-75.2739 31.9403 0 33.3256 31.2625 53.6755 62.4574 40.6557zm105.084-4.61175c28.0008-19.9165 23.8391-62.5121-7.56156-77.3963-31.2513-14.8134-68.163 12.4654-62.7364 46.3639 5.47224 34.1842 42.7386 50.6352 70.298 31.0327zm-42.7639-91.0356c10.4448-11.1853 11.9949-14.7921 11.9848-27.8871-0.0322-27.6649-17.6117-46.0856-44.0074-46.0856-26.2958 0-43.9855 18.4323-44.0073 45.8547-0.0107 12.1867 1.76748 16.8336 10.0351 26.2395 12.8086 14.5722 19.3403 17.2645 38.4829 15.862 13.4246-0.98353 17.1319-2.86781 27.512-13.9835zm-169.896 109.713-13.6766-1.88389 6.5023-8.22063c8.27693-10.4642 19.2937-8.9117 26.7969 3.77628 6.1394 10.3818 7.23677 10.0279-19.6226 6.32821zm255.666-6.37242c5.08542-9.82398 7.91774-11.1815 29.9851-14.3733 26.4932-3.83189 75.9618-17.3093 92.8824-25.3058 19.4841-9.20727 32.8861-23.4736 32.8861-35.007 0-17.6232-29.8292-35.4118-79.2468-47.2591-11.7524-2.8175-21.3681-6.18399-21.3681-7.48113 0-1.29718 3.18352-5.97564 7.0745-10.3966l7.07445-8.03822 36.1585 7.48586c97.1085 20.1044 142.1 49.3572 123.719 80.4399-11.006 18.6114-43.3616 34.1378-101.992 48.9429-28.3634 7.16228-108.066 20.0284-124.781 20.1432-6.90124 0.0471-6.98612-0.27714-2.39241-9.15056zm-341.033-6.58338c-82.6949-17.7373-125.768-40.3649-125.768-66.0695 0-6.8961 2.6125-14.841 6.50598-19.7854 15.7952-20.0582 87.2255-43.7497 166.426-55.1988 56.2732-8.13477 63.2287-8.88956 62.0821-6.73688-0.53437 1.00321-2.85688 5.56813-5.16108 10.1442-3.52812 7.00663-6.98687 8.66613-21.9086 10.5115-26.7462 3.30768-85.4693 18.7897-101.237 26.6903-29.2051 14.6342-38.5215 32.217-26.3034 49.6418 7.01257 10.0008 37.9686 24.7887 69.2622 33.0868l26.7502 7.09335-6.68689 8.4917c-7.68835 9.76342-8.2499 9.79063-43.9612 2.13096zm358.928-17.9802c-3.05431-5.8326-1.23474-25.9114 2.34808-25.9114 3.6542 0 25.2581 27.4244 23.2134 29.467-4.36983 4.36489-22.7528 1.80775-25.5616-3.55567zm-1.50358-81.2042c-1.56739-9.64906-0.10082-13.7093 9.92845-27.4818 48.0525-65.9865 67.0279-118.91 48.1216-134.213-14.4427-11.6897-40.7997-5.49563-85.8533 20.176l-24.1035 13.7341-2.06924-11.0184c-2.49995-13.3116 0.582-16.2134 47.1318-44.376 74.626-45.1487 116.958-52.0672 127.288-20.8028 10.4608 31.6625-33.7642 115.051-111.913 211.016-5.23323 6.42599-6.51543 5.36835-8.53056-7.0351zm-285.222-4.52685c-5.54175-6.98938-9.54874-13.2346-8.90439-13.8782 0.64434-0.64364 4.76778-2.07189 9.16317-3.17385 11.099-2.78257 18.5193 6.04421 16.4369 19.5524-0.86545 5.61414-2.70896 10.2075-4.09669 10.2075-1.38774 0-7.05731-5.71857-12.599-12.7079zm270.337-33.6185c-2.38366-4.75039-4.77324-9.46342-5.30964-10.4732-1.00049-1.88311 34.3871 0.17535 36.5723 2.12774 0.66658 0.5955-1.13474 4.66021-4.00289 9.03264-7.38516 11.2588-21.4433 10.9044-27.2598-0.68714zm-311.747-20.9986c-31.3925-43.1998-58.7889-98.1063-61.3579-122.971-2.41834-23.4059 0.54774-31.9809 13.1366-37.9774 14.7553-7.02856 38.5549-1.97879 75.5342 16.0269 45.6792 22.2416 147.063 93.7499 140.834 99.3342-1.33417 1.19611-6.0458 3.02282-10.4702 4.05942-6.28778 1.47318-12.091-1.13864-26.5757-11.9608-22.9829-17.1717-58.5882-37.6699-82.4796-47.4839-24.4579-10.0469-39.6661-9.88592-50.0938 0.53036-7.1903 7.18241-7.91596 9.87291-6.31188 23.4019 1.81788 15.3326 16.5744 49.8209 31.7236 74.1428l8.10188 13.0076-11.3831 1.32746c-10.322 1.20368-12.2478 0.1375-20.659-11.4372zm110.741-32.5405c0.0494-13.273 2.88901-25.7984 5.82616-25.6954 1.09531 0.0386 5.07935 2.51178 8.85334 5.49635 9.18141 7.26078 6.61685 19.5973-5.52037 26.5555l-9.20208 5.27546 0.043-11.6318zm153.402 5.88306c-7.22041-4.08589-9.02767-8.08278-12.1474-26.8614-5.67407-34.1576-18.0299-79.1956-26.8152-97.7463-12.8408-27.1138-30.9274-36.4149-47.8236-24.5933-9.93152 6.94871-23.9342 36.1461-32.3268 67.4055-3.92656 14.6251-7.48685 27.069-7.91167 27.6529-0.42482 0.584-4.93508-2.01246-10.0228-5.76985l-9.25041-6.8316 4.38916-24.0675c2.41401-13.2371 8.69439-38.9076 13.9564-57.0456 31.8999-109.958 77.457-113.193 110.583-7.85191 12.9281 41.112 29.8188 137.603 26.9683 154.063-1.05083 6.06663-1.61616 6.1636-9.59866 1.64621zm-37.109-15.203c-13.592-2.20185-13.2781-5.69235 1.60702-17.8762 7.95235-6.50917 15.0454-11.2488 15.7626-10.5326 0.71686 0.71625 1.7004 5.95696 2.18554 11.6461 1.02594 12.0278-6.8912 18.8142-19.5551 16.7628z" style="stroke-width:.993334"/>
	</g>
</svg>
