<svg id="svg6" version="1.1" viewBox="0 0 1280 800" xmlns="http://www.w3.org/2000/svg">
	<g id="tearran" transform="translate(-16.3802 1.22596)">
		<path id="path2004" d="m609.174 148.648c-2.86234 0.0133-5.65333 0.0825-8.36133 0.21289-49.5592 2.3855-71.9521 11.4846-101.814 41.373-31.1869 31.2142-37.5746 45.3159-43.334 95.6406-3.15894 27.6025-3.33177 45.2094-0.59765 61.3516 2.20449 13.0154 7.22005 33.307 8.79492 35.5859 0.52262 0.75625 2.4356 5.0875 4.25195 9.625 4.3996 10.9908 12.4379 24.7706 18.748 32.1426 2.823 3.29799 12.291 11.332 21.041 17.8535 29.7217 22.1519 35.3837 28.7 42.373 49.0039 3.52844 10.2499 3.77824 12.4533 3.6582 32.3125-0.11083 18.3405-0.65297 23.4217-3.88867 36.4375-6.16076 24.7821-6.60235 26.966-5.6289 27.9394 0.5126 0.51259 1.65559 1e-3 2.53906-1.13672 0.88348-1.13783 3.71657-3.80985 6.29492-5.9375 9.25869-7.64019 21.8268-26.3235 26.5234-39.4277 6.32964-17.6607 8.81432-38.9142 6.23437-53.3164-1.30854-7.30463 1.19089-8.84695 8.21094-5.0664 10.6045 5.71089 17.0947 15.2139 17.2051 25.1914l0.0703 6.37891 2.54688-8.25c4.53285-14.6871 2.34788-37.7272-4.51758-47.6504-1.38882-2.00736-2.52344-4.11671-2.52344-4.6875s-2.49543-4.34183-5.54492-8.38086c-3.0495-4.03904-5.28006-7.34375-4.95508-7.34375s4.88258 2.20657 10.127 4.9043c22.2471 11.444 34.007 30.0548 29.4414 46.5898-1.83912 6.66079-0.35623 5.19655 5.7832-5.71094 6.00091-10.6614 8.34186-21.4548 7.12305-32.8359-1.1063-10.3305-5.41638-17.5699-16.3887-27.5234-10.521-9.54415-10.7461-9.70323-21.1562-14.9277-9.05679-4.54526-12.3892-5.71917-39.4922-13.9258-14.6188-4.42649-26.5342-10.4729-38.2402-19.4062-10.0947-7.70369-24.3223-22.1713-24.3223-24.7305 0-0.99526-0.49601-1.80859-1.10156-1.80859-1.41687 0-6.41871-10.3079-10.2441-21.1113-5.54215-15.6516-3.47653-45.2554 4.42773-63.4512 9.54979-21.9841 15.1158-30.5545 28.4102-43.75 12.2726-12.1814 23.1311-19.5558 43.1328-29.293 9.96769-4.85245 13.0688-5.92831 25.9394-9.00195 7.993-1.9088 55.1716-0.75221 64.123 1.57226 49.5246 12.8603 89.8877 40.2798 103.598 70.375 12.548 27.5447 17.2766 60.2406 13.3984 92.627-1.02861 8.58992-0.79965 10.4862 2.0625 17.1875 3.2224 7.54469 7.91736 15.848 20.5898 36.4082 3.72899 6.04994 6.78215 12.3447 6.78515 13.9883 6e-3 3.9578-5.76676 10.6517-12.3984 14.3789-6.70721 3.76959-7.32572 5.43711-5.32813 14.3633 1.49152 6.66477 1.37031 7.59777-1.60156 12.4863-1.76638 2.90562-3.8269 5.7018-4.58008 6.21484-0.8924 0.60787-0.79764 2.18869 0.27149 4.53516 2.54972 5.59605 1.97333 9.47436-2.28126 15.3476-4.66082 6.434-6.53252 12.0636-7.6914 23.1465-0.9448 9.03599-5.42311 18.0339-11.2598 22.625-4.11669 3.23824-14.6748 3.80166-25.252 1.34765-14.184-3.29079-35.5299-6.70511-42.0312-6.72461-7.87199-0.0236-18.746 2.87169-27.2012 7.24219-5.9051 3.0524-24.4541 20.8827-35.2676 33.9024-3.40316 4.0974-8.80364 10.2792-12 13.7363-11.2895 12.2104-24.8908 44.2749-26.1426 61.6289-0.73034 10.1247 0.20113 12.0102 4.01172 8.10937 0.9993-1.02299 9.21268-9.84019 18.252-19.5937 22.7155-24.5105 44.8548-46.4956 49.1445-48.8027 23.7534-12.7751 25.4456-13.0972 54.7344-10.4023 15.1356 1.39263 28.0589 3.49357 38.8262 6.31054 8.87679 2.32238 19.6025 4.22266 23.8359 4.22266 6.63256 0 8.69439-0.69636 14.9004-5.0332 10.9725-7.6678 13.7501-13.5909 15.8828-33.8594 1.17934-11.2078 1.67745-12.5864 6.87891-19.1191 6.75134-8.47939 7.60379-11.3629 5.58203-18.8711-1.54294-5.73-0.90115-11.1172 1.32422-11.1172 0.64361 0 2.53153-2.20516 4.19726-4.90039 3.07729-4.9792 3.15688-8.56836 0.49415-22.3106-1.0515-5.42692 1.08115-8.22359 10.3105-13.5254 8.98609-5.16207 12.3594-8.58261 13.2676-13.4531 1.0018-5.3729-0.87147-9.52974-11.0977-24.6367-13.405-19.803-22.5687-34.2967-24.9258-39.4238-1.90004-4.1331-2.04222-7.53022-1.00195-24.0625 1.82621-29.0225 1.31453-50.6578-1.48047-62.5625-4.3001-18.3156-12.1148-41.7078-16.9961-50.875-11.4656-21.5327-34.1628-42.6156-61.5898-57.209-31.3237-16.6665-90.1742-29.3417-133.109-29.1426zm24.5352 59.7363v0.0234c-7.67621-0.018-15.398 0.4118-19.1211 1.31446-19.1871 4.65839-35.162 13.731-47.4219 26.9277-22.8393 24.5843-30.3549 58.5755-19.9961 90.457 1.99873 6.15136 2.52272 6.75429 6.54297 7.51758 2.69788 0.51187 2.68605 1.05205 0.0606-6.30078-2.47963-6.94123-4.20793-14.6089-4.70703-20.8848l-0.46289-5.88672h34.9453l0.83984 10.0352c0.951 11.3498 3.37383 25.0208 4.57227 25.7617 0.62536 0.3886 4.59519 0.0687 5.30273-0.42578 0.0799-0.0436-0.6509-3.94166-1.61719-8.63672-0.96632-4.69487-1.96246-12.6072-2.21289-17.5762l-0.45117-9.03711 19.5469-0.25391c11.1905-0.15136 20.152 0.017 20.9688 0.40039 0.78468 0.36491-0.0234 22.3555-0.0234 22.3555l5.72851-1.10742 0.23047-19.2656 0.21875-2.25h19.8867c10.9383 0 20.0072 0.23933 20.1543 0.53516 0.14663 0.29579 0.0615 3.73852-0.19531 7.66211-0.25721 3.92377-0.38229 7.26331-0.26758 7.4082l-1.13086 4.48828c-3.0306 1.53529-5.97744 3.12078-5.84961 3.45313l2.04297 5.30469c0.0691 0.17252 0.74046 0.0504 1.6543-0.23242l-3.94141 15.582s-5.86334 15.5267-10.4961 21.7832c-6.06395 8.18956-12.0794 13.0157-18.7442 15.0215l-3.21093 0.96094-0.90039-31.5625-5.76368 2.27344 0.25391 28.6445h-1.71484c-2.75961 0-9.76617-4.0675-13.877-8.06445-5.23443-5.08984-9.58548-11.3368-13.0273-18.6816l-2.90625-6.19141-2.61523 0.47461c-1.43512 0.26778-2.72919 0.62589-2.88282 0.77734-0.49924 0.49008 3.51722 9.06817 6.9336 14.8145 1.83328 3.08351 5.01818 7.46686 7.07812 9.74414 2.05981 2.27705 3.7461 4.32474 3.7461 4.54883 0 0.65861-9.91482-3.09343-15.3379-5.80274-6.92635-3.46014-13.4372-7.92671-18.9004-12.9785-4.52232-4.182-4.60241-4.3288-3.21093-5.46093 0.78473-0.63918 4.22167-3.18958 8.13672-4.43946l11.1777-3.5625 4.7793-1.5332 5.41211-2.49414c2.61595-1.20488 5.08398-1.48912 5.08398-1.78711 0-0.2983-0.6577-1.3849-1.4707-2.41992-1.69077-2.14854-3.16427-2.29657-8.08789-0.80274-4.12355 1.25021-23.9673 1.45516-34.4453 0.35157-10.2304-1.07754-26.3279-6.88797-29.2773-10.5684-6.45094-8.04919-6.44467-14.1342-0.0117-23.7676 2.87795-4.30941 3.02735-4.82028 3.02735-9.71875 0-3.12655-0.28557-5.08896-0.7168-4.94922-0.39239 0.1296-2.69809 2.61301-5.13281 5.50977-7.88977 9.38689-11.1138 18.1924-9.5 25.9668 2.89323 13.9364 18.2062 22.5966 45.3086 25.6406l7.13867 0.80273-3.4414 2.01953c-3.09202 1.81598-3.56195 1.92613-4.63477 0.96094-1.35221-1.2136-8.69531-2.7543-8.69531-1.82422 0 1.05584 7.81624 10.0566 13.4394 15.4824 13.0631 12.6041 32.055 21.609 50.416 23.9004 5.97889 0.74716 20.6745 0.38167 26.8066-0.66797 35.3523-6.04315 63.6844-32.3944 72.6855-67.5898 0.7856-3.07213 1.64522-7.70369 1.91016-10.291l0.47461-4.70703-2.06836 1.48437c-3.46237 2.46769-4.34069 3.92343-5.22852 8.75781-1.11919 6.09431-1.82342 8.33006-5.21874 16.4199-2.65036 6.31502-6.74629 13.244-10.7285 18.123l-1.68945 2.05469-4.95118-2.91992c-2.71728-1.60875-7.34635-3.9322-10.2891-5.16797-2.94277-1.23518-5.58075-2.46161-5.86328-2.72461-0.2824-0.26342-0.0485-2.22905 0.52344-4.37891 0.61109-2.29712 1.86651-6.44229 2.86914-10.2773 6.88548-2.95398 15.3192-6.92967 19.1094-9.0625 25.5836-14.3962 40.1191-29.7132 41.5977-43.8594 1.33471-12.77-8.00392-23.0079-25.957-28.4746-1.66745-0.50941-3.02734-0.77615-3.02735-0.58204 0 0.19426 1.14388 2.40226 2.54102 4.9004 2.20406 3.94129 3.04061 4.78042 6.36133 6.30078 2.10496 0.9631 5.29202 3.0835 7.06641 4.71875 8.33079 7.67916 6.90532 17.3232-4.31641 29.252l-5.37695 5.7168h-36.0391l-0.48633-6.95704c-0.65707-9.33829-2.34349-20.7085-4.07421-27.5488-0.78083-3.08638-1.32342-5.69124-1.20508-5.78907 0.11663-0.10758 2.14568-0.88079 4.5-1.74023 2.35422-0.85939 7.10737-3.16922 10.5586-5.12109 3.45127-1.95203 6.53093-3.38121 6.84766-3.18555 1.44937 0.89613 8.29658 11.7128 10.7637 17.0039 4.41368 9.46593 7.85742 21.988 7.85742 28.582v2.23828l5.81445-5.8125-0.81445-4.47656c-5.02689-27.7235-23.5923-52.9279-47.8125-64.9258-2.55039-1.26322-5.51476-2.76871-6.59375-3.3457-1.07902-0.57654-1.95703-0.82424-1.95703-0.55859 0 0.26561-0.40979 0.16977-0.90039-0.21875-1.02215-0.79264-5.80157-2.33281-13.0137-4.18555-3.59253-0.92203-11.226-1.4003-18.9024-1.42187zm-3.56445 5.49609v42.7305l-4.82812-0.0859c-5.83176-0.10758-11.0003-0.82031-20.7266-2.85937-8.6549-1.81386-8.43694-1.04032-3.29492-11.9316 6.79025-14.3812 15.9256-23.9692 25.6387-26.8926l3.21094-0.96094zm8.40625 0.53516c0.72966 0.0436 1.71832 0.47541 3.07617 0.9375 8.36759 2.85204 17.4417 12.9514 23.8633 26.5527 5.01313 10.6186 5.19476 9.89417-3.02734 11.6875-3.85045 0.83999-9.50685 1.86794-12.5762 2.27539-3.06924 0.40791-7.32158 0.74219-9.45117 0.74219h-3.88086v-21.043c0-17.6482-0.19204-21.2411 1.99609-21.1523zm-27.793 2.64062c0.0738 0.0163 0.1211 0.0494 0.1211 0.0977 0 0.21802-1.68615 2.21951-3.7461 4.46289-4.62366 5.03578-9.70962 13.4398-12.9785 21.4434-1.36193 3.33535-2.88438 6.14784-3.39258 6.24023-2.02372 0.36929-18.4023-7.70866-18.4023-9.07422 0-0.88534 7.41549-7.49796 12.3808-11.0312 2.40698-1.71454 7.05913-4.45046 10.3262-6.09375 5.18809-2.60976 13.4011-5.78422 15.375-6.0332 0.14105-0.022 0.24269-0.0278 0.3164-0.0117zm45.1738 0c0.0742-0.0163 0.18345-0.022 0.32813 0v0.0117c2.014 0.2656 10.3937 3.48528 15.4707 6.05664 7.03103 3.56119 15.5127 9.52315 19.8262 13.9394 3.07336 3.14679 3.1049 3.26264 1.71484 4.30469-0.7847 0.58726-4.31437 2.48875-7.8457 4.2207-8.12022 3.98296-10.167 4.50369-10.7891 2.72461-3.51013-10.0376-9.48886-20.5731-15.252-26.8789-1.95963-2.14425-3.5625-4.07919-3.5625-4.29493 0-0.0436 0.0348-0.0679 0.10937-0.084zm-88.1348 27.9141 4.96289 2.88282c4.82085 2.80197 8.76135 4.69305 13.8535 6.6289 1.3731 0.5225 2.5964 0.99906 2.70117 1.07031 0.10582 0.0648-0.44899 2.83306-1.22851 6.12891-1.78385 7.54284-3.35062 18.217-3.99024 27.209l-0.49804 6.95704h-34.9941l0.46289-5.88672c0.89504-11.256 5.01788-23.7708 11.2871-34.2871 2.0274-3.401 4.53546-7.20172 5.57031-8.44141l1.87305-2.26172zm28.4492 13.0625c0.5299 0 3.64213 0.62462 6.91016 1.38672 5.9862 1.39714 13.2802 2.49107 22.1602 3.29688l4.82812 0.42578v32.7051h-19.8613c-10.9208 0-19.9946-0.15444-20.166-0.31641-0.1727-0.17252-0.0716-4.01987 0.21875-8.5625 0.89136-13.9099 3.95754-28.9356 5.91015-28.9356zm74.377 0.40235c0.5152-0.018 0.84891 7e-3 0.92578 0.084 1.52365 1.59791 4.63273 21.2338 5.11914 32.3301l0.19531 4.64648-20.1426 0.19336-20.166 0.19532v-16.4316c0-9.0307 0.25448-16.4081 0.54883-16.4082 3.91927-3e-3 18.1601-1.88404 25.043-3.29687 3.64209-0.74719 6.93066-1.24772 8.47657-1.3125zm12.5156 43.1289 27.9766 0.0254-1.78906 1.48243c-8.2482 6.36753-18.2689 10.9692-27.7188 15.375 0.92636-0.69966 0.67783-5.304 1.04492-10.3027l0.48633-6.58008zm-31.9394 20.2031c-5.74862 0.31947-11.7391 3.38655-12.9414 9.17187-0.46337 2.22938-0.44256 2.22024-4.14648 3.38086l-2.54297 0.79102-3.16211 1.00781 0.13281 0.0742c-0.039-0.0198-0.13431-0.0672-0.13281-0.0625l-2.76172 1.14453c-1.55043 0.53305-2.99125 1.19864-3.19922 1.4707-0.48736 0.63701-0.14222 2.10233 0.59766 2.56641 0.58171 0.36494 0.99623 0.36056 4.59765 0l8.54883-1.07031 3.17578-0.40039c5.68154 6.523 14.2373 4.95083 19.5938 1.66601 5.0793-3.11548 9.60662-8.01803 7.50586-14.2305-2.10081-6.21225-9.61292-5.35493-15.2656-5.50976zm-17.4297 4.86523c-0.45541-8e-3 -6.48653 1.44136-13.4043 3.21094-12.9277 3.30571-13.4549 3.48683-13.1836 4.66992 0.26212 1.14449 0.83269 1.1163 7.13867-0.32812l6.13086-1.41016 4.20899 2.66406 3.80664-1.21679 1.14258-2.39649 0.9746-1.30078c4.01247-1.00406 4.3327-1.13257 4.51172-1.78906 0.28651-1.05157-0.35772-2.0841-1.32617-2.10352zm-3.11328 15.9453-3.50391 0.56055-3.06445 4.23242-5.95898 1.36133c-4.90079 1.12506-6.05143 1.47784-6.51953 1.9961-0.63548 0.70394-0.56492 1.61957 0.1582 1.98242 0.30727 0.15136 5.11908-0.69542 13.6094-2.40821 12.3469-2.49035 13.1468-2.69187 13.5859-3.32031 0.59905-0.85717 0.41153-1.6705-0.53516-2.26367-0.67455-0.42347-1.16194-0.3802-4.79101 0.45117l-1.22852-0.98633-1.10742-0.81445-0.64453-0.79102zm45.4648 5.48633c1.1531-0.23974 14.6741 6.01354 17.1621 7.94141 1.40163 1.08617 1.37077 1.14716-1.08203 3.71094-4.12525 4.31202-12.8248 10.5183-19.6309 14.0117-6.39436 3.28178-16.7363 7.35202-16.7363 6.58007 0-0.22483 1.67445-2.27157 3.73438-4.54882 4.57587-5.05825 9.88836-13.8542 13.0742-21.6504 1.3414-3.28246 2.85525-5.91454 3.47851-6.04493z"/>
	</g>
</svg>
