<svg version="1.1" id="svg1" viewBox="0 0 300 300" xmlns="http://www.w3.org/2000/svg" >
	
	<g transform="translate(100,100)" id="g111261">
		<path id="operations" d="m 43.0067,0.999999 c -0.201461,-2.6178e-4 -0.430954,0.0260999 -0.710192,0.0705587 -2.64482,0.421012 -3.66302,3.06479 -1.9598,5.08894 0.728674,0.86598 1.17085,1.07372 2.28448,1.07372 2.96096,0 4.1726,-3.164 2.03139,-5.30522 -0.689061,-0.689058 -1.04149,-0.927154 -1.64587,-0.928005 z m 17.2169,5.9106 c -0.499039,-0.00183 -1.0195,0.169516 -1.51549,0.516922 -0.987247,0.691493 -1.02632,2.34773 -0.07772,3.29634 0.908251,0.90825 2.02427,0.885857 3.032,-0.06084 0.992854,-0.932742 1.03602,-2.15397 0.109418,-3.08057 -0.44457,-0.44457 -0.982632,-0.669665 -1.54821,-0.671846 z m -12.7507,9.04895 c -0.484018,0 -1.0589,3.30102 -1.0589,6.07984 0,2.56461 0.755052,7.75883 1.35443,9.31686 0.241745,0.628414 0.369606,0.704986 0.518457,0.310359 0.108619,-0.287963 0.516872,-1.3966 0.907554,-2.46394 1.39845,-3.82058 1.41587,-3.81136 3.56016,1.98281 l 1.92197,5.19325 -2.47314,1.22814 c -4.79961,2.38316 -8.79244,5.57139 -12.0523,9.62364 -4.53621,5.63883 -6.70617,11.0819 -7.53602,18.9042 -0.225082,2.12166 -0.259433,2.18171 -1.2445,2.18171 -0.667629,0 -1.01288,0.178461 -1.01288,0.523568 0,0.395585 0.426952,0.523569 1.74557,0.523569 1.31862,0 1.74506,-0.127984 1.74506,-0.523569 0,-0.287963 -0.228286,-0.523568 -0.507207,-0.523568 -0.552658,0 -0.497615,-1.64777 0.192249,-5.75926 1.71501,-10.2212 8.73547,-19.3621 18.735,-24.394 2.29656,-1.15566 2.55953,-1.21819 2.76152,-0.658039 0.122793,0.340521 0.666582,1.78646 1.2082,3.2135 0.541619,1.42704 0.947717,2.62517 0.902952,2.66233 -0.04476,0.03717 -0.709237,0.388022 -1.47714,0.779727 -1.86816,0.95295 -4.07012,3.30852 -5.28733,5.65649 -0.899837,1.73578 -0.995252,2.25408 -0.995496,5.41004 -2.41e-4,3.11047 0.105423,3.70535 0.969932,5.46577 2.04081,4.15575 5.95194,6.77075 10.7255,7.17095 1.74675,0.146442 2.34139,0.306015 1.95264,0.523569 -0.777939,0.43536 -0.698799,0.976068 0.143165,0.976068 0.517674,0 0.940667,0.527862 1.60701,2.00684 l 0.903976,2.00736 -1.49043,2.87963 c -0.819938,1.5838 -1.58829,2.87963 -1.70722,2.87963 -0.118934,0 -0.730827,-1.57096 -1.36005,-3.49063 -1.0991,-3.35319 -1.75914,-4.29527 -2.75692,-3.9375 -0.730638,0.261978 -0.496304,1.70481 0.824723,5.07923 1.94128,4.9588 3.91848,10.4864 5.37732,15.0327 0.75113,2.34082 1.66875,4.497 2.11677,4.9739 0.434971,0.463003 0.995312,0.841595 1.24501,0.841595 0.667255,0 0.329317,-1.46603 -1.77574,-7.70935 l -1.83454,-5.44072 2.77941,-8.66548 1.26188,2.61784 c 1.12452,2.33263 1.37797,2.6293 2.32692,2.72215 0.720621,0.07051 1.27054,-0.122976 1.70109,-0.59873 0.616363,-0.681074 0.613366,-0.78768 -0.09663,-3.39962 -0.403127,-1.48301 -0.692098,-2.73718 -0.642192,-2.78708 0.04991,-0.04991 1.79941,1.04015 3.8874,2.42253 l 3.79638,2.51354 1.46231,4.0142 c 1.58603,4.35264 3.49329,8.3771 3.96971,8.3771 0.164094,0 0.390684,-0.569488 0.503628,-1.26546 0.157181,-0.968613 -0.08245,-1.97165 -1.02157,-4.27598 -0.674781,-1.65572 -2.47767,-6.46573 -4.00653,-10.6892 -3.50285,-9.67657 -3.62633,-9.94781 -4.51578,-9.94781 -1.22207,0 -1.18382,0.981872 0.177932,4.57765 0.723711,1.911 1.24668,3.54366 1.16218,3.62817 -0.0845,0.0845 -1.47937,-0.403201 -3.1,-1.08395 l -2.94661,-1.23785 -0.875341,-2.72113 -0.875342,-2.72061 1.79159,-1.75273 c 0.985286,-0.964118 2.24201,-2.67364 2.79322,-3.79894 0.889161,-1.81522 1.00237,-2.42006 1.00368,-5.36198 0.0013,-2.86605 -0.124997,-3.58562 -0.930562,-5.3042 -1.18894,-2.53644 -3.61806,-4.96607 -6.15449,-6.155 -1.75614,-0.823173 -2.43623,-0.935864 -5.82061,-0.964309 l -3.83166,-0.03221 -3.21913,-8.85823 c -3.2211,-8.86394 -3.42143,-9.89018 -1.75784,-8.99986 0.363286,0.194427 1.27485,0.908658 2.02576,1.58707 0.750916,0.678406 1.36516,1.12847 1.36516,1.00061 0,-0.429251 -1.13654,-2.44949 -2.56569,-4.56077 -1.40991,-2.08286 -5.91909,-6.80639 -6.49757,-6.80639 z m 27.7103,2.5524 c -0.835699,-0.0035 -1.53632,0.978055 -0.829325,1.82993 0.542729,0.653948 1.35044,0.534754 1.8601,-0.274568 0.292743,-0.464855 0.247164,-0.737593 -0.197362,-1.18212 -0.26141,-0.261411 -0.554847,-0.372069 -0.833414,-0.373247 z m -51.1768,2.34634 c -0.586099,-0.0099 -1.19194,0.201553 -1.67655,0.686161 -0.933805,0.933811 -0.880229,1.94367 0.158503,2.9824 0.964089,0.964092 1.30531,1.02909 2.39492,0.455568 0.98432,-0.518108 1.2742,-0.973848 1.2808,-2.01452 0.008,-1.26571 -1.03876,-2.09061 -2.15768,-2.10961 z m 51.0827,5.31903 c -0.7252,-0.01178 -1.48726,0.335694 -1.99764,1.11463 -0.599573,0.915072 -0.446379,1.93422 0.421311,2.80191 0.694629,0.694627 2.18249,0.668519 2.97882,-0.05215 0.374359,-0.338791 0.638612,-1.05685 0.638612,-1.73688 0,-1.32548 -0.981188,-2.11027 -2.0411,-2.12751 z m -44.4527,10.4259 c -0.758918,-0.01479 -1.1669,0.696087 -0.841085,1.54514 0.126146,0.32873 0.525025,0.503673 0.997032,0.436648 0.576876,-0.08192 0.787398,-0.345053 0.787398,-0.984759 0,-0.639705 -0.210522,-0.902329 -0.787398,-0.984247 -0.0536,-0.0076 -0.105352,-0.01181 -0.155947,-0.01277 z m -10.1227,3.14141 c -0.758918,-0.01479 -1.16638,0.696087 -0.840571,1.54514 0.126143,0.328731 0.525022,0.503673 0.997029,0.436649 0.576879,-0.08192 0.786888,-0.345053 0.786888,-0.98476 0,-0.639704 -0.210009,-0.902329 -0.786888,-0.984246 -0.0536,-0.0076 -0.105863,-0.01181 -0.156458,-0.01277 z m 60.3909,3.44052 c -1.02506,0 -2.37856,1.32549 -2.37856,2.32947 0,0.446473 0.314484,1.12591 0.698433,1.50986 1.42018,1.42018 3.83933,0.506584 3.83933,-1.45004 0,-1.1807 -1.09226,-2.38929 -2.15921,-2.38929 z m -50.5198,0.03835 c -0.442678,0.007 -0.883957,0.232211 -1.35749,0.67338 -0.952769,0.887638 -0.980288,2.21277 -0.06545,3.12761 0.91484,0.914842 2.23997,0.887323 3.12761,-0.06545 0.94116,-1.01021 0.89807,-1.87367 -0.145206,-2.91695 -0.554242,-0.554242 -1.05776,-0.826556 -1.55946,-0.81859 z m -9.80873,15.8093 c -0.168856,0.0041 -0.340278,0.0633 -0.497495,0.19378 -0.650066,0.539506 -0.690807,1.12174 -0.118109,1.69444 0.513477,0.513477 0.975649,0.392181 1.46589,-0.385007 0.434541,-0.688893 -0.187854,-1.5194 -0.850286,-1.50322 z m -6.1959,6.80282 c -0.713674,0.02225 -1.4301,0.310353 -2.014,0.894258 -1.47907,1.47906 -0.919899,4.28802 1.01288,5.08741 2.40605,0.995137 4.92896,-1.59011 3.91654,-4.01318 -0.544855,-1.30402 -1.72596,-2.00558 -2.91542,-1.9685 z m 73.1503,2.18171 c -0.758918,-0.01479 -1.16638,0.696087 -0.840571,1.54514 0.126143,0.328731 0.525022,0.503674 0.997029,0.436649 0.576879,-0.08192 0.786888,-0.345053 0.786888,-0.98476 0,-0.639704 -0.210009,-0.902329 -0.786888,-0.984246 -0.0536,-0.0076 -0.105863,-0.01181 -0.156458,-0.01278 z m -66.2478,0.29911 c -1.31862,0 -1.74506,0.127983 -1.74506,0.523568 0,0.395585 0.426441,0.523569 1.74506,0.523569 1.31862,0 1.74506,-0.127984 1.74506,-0.523569 0,-0.395585 -0.426442,-0.523568 -1.74506,-0.523568 z m 20.9888,0.01686 c -0.386833,2.62e-4 -0.739219,0.04044 -0.977602,0.131916 -0.279937,0.107426 -0.410923,0.353755 -0.291439,0.547088 0.331492,0.536365 3.75853,0.455138 3.58113,-0.08488 -0.109978,-0.334793 -1.32352,-0.594994 -2.31209,-0.594128 z m 15.8415,0.02353 c -0.691425,0.0095 -0.87841,0.142984 -0.87841,0.483175 0,0.456382 0.339419,0.540504 1.83249,0.454544 2.30744,-0.132847 2.24948,-0.768462 -0.08283,-0.909088 -0.354293,-0.02136 -0.640775,-0.0318 -0.871249,-0.02863 z m -9.69574,0.130379 c -0.883258,0.0091 -1.82646,0.1716 -1.92248,0.459657 -0.115154,0.345458 0.299997,0.429606 1.71592,0.348704 1.02744,-0.0587 1.82884,-0.26359 1.78085,-0.455565 -0.06242,-0.249679 -0.794942,-0.360859 -1.57428,-0.352796 z m -21.7245,0.0036 c -1.03938,0 -1.74289,0.167846 -1.83249,0.436649 -0.104941,0.314827 0.405279,0.436138 1.83249,0.436138 1.42721,0 1.93743,-0.121311 1.83249,-0.436138 -0.0896,-0.268803 -0.79311,-0.436649 -1.83249,-0.436649 z m 10.8206,0 c -1.03938,0 -1.74289,0.167846 -1.83249,0.436649 -0.104942,0.314827 0.405284,0.436138 1.83249,0.436138 1.42721,0 1.93743,-0.121311 1.83249,-0.436138 -0.0896,-0.268803 -0.79311,-0.436649 -1.83249,-0.436649 z m 16.0563,0 c -1.03938,0 -1.74289,0.167846 -1.83249,0.436649 -0.104939,0.314827 0.405281,0.436138 1.83249,0.436138 1.42721,0 1.93743,-0.121311 1.83249,-0.436138 -0.0896,-0.268803 -0.79311,-0.436649 -1.83249,-0.436649 z m -23.1654,15.8763 c -0.620128,0.004 -1.22532,0.250253 -1.584,0.762345 -0.744363,1.06272 -0.701266,1.8905 0.14163,2.7334 1.74443,1.74443 4.47481,-0.143795 3.41649,-2.36271 -0.354606,-0.743478 -1.17681,-1.13819 -1.97412,-1.13303 z m 19.3634,0.0542 c -0.08659,0.001 -0.17466,0.0052 -0.26434,0.0138 -1.98614,0.190681 -2.54863,2.72816 -0.855401,3.85876 1.30636,0.872278 3.35104,-0.242276 3.35104,-1.82687 0,-1.22427 -0.93246,-2.05957 -2.2313,-2.0457 z m -4.11953,10.4228 c -2.13572,0 -3.12007,2.04762 -1.67757,3.49012 1.83286,1.832862 4.75314,-0.473003 3.33673,-2.63472 -0.398462,-0.608133 -0.878054,-0.855401 -1.65916,-0.8554 z m 34.1854,1.09827 c -0.05164,-5.24e-4 -0.104602,0.0041 -0.159013,0.01482 -0.901801,0.177647 -1.35586,1.1831 -0.823702,1.82431 0.575622,0.69359 0.880147,0.694645 1.56968,0.0051 0.626366,-0.626367 0.187644,-1.83671 -0.58697,-1.84425 z" />
	</g>
	<g transform="translate(100,200)" id="g111264">
		<path id="transporter" d="m 50.0612,1 -6.71861,5.11196 c -18.6875,14.2179 -28.8197,21.9553 -29.722,22.6972 -1.64507,1.35265 -0.819789,1.52478 7.1674,1.4953 l 7.16788,-0.02637 v 39.5552 l -7.4184,0.166524 c -4.55066,0.102252 -7.4417,0.295556 -7.47847,0.500062 -0.03297,0.183355 8.25599,6.67004 18.4198,14.4149 10.1638,7.74484 18.5202,14.0833 18.5697,14.0853 0.04951,0.002 3.80014,-2.823 8.33454,-6.27764 4.53439,-3.45464 12.8196,-9.76486 18.412,-14.0227 5.59236,-4.25788 10.2164,-7.95728 10.2757,-8.22075 0.09124,-0.405498 -1.04748,-0.479064 -7.41987,-0.479064 h -7.52828 l 0.1719,-39.7218 7.25676,0.03663 c 6.56404,0.03325 7.27784,-0.01775 7.47603,-0.534247 0.14175,-0.369386 -0.0072,-0.721709 -0.422418,-0.998171 -0.353009,-0.235045 -2.46721,-1.82092 -4.69785,-3.52436 -9.08395,-6.93703 -17.344,-13.2328 -24.3961,-18.5941 z m 0.0093,1.65792 c 0.212759,0 4.77491,3.34909 10.1385,7.44185 13.8543,10.5718 18.3448,13.9909 21.6863,16.5138 l 2.93298,2.21463 -6.85046,0.08985 -6.84998,0.09034 v 41.9916 h 6.85388 c 3.76963,0 6.7745,0.128429 6.67759,0.285193 -0.09688,0.156765 -7.8364,6.12001 -17.1989,13.2516 -9.36252,7.13164 -17.1416,13.0079 -17.2868,13.0583 -0.145253,0.05034 -2.58385,-1.67505 -5.41913,-3.83398 -9.05872,-6.89781 -18.5548,-14.1532 -23.4136,-17.8894 -2.59605,-1.9963 -4.98252,-3.79532 -5.3034,-3.99757 -0.320875,-0.202242 -0.58308,-0.478392 -0.58308,-0.613843 0,-0.135455 3.03788,-0.286836 6.75084,-0.33647 l 6.75084,-0.09034 v -41.6722 l -13.6687,-0.333049 3.94922,-3.00037 c 2.17207,-1.6502 8.24783,-6.28075 13.5017,-10.2899 15.2372,-11.6272 16.9232,-12.88 17.3322,-12.88 z m -0.07862,11.9829 c -1.23335,-0.04395 -2.43213,0.366611 -2.74888,1.19204 -0.112747,0.293834 -0.02485,2.13538 0.195336,4.09231 0.46159,4.10216 0.535207,3.96109 -2.9994,5.74534 -2.25534,1.13849 -2.58111,1.50943 -3.12295,3.55562 -0.233361,0.881283 -0.532296,1.9398 -0.664145,2.35235 l -0.239775,0.750093 h 9.52413 c 7.40292,0 9.52093,-0.09312 9.51193,-0.417044 -0.0065,-0.229196 -0.281152,-1.39152 -0.610426,-2.58333 l -0.598707,-2.16726 -2.89001,-1.61983 c -2.84358,-1.59406 -2.89001,-1.64058 -2.89001,-2.89294 0,-0.700049 0.16103,-2.43103 0.357954,-3.84667 0.329241,-2.36719 0.306334,-2.62519 -0.283237,-3.21476 C 51.931192,14.984236 50.95114,14.675 49.99187,14.640821 Z m 0.143573,18.3543 c -5.30139,0 -9.71434,0.122768 -9.80689,0.272494 -0.09251,0.149731 -0.467124,1.34972 -0.832134,2.66684 l -0.663658,2.39483 h 22.366 l -0.216824,-0.917107 c -0.119283,-0.50423 -0.440058,-1.70422 -0.712491,-2.66684 l -0.49518,-1.75022 z m -11.5381,6.3255 -0.380905,1.42108 c -0.209591,0.781597 -0.482317,1.68377 -0.606033,2.00464 -0.201892,0.523718 0.03061,0.58357 2.27226,0.58357 2.25658,0 2.5145,-0.06744 2.68002,-0.700282 0.196257,-0.750493 0.895132,-0.578977 0.895132,0.219753 0,0.40216 1.07908,0.480529 6.62826,0.480529 6.58548,0 6.63038,-0.0049 6.85291,-0.750093 l 0.223661,-0.750093 0.366255,0.750093 c 0.326473,0.669216 0.611729,0.750093 2.64828,0.750093 1.25549,0 2.27984,-0.112514 2.27616,-0.250031 -0.0035,-0.137517 -0.200445,-1.00045 -0.438042,-1.91723 l -0.432181,-1.66671 -11.4926,-0.08741 z m 1.39666,5.00941 c -2.43523,0 -2.50263,0.08907 -1.99537,2.62533 0.198693,0.993451 0.282906,1.04163 1.81126,1.04163 1.73158,0 1.74015,-0.0097 2.16678,-2.4168 l 0.221707,-1.25016 z m 10.1507,0 c -3.47293,0 -6.37318,0.112514 -6.44465,0.250031 -0.07134,0.137517 -0.06495,0.962295 0.01415,1.83324 l 0.143573,1.58369 h 12.6012 v -3.66696 z m 9.75805,0 c -1.99805,0.0044 -1.94377,0.111279 -1.5627,2.4168 0.205361,1.24235 0.216522,1.25016 1.80736,1.25016 1.72938,0 1.73876,-0.01008 2.16531,-2.4168 l 0.22122,-1.25016 h -2.20391 c -0.151959,0 -0.294097,-2.5e-4 -0.427301,0 z m -3.4433,4.98597 -6.41779,0.09083 -6.4173,0.09034 -0.101575,1.5837 -0.101575,1.5832 h 13.4494 l -0.201198,-0.750093 c -0.110579,-0.412551 -0.202265,-1.16585 -0.20559,-1.67404 z m -18.0325,0.01465 0.207546,1.25016 c 0.114279,0.687585 0.266293,1.43752 0.337932,1.66671 0.07164,0.229194 0.510119,0.416554 0.974244,0.416554 0.464158,0 0.844435,-0.18736 0.847761,-0.416554 0.002,-0.229196 0.09634,-0.979127 0.209988,-1.66671 l 0.207056,-1.25016 h -1.39226 z m 21.8855,0 c -0.630908,0 -1.20585,0.112514 -1.27799,0.250031 -0.07211,0.137517 0.0027,0.887448 0.166523,1.66671 0.246599,1.17335 0.430512,1.41668 1.06996,1.41668 0.598107,0 0.819202,-0.234659 0.980589,-1.04163 0.407951,-2.03969 0.304308,-2.29179 -0.939082,-2.29179 z m -10.1873,5.00062 c -5.53352,0 -6.66733,0.08033 -6.66733,0.472716 0,0.260037 -0.09135,0.710093 -0.202663,1.00012 -0.18049,0.470341 0.53991,0.527408 6.66734,0.527408 h 6.87 v -2.00025 z m -3.96485,3.66696 c -3.01604,0 -3.03602,0.0056 -3.03602,0.833599 0,0.823635 0.0335,0.833111 2.83385,0.833111 1.55853,0 2.83336,-0.137344 2.83336,-0.3057 0,-0.168361 0.09135,-0.54357 0.202662,-0.833601 0.17539,-0.457067 -0.20236,-0.527409 -2.83385,-0.527409 z m 7.96535,0 c -2.6872,0 -3.00037,0.06401 -3.00037,0.611404 0,0.336154 0.09995,0.710876 0.222198,0.833111 0.122215,0.122238 1.47238,0.222195 3.00037,0.222195 2.74107,0 2.77818,-0.01078 2.77818,-0.833111 0,-0.827268 -0.02223,-0.833599 -3.00037,-0.833599 z m 0.340865,4.0005 c -2.57425,0 -2.58149,0.0026 -2.42267,0.833598 0.153619,0.803533 0.251756,0.833112 2.74106,0.833112 2.57425,0 2.58148,-0.0023 2.42267,-0.833112 -0.153619,-0.803532 -0.251757,-0.833598 -2.74106,-0.833598 z m -8.92543,5e-4 c -2.52055,2.3e-4 -2.58477,0.02025 -2.63168,0.833111 -0.04747,0.822365 -0.01373,0.833111 2.58382,0.833111 2.58492,0 2.63168,-0.0145 2.63168,-0.833111 0,-0.817329 -0.0501,-0.833346 -2.58382,-0.833111 z m -2.75034,4.33355 v 2.00025 h 4.66757 v -2.00025 h -2.33379 z m 10.9017,0.04346 c -1.38943,0.0193 -1.45691,0.320502 -1.03138,1.42938 0.157685,0.410959 0.714197,0.527411 2.52229,0.527411 h 2.32011 l -0.105483,-0.917107 c -0.103045,-0.895591 -0.161195,-0.918602 -2.52229,-1.01429 -0.471631,-0.0191 -0.862615,-0.02985 -1.18325,-0.02539 z m 1.59981,4.62362 c -1.94468,0 -2.16678,0.06822 -2.16678,0.666585 0,0.598365 0.2221,0.667076 2.16678,0.667076 1.94467,0 2.16726,-0.06871 2.16726,-0.667076 0,-0.598362 -0.222591,-0.666585 -2.16726,-0.666585 z m -11.5551,0.03174 c -0.856649,0.0044 -0.946408,0.150911 -0.946408,0.634841 0,0.645243 0.159218,0.691359 2.08376,0.599685 1.58573,-0.07554 2.08376,-0.219112 2.08376,-0.599685 0,-0.380572 -0.498027,-0.523658 -2.08376,-0.599192 -0.481133,-0.02293 -0.851799,-0.03713 -1.13735,-0.03565 z m 0.887316,5.30241 c -1.40757,0 -1.83372,0.116175 -1.83372,0.500063 0,0.383888 0.426151,0.500062 1.83372,0.500062 1.40758,0 1.83372,-0.116174 1.83372,-0.500062 0,-0.383888 -0.42615,-0.500063 -1.83372,-0.500063 z m 10.8451,0 c -1.63173,0 -1.95546,0.08999 -1.79807,0.500063 0.137752,0.358962 0.6994,0.500062 1.98999,0.500062 1.37587,0 1.79808,-0.117377 1.79808,-0.500062 0,-0.388644 -0.443536,-0.500063 -1.99,-0.500063 z m -10.8451,4.33355 c -1.55752,0 -1.92241,0.387933 -0.916617,0.973756 0.78683,0.458285 1.53339,0.443418 2.01685,-0.04005 0.70492,-0.704908 0.435457,-0.933711 -1.10023,-0.933711 z m 11.0531,0 c -1.1166,0 -1.55195,0.132894 -1.55195,0.472716 0,0.259752 0.187361,0.547736 0.416557,0.640217 0.847905,0.34213 1.49605,0.203541 2.08375,-0.445858 0.595174,-0.657669 0.582363,-0.667075 -0.94836,-0.667075 z" />
	</g>
	<g transform="translate(197.92967,98.99994)" id="g111267">
		<path id="medical" d="m 50.2361,1.00024 c -0.21728,10e-4 -0.43928,0.008 -0.66601,0.0199 -2.1762,0.11578 -3.1957,0.40681 -4.54023,1.29658 -5.12602,3.39224 -5.38414,10.8833 -0.50992,14.8004 2.52852,2.03198 2.15647,2.92275 -1.22072,2.92275 -1.92767,0 -2.59752,0.60619 -2.59752,2.35065 0,1.59138 3.6915,26.9596 4.06449,27.9316 0.14286,0.37226 2.20036,1.43761 4.57194,2.36743 4.98885,1.95595 4.71502,1.89294 5.28397,1.20579 0.41863,-0.50557 4.77491,-29.0281 4.85302,-31.7747 0.0444,-1.56184 -0.6141,-2.06579 -2.71256,-2.07454 -3.35786,-0.014 -3.72173,-0.90212 -1.19958,-2.92897 2.41045,-1.93709 3.39351,-4.08468 3.39351,-7.41323 0,-2.37661 -0.17809,-2.99122 -1.37991,-4.76845 C 55.71365,2.18063 53.49536,0.98052 50.2361,1.0003 Z m -32.021,4.18078 c -12.2177,0 -14.393,0.0948 -15.2014,0.66105 -0.51893,0.36347 -0.94337,0.90265 -0.94337,1.19833 0,0.29567 0.8768,1.90868 1.94892,3.58442 l 1.94954,3.04712 h 29.0727 L 34.55022,10.00606 C 34.18834,7.30795 33.84926,6.18705 33.26607,5.7606 32.63387,5.29832 29.59131,5.18102 18.21507,5.18102 Z m 63.9288,0 c -11.6097,0 -14.6941,0.11679 -15.3271,0.57958 -0.58321,0.42644 -0.92228,1.54741 -1.28415,4.24546 -0.26954,2.01618 -0.39346,3.7637 -0.27361,3.88354 0.11979,0.11982 6.63121,0.16777 14.4695,0.10634 L 93.97974,13.884 95.97343,10.91212 C 98.14101,7.68136 98.36195,6.86498 97.34526,5.84829 96.76476,5.2678 94.79109,5.18102 82.14386,5.18102 Z m -61.024,10.1886 c -11.0882,0 -13.9408,0.11096 -13.6934,0.53107 0.17181,0.29186 1.23976,1.91526 2.37303,3.60805 l 2.06023,3.07823 h 26.7196 v -1.29534 c 0,-0.92364 -0.41417,-1.68505 -1.44335,-2.6535 -0.79377,-0.74693 -1.571,-1.78798 -1.72691,-2.31333 l -0.28295,-0.95518 z m 43.837,0 -0.28357,0.95518 c -0.15593,0.52535 -0.93252,1.5664 -1.72629,2.31333 -1.02918,0.96845 -1.44335,1.72986 -1.44335,2.6535 v 1.29534 h 26.9596 l 1.65478,-2.65349 c 0.91001,-1.45931 1.93402,-3.08333 2.27601,-3.60868 l 0.62187,-0.95518 h -14.0292 z m -52.3217,8.49092 0.76676,1.31089 c 0.42181,0.72114 1.14925,1.51984 1.61622,1.7748 0.46698,0.25495 6.10277,2.03712 12.5237,3.96002 6.42093,1.9229 11.9128,3.51195 12.2047,3.53156 0.78602,0.0528 0.66562,-1.96985 -0.5491,-9.19798 l -0.23196,-1.37929 h -13.1655 z m 56.689,0.0696 c -4.69434,-0.0141 -8.05053,0.0192 -8.12153,0.0902 -0.24423,0.24421 -1.38053,7.87408 -1.38986,9.33168 -0.009,1.46931 -1.38122,1.74467 13.9279,-2.79527 11.3692,-3.37157 11.6212,-3.47021 12.635,-4.96185 l 1.03478,-1.52232 -13.0181,-0.11256 c -1.78996,-0.0155 -3.50341,-0.0252 -5.06819,-0.0298 z m -10.211,17.6143 c -0.45528,-0.007 -0.60984,0.20031 -0.75183,0.72944 -0.58504,2.17996 -0.27819,3.43266 1.02234,4.17271 2.26947,1.29138 1.6085,3.64186 -1.3824,4.91645 -0.78121,0.33292 -1.16922,0.81672 -1.17346,1.462 -0.003,0.53035 -0.12099,1.39434 -0.2618,1.91969 -0.23536,0.8782 -0.11378,0.95518 1.50553,0.95518 4.90606,0 8.67466,-3.94364 7.86968,-8.23471 -0.57264,-3.05242 -2.61382,-5.02391 -5.99414,-5.78955 -0.3582,-0.0811 -0.62697,-0.12817 -0.83392,-0.13121 z m -18.6528,0.19899 c -1.06519,0.0289 -2.64653,0.45979 -3.51663,1.10941 -3.89555,2.90844 -4.02905,8.84963 -0.25559,11.3527 0.71099,0.47163 5.58242,2.46393 10.8254,4.42767 5.24296,1.96374 9.86706,3.85607 10.2757,4.20504 1.16401,0.99409 0.9495,2.89899 -0.42473,3.77346 -1.59286,1.0136 -1.79016,1.36502 -1.79781,3.20322 -0.008,1.84646 0.65769,2.03576 3.29153,0.93528 3.13104,-1.30824 4.76782,-3.63324 4.76782,-6.77209 0,-2.31477 -0.80782,-4.05503 -2.35313,-5.06756 -0.61781,-0.40482 -5.64236,-2.43562 -11.1656,-4.51286 -5.52318,-2.07724 -10.2811,-4.10319 -10.5729,-4.50229 -0.2918,-0.3991 -0.53045,-1.07137 -0.53045,-1.49372 0,-0.9563 1.46344,-2.46631 2.39044,-2.46631 0.5638,0 0.64337,-0.29557 0.42909,-1.59197 -0.14472,-0.87558 -0.26548,-1.85578 -0.26803,-2.17838 -0.003,-0.31154 -0.45598,-0.43898 -1.0951,-0.42163 z m 0.52672,17.3382 c -0.48711,0.0294 -1.15877,0.20236 -2.11185,0.46702 -2.07219,0.57544 -3.26379,2.4406 -3.26602,5.10985 -0.003,3.41762 1.03924,4.4127 8.28259,7.90886 13.6081,6.56822 13.579,6.55114 13.579,7.96171 0,0.96445 -0.2798,1.4014 -1.16786,1.82704 -0.6421,0.30774 -1.16922,0.88331 -1.17346,1.27917 -0.003,0.39586 -0.12036,1.14995 -0.26118,1.6753 -0.22576,0.84252 -0.0989,0.95518 1.08018,0.95518 4.37638,0 7.55571,-4.28321 5.84365,-7.87341 -0.99101,-2.07816 -2.4214,-2.96026 -12.0977,-7.458 -7.04833,-3.2762 -8.89265,-4.3079 -9.34909,-5.23112 -0.49658,-1.00441 -0.47447,-1.25357 0.17225,-1.9682 0.40729,-0.45004 1.08804,-0.81837 1.513,-0.81837 0.63758,0 0.73089,-0.24138 0.53418,-1.37991 -0.3262,-1.88793 -0.50602,-2.51969 -1.57767,-2.45512 z m 4.70315,0.86626 c -0.56631,-0.005 -0.366,6.28437 0.21206,6.65829 0.29186,0.18878 1.86791,0.94707 3.50233,1.68525 4.56033,2.05963 4.70924,2.01086 5.01657,-1.65478 0.14167,-1.69004 0.12143,-3.20412 -0.0448,-3.36428 -0.3307,-0.31871 -8.17127,-3.31956 -8.68619,-3.32448 z m -2.16097,14.4676 c -0.18883,0.009 -0.4405,0.0592 -0.77547,0.12624 -1.80713,0.36143 -4.0795,2.15542 -4.89468,3.86488 -1.22826,2.57569 0.21037,6.03233 3.01915,7.25528 1.32337,0.5762 3.3213,0.78486 3.71811,0.38804 0.11862,-0.11859 0.10324,-0.88994 -0.0348,-1.71385 -0.17219,-1.02758 -0.58474,-1.66284 -1.31275,-2.02292 -1.51123,-0.74747 -1.62619,-2.50123 -0.23569,-3.59499 0.85797,-0.67488 1.08515,-1.22848 1.08515,-2.64914 0,-1.34276 -0.003,-1.68126 -0.569,-1.65354 z m 2.80647,1.85378 c -0.0185,0.002 -0.0317,0.007 -0.0392,0.0149 -0.40044,0.40044 0.71899,20.974 1.189,21.8523 0.55671,1.04021 2.62041,1.17341 3.41154,0.22014 0.31393,-0.37826 0.85679,-3.93336 1.31276,-8.59664 1.14258,-11.6854 1.38704,-10.4667 -2.44579,-12.2134 -1.67534,-0.76348 -3.1515,-1.31077 -3.42833,-1.27731 z" />
	</g>
	<g transform="translate(200)" id="g111496">
		<path d="m 47.180416,97.840544 c -3.06572,-2.579635 -6.174024,-12.090384 -7.847862,-24.012803 -1.177857,-8.389617 -1.196249,-7.985265 0.322424,-7.088158 1.120696,0.662006 1.313961,1.183981 2.247799,6.070849 1.544792,8.084012 3.95674,14.039625 6.164348,15.2211 3.518385,1.882985 6.53624,-1.747766 8.672959,-10.4344 0.400134,-1.626788 0.779778,-3.023079 0.843581,-3.10286 0.06385,-0.07978 0.646371,0.202394 1.2945,0.627063 1.106219,0.724826 1.160656,0.9142 0.888652,3.091261 -0.159397,1.275525 -0.874712,4.548582 -1.589592,7.273469 -3.0091,11.469339 -6.880208,15.818365 -10.996809,12.354479 z M 15.324629,84.773055 c -1.106529,-1.106526 -1.177986,-1.395569 -0.973815,-3.93911 0.35746,-4.453179 4.625391,-12.657356 10.935809,-21.021722 4.258803,-5.644995 5.201826,-6.658552 5.452862,-5.860771 0.117887,0.374631 0.305361,0.973521 0.416613,1.330865 0.111255,0.357345 -1.244661,2.790768 -3.01314,5.407603 -4.009026,5.932198 -5.981573,10.019149 -6.29326,13.039118 -0.204632,1.982685 -0.100936,2.478092 0.682717,3.261745 0.5082,0.508196 1.45423,1.057077 2.1023,1.219729 1.656317,0.415709 6.283139,-1.16677 10.276484,-3.514793 l 3.297813,-1.939061 0.310529,1.381045 c 0.269886,1.200292 0.126754,1.534571 -1.093558,2.554047 -2.133554,1.782406 -9.850796,6.289339 -13.067242,7.631377 -1.571659,0.655761 -3.978601,1.293944 -5.348763,1.418189 -2.274208,0.206212 -2.595211,0.121877 -3.685349,-0.968261 z M 76.017253,84.604058 C 71.684586,82.893852 65.212252,78.988463 59.159666,74.432204 52.60646,69.499071 52.465607,69.334899 54.502627,69.00434 c 1.364724,-0.221468 1.915544,-0.004 4.14135,1.634472 5.36022,3.945962 12.998529,7.738042 15.586564,7.738042 2.477142,0 4.051825,-2.319349 3.558251,-5.240935 -0.306344,-1.813045 -2.961522,-7.570301 -4.572088,-9.913638 -1.004161,-1.461073 -0.661014,-1.975756 1.324929,-1.987325 0.967711,-0.0056 1.573057,0.619893 3.716814,3.840719 4.941661,7.42434 7.969317,14.717316 7.364762,17.740078 -0.637355,3.186743 -4.324224,3.873117 -9.605956,1.788305 z M 42.38624,71.137135 c 0,-1.850057 0.951135,-2.487989 3.064928,-2.055672 l 1.498078,0.306386 -1.997007,1.636398 c -1.098357,0.900016 -2.125032,1.636398 -2.281503,1.636398 -0.156475,0 -0.284496,-0.685582 -0.284496,-1.52351 z m 17.09837,-0.698913 c -1.469021,-1.075964 -1.247276,-2.61748 0.527343,-3.665763 l 1.281751,-0.757158 -0.04397,1.673762 c -0.02417,0.920575 -0.172495,2.105169 -0.329781,2.632433 -0.284357,0.953372 -0.292272,0.954018 -1.435472,0.116726 z M 45.47486,67.147246 c -5.118061,-1.435476 -9.304912,-4.972552 -11.586247,-9.788144 -1.273286,-2.687724 -1.393405,-3.313036 -1.368418,-7.123587 0.02137,-3.258249 0.247227,-4.736804 1.026626,-6.720758 1.39608,-3.553697 5.032232,-7.37583 8.762705,-9.210891 2.762526,-1.358914 3.183617,-1.436835 7.764668,-1.436835 4.462598,0 5.03989,0.09939 7.336576,1.263165 3.346885,1.695947 6.695,5.123813 8.411007,8.611382 1.313542,2.669665 1.407991,3.171797 1.407991,7.48624 0,4.173132 -0.119997,4.868994 -1.229118,7.127538 -3.845293,7.830453 -12.610481,12.011912 -20.52579,9.79189 z m 0.149489,-7.844426 c 4.074379,-1.702384 5.000705,-6.955095 1.792345,-10.163455 -4.036731,-4.036731 -10.526807,-1.279832 -10.526807,4.471647 0,4.665591 4.371963,7.514582 8.734462,5.691808 z m 14.695577,-0.645646 c 3.915824,-2.788318 3.333825,-8.751714 -1.057457,-10.835533 -4.370394,-2.073876 -9.532368,1.745157 -8.773482,6.490951 0.765277,4.78579 5.976851,7.088936 9.830939,4.344582 z M 54.33954,45.912204 c 1.460667,-1.565937 1.677442,-2.070891 1.676034,-3.904198 -0.0044,-3.873091 -2.462939,-6.45199 -6.15429,-6.45199 -3.677381,0 -6.151229,2.580529 -6.154273,6.419665 -0.0013,1.706143 0.247177,2.356709 1.403368,3.673533 1.791237,2.040113 2.704675,2.417026 5.381701,2.220681 1.877392,-0.137694 2.395845,-0.401495 3.84746,-1.957691 z M 30.580181,61.272112 28.667558,61.00837 29.576884,59.857482 c 1.157496,-1.464991 2.698162,-1.247638 3.747453,0.528679 0.858576,1.453455 1.012043,1.403909 -2.744156,0.885951 z m 35.754076,-0.892141 c 0.711183,-1.375356 1.107274,-1.565412 4.193324,-2.012259 3.704981,-0.536462 10.622959,-2.423313 12.989338,-3.542808 2.724785,-1.289016 4.598998,-3.28631 4.598998,-4.900989 0,-2.467249 -4.171512,-4.957665 -11.08241,-6.616284 -1.643544,-0.394448 -2.98826,-0.865758 -2.98826,-1.047359 0,-0.181601 0.445204,-0.836589 0.989344,-1.455533 l 0.989344,-1.125352 5.056649,1.048025 c 13.580262,2.814618 19.872226,6.91002 17.301689,11.26157 -1.539155,2.605599 -6.063975,4.779304 -14.263262,6.852022 -3.966521,1.002717 -15.112602,2.803985 -17.450181,2.820052 -0.965115,0.0066 -0.976987,-0.03882 -0.334573,-1.281085 z M 18.641985,59.458299 C 7.0773387,56.975072 1.0536487,53.807199 1.0536487,50.208556 c 0,-0.965458 0.36535,-2.077751 0.90984,-2.769962 2.208902,-2.808154 12.1982253,-6.124969 23.2741223,-7.727845 7.869618,-1.13887 8.842321,-1.244542 8.681968,-0.943165 -0.07473,0.140451 -0.399523,0.779537 -0.721759,1.420194 -0.493396,0.980931 -0.977089,1.213255 -3.063853,1.471609 -3.740367,0.463076 -11.952608,2.630557 -14.157595,3.736654 -4.084226,2.048786 -5.387113,4.510392 -3.678446,6.949857 0.980687,1.40012 5.309785,3.470421 9.686089,4.632161 l 3.740927,0.993071 -0.935141,1.188838 c -1.075189,1.366881 -1.153717,1.370694 -6.147816,0.298331 z m 50.194874,-2.517231 c -0.427133,-0.816565 -0.172674,-3.627595 0.328373,-3.627595 0.511029,0 3.532264,3.839417 3.246324,4.125393 -0.611108,0.611082 -3.181908,0.253084 -3.574697,-0.497798 z M 68.62659,45.5725 c -0.219196,-1.350873 -0.01408,-1.919311 1.388465,-3.84745 6.719977,-9.238115 9.373619,-16.64744 6.72965,-18.789769 -2.019756,-1.636559 -5.705699,-0.769393 -12.006283,2.82465 l -3.370804,1.922783 -0.289373,-1.542578 c -0.349611,-1.863621 0.08139,-2.269879 6.591231,-6.212652 10.436216,-6.320826 16.35623,-7.289407 17.800804,-2.912404 1.46291,4.432762 -4.721809,16.10706 -15.650719,29.542338 -0.731851,0.89964 -0.911163,0.751569 -1.192971,-0.984918 z M 28.739223,44.938739 c -0.774996,-0.978514 -1.335357,-1.85284 -1.245248,-1.942949 0.09011,-0.09011 0.666762,-0.290063 1.281444,-0.444338 1.552153,-0.389564 2.589859,0.846186 2.298646,2.737344 -0.12103,0.785977 -0.37884,1.429051 -0.57291,1.429051 -0.194069,0 -0.98694,-0.8006 -1.761932,-1.779108 z m 37.805741,-4.706592 c -0.333343,-0.665057 -0.66752,-1.324877 -0.742536,-1.466254 -0.139913,-0.263637 4.808918,0.02457 5.114513,0.297884 0.09322,0.08337 -0.158691,0.65243 -0.559791,1.264573 -1.032789,1.576236 -2.998767,1.526624 -3.812186,-0.0962 z m -43.596827,-2.93981 c -4.390141,-6.047978 -8.221428,-13.734913 -8.580705,-17.215966 -0.338197,-3.27683 0.0766,-4.477326 1.837106,-5.316854 2.063475,-0.984001 5.391766,-0.277029 10.563245,2.24377 6.388089,3.113831 20.566278,13.125026 19.695223,13.906766 -0.18658,0.167453 -0.845483,0.423195 -1.464225,0.568322 -0.879323,0.206245 -1.690885,-0.159413 -3.71652,-1.674524 -3.214085,-2.404036 -8.193364,-5.273794 -11.534458,-6.647761 -3.420363,-1.406571 -5.547173,-1.384027 -7.005452,0.07425 -1.00554,1.005539 -1.107024,1.382212 -0.882696,3.276271 0.254228,2.146573 2.317877,6.974928 4.436442,10.380032 l 1.133017,1.821066 -1.591888,0.185842 c -1.443499,0.168518 -1.712811,0.01926 -2.889089,-1.601211 z m 15.486729,-4.555685 c 0.0069,-1.858218 0.404022,-3.611784 0.814771,-3.597363 0.153174,0.0054 0.710329,0.351649 1.238114,0.769489 1.283988,1.016511 0.925344,2.743619 -0.772008,3.717766 l -1.286879,0.738565 0.006,-1.628457 z m 21.452783,0.823629 c -1.009748,-0.572025 -1.262492,-1.131592 -1.69877,-3.760595 -0.7935,-4.78207 -2.521422,-11.087426 -3.750009,-13.684461 -1.795752,-3.795941 -4.325102,-5.098089 -6.687972,-3.443068 -1.388894,0.972822 -3.347122,5.060455 -4.5208,9.436775 -0.549116,2.04752 -1.047007,3.789659 -1.106417,3.871411 -0.05941,0.08176 -0.690153,-0.281745 -1.401653,-0.807779 L 39.428392,24.216139 40.0422,20.846687 c 0.337591,-1.853199 1.215881,-5.447074 1.951758,-7.98639 4.461094,-15.394093 10.832073,-15.846962 15.464607,-1.09927 1.807951,5.75569 4.170065,19.264545 3.771426,21.568783 -0.146951,0.849332 -0.226013,0.862906 -1.342342,0.230471 z m -5.189571,-2.128422 c -1.900787,-0.308259 -1.856903,-0.796929 0.224733,-2.50267 1.112111,-0.911285 2.104051,-1.574838 2.204347,-1.474565 0.100254,0.100277 0.237796,0.833978 0.305642,1.630449 0.143477,1.68389 -0.963711,2.633993 -2.734722,2.346786 z" id="science" />
	</g>
	<g transform="translate(100)" id="g12346">
		<path id="radioactive" d="m 76.317415,4.8315723 c -0.512432,0 -1.360484,0.750156 -2.004404,1.773686 -3.160514,5.0233597 -15.449777,26.8581287 -15.449777,27.4498767 0,0.377156 0.665948,1.445196 1.480613,2.373001 1.543625,1.75812 3.220376,5.002069 3.238361,6.265405 0.0057,0.403216 0.265667,0.988997 0.577836,1.301166 0.420292,0.420293 4.959358,0.567441 17.491595,0.567441 h 16.924158 l 0.3291,-1.301166 C 99.403942,41.28893 97.86252,33.260928 96.067691,28.482574 93.907628,22.731814 90.558213,17.335721 86.295789,12.740411 82.417187,8.5588673 77.714463,4.8315723 76.317415,4.8315723 Z m -52.649388,0.126098 c -0.745934,-0.02657 -1.730462,0.492003 -3.476702,1.797936 C 11.699826,13.106011 4.9662129,23.226268 2.3332149,33.595087 c -1.129438,4.441729 -1.65229897,9.127869 -1.130034,10.103776 0.44399,0.82961 1.346952,0.868819 17.5546471,0.751046 l 17.086975,-0.124715 0.884765,-2.654985 c 0.486841,-1.460616 1.635839,-3.53297 2.553136,-4.604657 1.209466,-1.41294 1.627304,-2.309222 1.519414,-3.260535 C 40.720298,33.083484 37.141251,26.369556 32.848933,18.885266 26.958077,8.6136963 24.782438,5.2102183 23.97496,5.0020123 c -0.09832,-0.02533 -0.20037,-0.04055 -0.306933,-0.04434 z M 49.842375,38.001587 c -0.84181,-0.0036 -1.681207,0.119394 -2.480391,0.383145 -2.173071,0.717183 -4.913228,3.764607 -5.316206,5.91275 -0.669081,3.566618 1.006623,7.236793 4.03929,8.84834 3.72493,1.979431 8.312967,0.754683 10.75644,-2.871155 1.28609,-1.908391 1.46923,-5.944067 0.366515,-8.076509 -1.324015,-2.560313 -4.359186,-4.18379 -7.365648,-4.196571 z m 5.419442,21.864843 c -0.519545,-0.006 -1.275458,0.11705 -2.486623,0.36721 -2.266676,0.468161 -3.493393,0.480102 -5.524757,0.05404 -1.436165,-0.301044 -2.882964,-0.443308 -3.214807,-0.315936 -0.506281,0.194254 -5.958827,9.345494 -11.943284,20.044735 -0.806201,1.441319 -2.095866,3.685022 -2.866306,4.985719 -2.046075,3.45424 -2.11511,3.803369 -0.95474,4.839532 0.869245,0.776165 3.786526,2.214033 4.577633,2.256601 0.130072,0.007 0.464334,0.158521 0.742731,0.336032 0.278348,0.177557 1.072502,0.425188 1.765375,0.550811 0.69287,0.125627 1.493785,0.373007 1.779228,0.549428 0.285492,0.176422 2.044762,0.597665 3.909733,0.936035 7.90874,1.434983 17.577481,0.623532 25.359559,-2.128424 5.136873,-1.816539 6.334476,-2.614226 5.988962,-3.990795 -0.315195,-1.255912 -15.11974,-27.133695 -16.062256,-28.076211 -0.267188,-0.26728 -0.5509,-0.402772 -1.070448,-0.408777 z" />
	</g>
	<g transform="translate(0,200)" id="g112062">
		<path d="m 49.321574,20.985187 c -7.756922,0.0731 -16.549953,1.126685 -25.790788,3.109358 -4.95151,1.062382 -17.3826877,4.821869 -18.2092557,5.507059 -0.710592,0.589042 -2.674954,6.552143 -3.602606,10.936176 -0.95300199,4.503858 -0.95959099,13.762777 -0.01346,18.574822 0.705946,3.590438 2.655534,9.963753 3.413772,11.159948 1.048659,1.654403 21.4091817,6.7486 32.1855667,8.052609 16.565936,2.004569 35.73293,-0.365271 54.321343,-6.716662 l 3.181934,-1.087303 1.104774,-3.178571 c 4.034788,-11.614122 4.111376,-22.154149 0.248638,-34.039622 l -1.23245,-3.793458 -6.247616,-2.011976 C 78.199119,24.122243 68.528979,22.229529 56.711573,21.240547 54.377984,21.04525 51.907199,20.960823 49.321558,20.985187 Z m -4.831699,3.037456 h 3.813617 V 36.17984 48.336368 H 26.021228 3.7382923 l 0.318529,-2.637611 c 0.386626,-3.204481 2.149868,-10.266669 3.1443,-12.593328 0.685196,-1.60311 0.975233,-1.777319 5.2019717,-3.136239 11.277709,-3.625799 23.798805,-5.946547 32.086782,-5.946547 z m 7.025116,0 h 3.813617 c 7.936064,0 22.029339,2.606632 31.717852,5.86658 l 5.060855,1.702859 0.846049,2.293541 c 1.133206,3.071995 2.447057,8.572776 2.821745,11.813134 l 0.305083,2.637611 H 73.797256 51.514991 V 36.17984 Z m 6.802011,2.293541 c -3.048426,0 -3.626504,0.12747 -4.033358,0.887718 -0.275851,0.515405 -0.475107,4.277618 -0.475107,8.975938 0,4.698326 0.199256,8.460532 0.475107,8.975937 0.457662,0.85527 1.157501,0.887049 19.282445,0.887049 H 92.37343 l 0.370269,-1.001288 C 93.321691,43.479119 91.371567,35.270802 89.882311,32.997911 88.255162,30.514539 68.422029,26.316184 58.317002,26.316184 Z m -16.594431,0.01883 c -2.600321,0.01066 -6.314411,0.323496 -10.485257,0.920645 -8.924884,1.277809 -20.028936,4.02089 -20.892564,5.160977 -1.0047017,1.326348 -3.3291007,9.300221 -3.3291007,11.42136 0,0.607023 0.247593,1.351695 0.55037,1.654469 0.79089,0.790895 37.1026667,0.790895 37.8935557,0 0.776748,-0.776759 0.776748,-17.848468 0,-18.625221 -0.365817,-0.365827 -1.714533,-0.540515 -3.737004,-0.53223 z m 13.462228,0.780869 5.160981,0.325249 c 2.838535,0.178916 7.535258,0.721356 10.436871,1.205569 5.467622,0.91242 16.15545,3.447973 17.529193,4.158356 0.978659,0.506096 3.167691,7.219163 3.269293,10.02628 l 0.07459,2.064387 -18.235464,0.120292 -18.235464,0.119617 v -9.00954 z m -12.021454,0.183459 c 0.986748,0.01563 1.33316,0.157258 1.509989,0.432766 0.228983,0.356726 0.365449,4.364396 0.303074,8.90605 l -0.11357,8.257566 -18.247561,0.120292 C 11.68669,45.114139 8.3245113,45.023919 8.1311743,44.52008 7.5196873,42.926605 10.362245,33.887767 11.761332,32.977095 c 1.104336,-0.718822 9.969541,-3.022485 15.802815,-4.106614 2.092042,-0.388835 6.703464,-0.949611 10.248039,-1.246563 2.737202,-0.229332 4.364407,-0.340202 5.351159,-0.324573 z M 3.7382923,52.006862 H 26.021228 48.303492 v 12.156527 12.157203 l -4.472849,-0.04975 C 35.537466,76.178822 22.57595,73.70274 12.064406,70.201994 L 7.7091543,68.751138 6.8637753,66.45759 C 5.7307403,63.381332 4.4176043,57.880829 4.0433823,54.644457 Z m 47.7766987,0 h 22.282265 22.282936 l -0.296348,2.637611 c -0.389481,3.46767 -1.94551,9.856187 -2.99982,12.315794 -0.824072,1.922496 -0.921931,1.984496 -5.339739,3.399659 -6.732367,2.156555 -14.771459,4.025407 -21.7077,5.045398 v -0.003 c -3.406243,0.500872 -7.999974,0.913255 -10.207721,0.913255 l -4.013873,0.0047 V 64.163153 Z m 22.020183,1.834569 c -9.879675,0 -17.403638,0.186248 -18.090981,0.447554 l -1.176679,0.447555 v 9.094879 c 0,6.663208 0.153088,9.248088 0.57322,9.669448 1.549116,1.55366 25.37059,-2.003589 33.030271,-4.932497 1.674865,-0.640423 2.832275,-2.649716 3.982963,-6.914233 1.332051,-4.936648 1.274575,-6.793912 -0.22781,-7.365152 -0.687346,-0.261306 -8.211307,-0.447554 -18.090984,-0.447554 z m -34.987817,0.116928 c -2.798273,1.19e-4 -6.880522,0.06003 -12.910516,0.166658 -21.0062397,0.371495 -19.2452477,-0.166284 -17.9512037,5.483542 1.078425,4.708506 2.021704,7.339727 2.9245557,8.156763 1.875283,1.697115 16.493712,4.845186 26.913033,5.795353 6.003958,0.547522 6.99629,0.514689 7.765661,-0.254685 0.604523,-0.604546 0.721059,-2.12108 0.721059,-9.393928 0,-8.636357 -0.0046,-8.675829 -1.095363,-9.390564 -0.605514,-0.396736 -1.703437,-0.56334 -6.367226,-0.563139 z m -30.7400897,1.249252 18.5277857,0.119617 18.527785,0.120287 v 8.715874 8.71655 l -2.522697,0.06182 C 34.683723,73.12962 14.612959,69.38058 11.60341,67.20017 10.423038,66.344965 8.6684393,61.344511 8.0814463,57.162467 Z" id="cargo" />
	</g>
	<g transform="translate(198.82361,199)" id="g112195">
		<path d="m 49.777189,98.990742 c -0.177082,-0.1797 -0.321969,-2.78094 -0.321969,-5.78053 v -5.4538 l -2.683095,-0.2966 c -9.687176,-1.07085 -17.411984,-4.80793 -23.747753,-11.48858 -6.258882,-6.5996 -9.555973,-13.64974 -10.318428,-22.06374 l -0.286069,-3.15697 -5.6300132,-0.11938 c -7.48262227,-0.15866 -7.48535907,-0.9386 -0.00386,-1.09731 l 5.6261502,-0.11936 0.266976,-3.10033 c 0.459901,-5.34087 2.239938,-10.84139 5.070882,-15.66949 2.179537,-3.71712 9.782479,-11.0963 13.674922,-13.27244 4.171591,-2.33219 8.716311,-3.82448 13.646364,-4.48087 l 3.954615,-0.52652 0.0064,-5.1815187 c 0.0064,-5.135431 0.312053,-6.63913796 1.233335,-6.069771 0.310024,0.191619 0.477286,2.224113 0.477286,5.800428 v 5.5054517 l 2.897721,0.31 c 10.304776,1.10242 18.88293,5.76238 25.406858,13.8019 1.367917,1.68572 3.081919,4.10452 3.808892,5.37511 1.976439,3.45448 3.894021,9.62302 4.265155,13.7203 l 0.325832,3.59717 5.688097,0.11978 c 4.612747,0.0971 5.688127,0.23681 5.688127,0.7388 0,0.50199 -1.07538,0.64166 -5.688127,0.7388 l -5.688097,0.11978 -0.308124,3.43434 c -0.960401,10.70428 -7.066703,20.61452 -16.765019,27.20878 -4.484962,3.04951 -10.608747,5.19613 -16.674513,5.84503 l -2.838607,0.30368 -0.381082,5.7923 c -0.20957,3.18577 -0.525936,5.64527 -0.703019,5.46556 z m -0.536625,-13.95675 v -1.46675 l -3.287818,-0.29819 C 39.4709,82.681172 32.844843,79.683542 27.697784,75.010502 21.153411,69.068862 17.662559,62.192322 16.623115,53.194842 l -0.285168,-2.46843 h -1.505784 -1.505817 l 0.302297,2.89772 c 0.395378,3.79005 1.651121,8.68901 2.960247,11.54849 3.57672,7.81263 11.489783,15.47668 19.343635,18.73491 3.47514,1.4417 10.884321,2.97219 12.878758,2.66033 0.236099,-0.0369 0.429281,-0.72716 0.429281,-1.53387 z m 9.661643,0.48918 c 7.36211,-1.88775 14.046732,-6.2483 19.321678,-12.60402 4.409461,-5.3129 7.156275,-12.00779 7.916475,-19.29502 l 0.302297,-2.89772 h -1.528515 c -1.637116,0 -1.740564,0.16591 -2.141222,3.43433 -0.101292,0.82639 -0.131943,-0.23611 -0.06813,-2.3611 0.29312,-9.75603 -2.443229,-17.27282 -8.703625,-23.90918 -3.49552,-3.70543 -7.341053,-6.49568 -11.144182,-8.08602 -2.986101,-1.24868 -8.528055,-2.5628 -10.807917,-2.5628 h -1.305971 v 5.79544 5.79544 l 1.609845,0.0428 c 0.885414,0.0235 2.092798,0.19746 2.683064,0.3865 0.64207,0.20562 -1.427546,0.34371 -5.151503,0.34371 -3.723957,0 -5.793574,-0.13809 -5.151503,-0.34371 0.590265,-0.18904 1.797649,-0.36296 2.683063,-0.3865 l 1.609845,-0.0428 v -5.79544 -5.79544 h -1.30597 c -2.098014,0 -7.709836,1.28123 -10.400369,2.37449 -3.862179,1.56934 -8.095619,4.61994 -11.64024,8.38789 -5.014247,5.33016 -7.674,11.32875 -8.599822,19.39538 l -0.234071,2.03913 h 5.743185 5.743153 l 0.498375,-2.89772 c 0.274093,-1.59374 0.960305,-3.91398 1.52491,-5.15608 l 1.026565,-2.25835 18.588555,0.11189 18.588522,0.1119 0.963266,2.0157 c 0.529768,1.10863 1.191704,3.4268 1.47098,5.1515 0.279243,1.72469 0.763388,3.35029 1.075859,3.61243 0.446506,0.37456 0.568178,3.05344 0.568178,12.51086 0,10.30108 -0.09276,12.06983 -0.643937,12.28134 -0.563253,0.21614 -0.643938,-1.31105 -0.643938,-12.18889 V 50.297122 H 61.046102 50.743096 v 18.1579 18.1579 l 3.114921,-0.29753 c 1.713229,-0.16365 3.98311,-0.52015 5.04419,-0.79222 z m -9.661643,-24.31488 v -10.26724 l -10.451659,-0.11504 -10.451691,-0.11505 0.306836,2.2615 c 0.97122,7.15782 5.723449,13.53618 12.439978,16.69675 2.303495,1.08394 6.589127,2.1358 7.727255,1.89655 0.271709,-0.0571 0.429281,-3.85901 0.429281,-10.35747 z M 16.602831,46.608032 c 0.817769,-7.63616 3.736482,-13.85768 9.218679,-19.65034 5.528689,-5.84182 12.339942,-9.30076 19.770083,-10.03976 l 3.21969,-0.32023 0.134518,-1.3952 c 0.12779,-1.32539 0.06191,-1.39519 -1.31637,-1.39519 -4.218211,0 -11.737989,2.21487 -15.738678,4.63567 -10.514829,6.36248 -17.039691,16.45949 -18.295981,28.31248 l -0.284395,2.68307 h 1.494676 1.494644 z m 69.536081,0.14743 c -1.081623,-10.43786 -5.646627,-18.78048 -13.838676,-25.2904 -5.424951,-4.31102 -11.733675,-6.86805 -18.495376,-7.49648 l -3.125803,-0.29052 0.139316,1.45982 0.139348,1.45982 3.210706,0.3201 c 7.668817,0.76455 13.032175,3.43983 19.121928,9.53813 2.571695,2.57532 4.950562,5.43086 5.913732,7.0988 2.064111,3.57432 3.68326,8.69236 4.023549,12.71804 l 0.267621,3.16576 h 1.460837 1.460838 z" id="tactical" />
	</g>
	<g transform="translate(0,100)" id="g112531">
		
	</g>
	<g id="g312">
		<path d="m 50.594153,0.9999997 c -0.758371,0 -6.668402,8.754233 -9.711178,14.3848113 -1.264642,2.340184 -1.441275,2.513349 -3.133435,3.067729 -4.374965,1.433333 -9.620778,4.758344 -13.39105,8.488444 -7.979939,7.894918 -11.728394,18.340632 -10.653403,29.686049 0.615874,6.499971 3.083693,12.957161 6.867396,17.968628 l 1.473445,1.951135 -0.723821,5.274126 C 20.401078,88.532853 19.572752,96.036274 19.568611,97.705984 19.566011,98.417693 19.628861,99 19.706605,99 c 0.07775,0 2.07581,-2.445693 4.440081,-5.434868 2.364245,-2.989175 5.020938,-6.237226 5.903949,-7.218186 l 1.605409,-1.783819 1.518424,0.84869 c 2.351694,1.314382 6.701271,2.794706 10.072105,3.428134 4.226724,0.794265 11.899205,0.554882 16.001832,-0.49941 3.924208,-1.00845 9.9595,-4.026104 12.894174,-6.44683 1.836105,-1.514545 2.438289,-1.84805 2.672946,-1.482053 0.166539,0.259803 1.426497,2.762358 2.799811,5.561742 1.373313,2.799384 2.616009,5.090135 2.761922,5.090135 0.460385,0 0.292681,-2.529028 -0.612639,-9.233513 L 78.886629,75.32759 80.50666,72.929615 C 88.455026,61.166442 88.466051,44.899281 80.53345,33.005674 76.154085,26.439522 68.737456,20.576492 62.109893,18.44142 60.318302,17.864257 60.306448,17.851019 58.349171,14.175716 55.102355,8.0788877 50.935778,0.9999997 50.594157,0.9999997 Z m -0.0207,0.30834 2.522814,4.24549 c 6.614856,11.1326423 14.16231,27.8974073 18.223399,40.4779373 4.193208,12.989797 7.617304,29.333732 8.783136,41.926128 l 0.207249,2.242795 -3.906842,-7.591733 C 67.768626,65.831842 63.430152,60.647068 58.903165,61.69341 c -2.672506,0.617704 -7.829057,3.745328 -12.594919,7.639246 -6.337186,5.17776 -13.720067,12.995839 -21.661134,22.93846 -4.666948,5.843257 -4.736799,5.925955 -4.736799,5.580445 0,-1.149896 1.258975,-11.828492 2.102259,-17.830636 C 26.656745,46.966632 36.124519,20.313069 49.444709,2.7934297 Z m -0.0075,5.50816 c -0.333624,-0.0575 -0.801436,0.61165 -2.245843,2.856443 C 38.662012,24.68305 31.747928,42.481955 27.695716,62.767544 26.465106,68.928118 24.942515,78.843047 24.521338,83.43895 l -0.234035,2.555175 4.109019,-4.423918 c 2.259974,-2.433129 6.282786,-6.441039 8.939815,-8.906471 C 48.266098,62.52201 55.116361,58.041463 60.25389,57.673872 c 1.363894,-0.09758 2.868446,0.0037 3.590896,0.24212 1.618944,0.534305 5.327957,4.500985 8.311518,8.888782 1.251443,1.84043 2.27514,3.177165 2.27514,2.970676 0,-0.206491 -0.303318,-1.850927 -0.674312,-3.65408 C 71.474694,55.028581 67.396731,42.567947 61.762222,29.468359 59.440679,24.07105 51.730593,8.2036907 50.885911,7.0849097 c -0.112579,-0.14911 -0.20875,-0.24924 -0.319958,-0.26841 z m -0.234036,7.2004973 c 0.163331,7.76e-4 0.704851,3.986799 1.83639,13.38599 0.866681,7.199317 1.688562,13.185993 1.826271,13.3036 0.137735,0.117606 1.76421,0.651843 3.614654,1.187361 1.850443,0.535521 3.364442,1.035545 3.364442,1.111035 0,0.07549 -1.489024,0.842676 -3.309343,1.704967 -3.285973,1.556578 -3.308282,1.575887 -3.114231,2.652734 0.539423,2.993463 0.947375,6.158601 0.811296,6.294683 -0.08411,0.08412 -1.131954,-1.331375 -2.32822,-3.145573 -1.196266,-1.814198 -2.289995,-3.369691 -2.430344,-3.456439 -0.140349,-0.08674 -1.122637,1.361616 -2.183135,3.218361 -1.060498,1.856745 -2.160748,3.680521 -2.444992,4.052898 -0.489681,0.641545 -0.508108,0.622543 -0.3528,-0.358381 0.336573,-2.125654 0.858787,-6.457853 0.858787,-7.122651 0,-0.532731 -0.762021,-1.047535 -3.364443,-2.274133 l -3.364442,-1.585674 3.278002,-0.997301 c 1.803005,-0.548412 3.467989,-1.05966 3.699567,-1.13631 0.231577,-0.07665 0.494366,-0.495427 0.584351,-0.930579 0.21931,-1.060692 2.962573,-24.474757 2.962573,-25.285888 0,-0.406691 0.01786,-0.6189 0.05562,-0.6187 z" id="delta-filled" />
	</g>
</svg>

