<svg id="svg1570" version="1.1" viewBox="0 0 1280 800" xmlns="http://www.w3.org/2000/svg">
	<g id="icons" transform="matrix(2. 0 0 2. 338 100)" style="stroke-width:.496667">
		<g id="g111261" transform="translate(100,100)" style="stroke-width:.496667">
			<path id="operations" d="m43.0067 0.999999c-0.201461-2.6178e-4 -0.430954 0.0260999-0.710192 0.0705587-2.64482 0.421012-3.66302 3.06479-1.9598 5.08894 0.728674 0.86598 1.17085 1.07372 2.28448 1.07372 2.96096 0 4.1726-3.164 2.03139-5.30522-0.689061-0.689058-1.04149-0.927154-1.64587-0.928005zm17.2169 5.9106c-0.499039-0.00183-1.0195 0.169516-1.51549 0.516922-0.987247 0.691493-1.02632 2.34773-0.07772 3.29634 0.908251 0.90825 2.02427 0.885857 3.032-0.06084 0.992854-0.932742 1.03602-2.15397 0.109418-3.08057-0.44457-0.44457-0.982632-0.669665-1.54821-0.671846zm-12.7507 9.04895c-0.484018 0-1.0589 3.30102-1.0589 6.07984 0 2.56461 0.755052 7.75883 1.35443 9.31686 0.241745 0.628414 0.369606 0.704986 0.518457 0.310359 0.108619-0.287963 0.516872-1.3966 0.907554-2.46394 1.39845-3.82058 1.41587-3.81136 3.56016 1.98281l1.92197 5.19325-2.47314 1.22814c-4.79961 2.38316-8.79244 5.57139-12.0523 9.62364-4.53621 5.63883-6.70617 11.0819-7.53602 18.9042-0.225082 2.12166-0.259433 2.18171-1.2445 2.18171-0.667629 0-1.01288 0.178461-1.01288 0.523568 0 0.395585 0.426952 0.523569 1.74557 0.523569 1.31862 0 1.74506-0.127984 1.74506-0.523569 0-0.287963-0.228286-0.523568-0.507207-0.523568-0.552658 0-0.497615-1.64777 0.192249-5.75926 1.71501-10.2212 8.73547-19.3621 18.735-24.394 2.29656-1.15566 2.55953-1.21819 2.76152-0.658039 0.122793 0.340521 0.666582 1.78646 1.2082 3.2135 0.541619 1.42704 0.947717 2.62517 0.902952 2.66233-0.04476 0.03717-0.709237 0.388022-1.47714 0.779727-1.86816 0.95295-4.07012 3.30852-5.28733 5.65649-0.899837 1.73578-0.995252 2.25408-0.995496 5.41004-2.41e-4 3.11047 0.105423 3.70535 0.969932 5.46577 2.04081 4.15575 5.95194 6.77075 10.7255 7.17095 1.74675 0.146442 2.34139 0.306015 1.95264 0.523569-0.777939 0.43536-0.698799 0.976068 0.143165 0.976068 0.517674 0 0.940667 0.527862 1.60701 2.00684l0.903976 2.00736-1.49043 2.87963c-0.819938 1.5838-1.58829 2.87963-1.70722 2.87963-0.118934 0-0.730827-1.57096-1.36005-3.49063-1.0991-3.35319-1.75914-4.29527-2.75692-3.9375-0.730638 0.261978-0.496304 1.70481 0.824723 5.07923 1.94128 4.9588 3.91848 10.4864 5.37732 15.0327 0.75113 2.34082 1.66875 4.497 2.11677 4.9739 0.434971 0.463003 0.995312 0.841595 1.24501 0.841595 0.667255 0 0.329317-1.46603-1.77574-7.70935l-1.83454-5.44072 2.77941-8.66548 1.26188 2.61784c1.12452 2.33263 1.37797 2.6293 2.32692 2.72215 0.720621 0.07051 1.27054-0.122976 1.70109-0.59873 0.616363-0.681074 0.613366-0.78768-0.09663-3.39962-0.403127-1.48301-0.692098-2.73718-0.642192-2.78708 0.04991-0.04991 1.79941 1.04015 3.8874 2.42253l3.79638 2.51354 1.46231 4.0142c1.58603 4.35264 3.49329 8.3771 3.96971 8.3771 0.164094 0 0.390684-0.569488 0.503628-1.26546 0.157181-0.968613-0.08245-1.97165-1.02157-4.27598-0.674781-1.65572-2.47767-6.46573-4.00653-10.6892-3.50285-9.67657-3.62633-9.94781-4.51578-9.94781-1.22207 0-1.18382 0.981872 0.177932 4.57765 0.723711 1.911 1.24668 3.54366 1.16218 3.62817-0.0845 0.0845-1.47937-0.403201-3.1-1.08395l-2.94661-1.23785-0.875341-2.72113-0.875342-2.72061 1.79159-1.75273c0.985286-0.964118 2.24201-2.67364 2.79322-3.79894 0.889161-1.81522 1.00237-2.42006 1.00368-5.36198 0.0013-2.86605-0.124997-3.58562-0.930562-5.3042-1.18894-2.53644-3.61806-4.96607-6.15449-6.155-1.75614-0.823173-2.43623-0.935864-5.82061-0.964309l-3.83166-0.03221-3.21913-8.85823c-3.2211-8.86394-3.42143-9.89018-1.75784-8.99986 0.363286 0.194427 1.27485 0.908658 2.02576 1.58707 0.750916 0.678406 1.36516 1.12847 1.36516 1.00061 0-0.429251-1.13654-2.44949-2.56569-4.56077-1.40991-2.08286-5.91909-6.80639-6.49757-6.80639zm27.7103 2.5524c-0.835699-0.0035-1.53632 0.978055-0.829325 1.82993 0.542729 0.653948 1.35044 0.534754 1.8601-0.274568 0.292743-0.464855 0.247164-0.737593-0.197362-1.18212-0.26141-0.261411-0.554847-0.372069-0.833414-0.373247zm-51.1768 2.34634c-0.586099-0.0099-1.19194 0.201553-1.67655 0.686161-0.933805 0.933811-0.880229 1.94367 0.158503 2.9824 0.964089 0.964092 1.30531 1.02909 2.39492 0.455568 0.98432-0.518108 1.2742-0.973848 1.2808-2.01452 8e-3 -1.26571-1.03876-2.09061-2.15768-2.10961zm51.0827 5.31903c-0.7252-0.01178-1.48726 0.335694-1.99764 1.11463-0.599573 0.915072-0.446379 1.93422 0.421311 2.80191 0.694629 0.694627 2.18249 0.668519 2.97882-0.05215 0.374359-0.338791 0.638612-1.05685 0.638612-1.73688 0-1.32548-0.981188-2.11027-2.0411-2.12751zm-44.4527 10.4259c-0.758918-0.01479-1.1669 0.696087-0.841085 1.54514 0.126146 0.32873 0.525025 0.503673 0.997032 0.436648 0.576876-0.08192 0.787398-0.345053 0.787398-0.984759 0-0.639705-0.210522-0.902329-0.787398-0.984247-0.0536-0.0076-0.105352-0.01181-0.155947-0.01277zm-10.1227 3.14141c-0.758918-0.01479-1.16638 0.696087-0.840571 1.54514 0.126143 0.328731 0.525022 0.503673 0.997029 0.436649 0.576879-0.08192 0.786888-0.345053 0.786888-0.98476 0-0.639704-0.210009-0.902329-0.786888-0.984246-0.0536-0.0076-0.105863-0.01181-0.156458-0.01277zm60.3909 3.44052c-1.02506 0-2.37856 1.32549-2.37856 2.32947 0 0.446473 0.314484 1.12591 0.698433 1.50986 1.42018 1.42018 3.83933 0.506584 3.83933-1.45004 0-1.1807-1.09226-2.38929-2.15921-2.38929zm-50.5198 0.03835c-0.442678 7e-3 -0.883957 0.232211-1.35749 0.67338-0.952769 0.887638-0.980288 2.21277-0.06545 3.12761 0.91484 0.914842 2.23997 0.887323 3.12761-0.06545 0.94116-1.01021 0.89807-1.87367-0.145206-2.91695-0.554242-0.554242-1.05776-0.826556-1.55946-0.81859zm-9.80873 15.8093c-0.168856 0.0041-0.340278 0.0633-0.497495 0.19378-0.650066 0.539506-0.690807 1.12174-0.118109 1.69444 0.513477 0.513477 0.975649 0.392181 1.46589-0.385007 0.434541-0.688893-0.187854-1.5194-0.850286-1.50322zm-6.1959 6.80282c-0.713674 0.02225-1.4301 0.310353-2.014 0.894258-1.47907 1.47906-0.919899 4.28802 1.01288 5.08741 2.40605 0.995137 4.92896-1.59011 3.91654-4.01318-0.544855-1.30402-1.72596-2.00558-2.91542-1.9685zm73.1503 2.18171c-0.758918-0.01479-1.16638 0.696087-0.840571 1.54514 0.126143 0.328731 0.525022 0.503674 0.997029 0.436649 0.576879-0.08192 0.786888-0.345053 0.786888-0.98476 0-0.639704-0.210009-0.902329-0.786888-0.984246-0.0536-0.0076-0.105863-0.01181-0.156458-0.01278zm-66.2478 0.29911c-1.31862 0-1.74506 0.127983-1.74506 0.523568s0.426441 0.523569 1.74506 0.523569c1.31862 0 1.74506-0.127984 1.74506-0.523569s-0.426442-0.523568-1.74506-0.523568zm20.9888 0.01686c-0.386833 2.62e-4 -0.739219 0.04044-0.977602 0.131916-0.279937 0.107426-0.410923 0.353755-0.291439 0.547088 0.331492 0.536365 3.75853 0.455138 3.58113-0.08488-0.109978-0.334793-1.32352-0.594994-2.31209-0.594128zm15.8415 0.02353c-0.691425 0.0095-0.87841 0.142984-0.87841 0.483175 0 0.456382 0.339419 0.540504 1.83249 0.454544 2.30744-0.132847 2.24948-0.768462-0.08283-0.909088-0.354293-0.02136-0.640775-0.0318-0.871249-0.02863zm-9.69574 0.130379c-0.883258 0.0091-1.82646 0.1716-1.92248 0.459657-0.115154 0.345458 0.299997 0.429606 1.71592 0.348704 1.02744-0.0587 1.82884-0.26359 1.78085-0.455565-0.06242-0.249679-0.794942-0.360859-1.57428-0.352796zm-21.7245 0.0036c-1.03938 0-1.74289 0.167846-1.83249 0.436649-0.104941 0.314827 0.405279 0.436138 1.83249 0.436138 1.42721 0 1.93743-0.121311 1.83249-0.436138-0.0896-0.268803-0.79311-0.436649-1.83249-0.436649zm10.8206 0c-1.03938 0-1.74289 0.167846-1.83249 0.436649-0.104942 0.314827 0.405284 0.436138 1.83249 0.436138 1.42721 0 1.93743-0.121311 1.83249-0.436138-0.0896-0.268803-0.79311-0.436649-1.83249-0.436649zm16.0563 0c-1.03938 0-1.74289 0.167846-1.83249 0.436649-0.104939 0.314827 0.405281 0.436138 1.83249 0.436138 1.42721 0 1.93743-0.121311 1.83249-0.436138-0.0896-0.268803-0.79311-0.436649-1.83249-0.436649zm-23.1654 15.8763c-0.620128 4e-3 -1.22532 0.250253-1.584 0.762345-0.744363 1.06272-0.701266 1.8905 0.14163 2.7334 1.74443 1.74443 4.47481-0.143795 3.41649-2.36271-0.354606-0.743478-1.17681-1.13819-1.97412-1.13303zm19.3634 0.0542c-0.08659 1e-3 -0.17466 0.0052-0.26434 0.0138-1.98614 0.190681-2.54863 2.72816-0.855401 3.85876 1.30636 0.872278 3.35104-0.242276 3.35104-1.82687 0-1.22427-0.93246-2.05957-2.2313-2.0457zm-4.11953 10.4228c-2.13572 0-3.12007 2.04762-1.67757 3.49012 1.83286 1.83286 4.75314-0.473003 3.33673-2.63472-0.398462-0.608133-0.878054-0.855401-1.65916-0.8554zm34.1854 1.09827c-0.05164-5.24e-4 -0.104602 0.0041-0.159013 0.01482-0.901801 0.177647-1.35586 1.1831-0.823702 1.82431 0.575622 0.69359 0.880147 0.694645 1.56968 0.0051 0.626366-0.626367 0.187644-1.83671-0.58697-1.84425z" style="stroke-width:.496667"/>
		</g>
		<g id="g111264" transform="translate(100,200)" style="stroke-width:.496667">
			<path id="transporter" d="m50.0612 1-6.71861 5.11196c-18.6875 14.2179-28.8197 21.9553-29.722 22.6972-1.64507 1.35265-0.819789 1.52478 7.1674 1.4953l7.16788-0.02637v39.5552l-7.4184 0.166524c-4.55066 0.102252-7.4417 0.295556-7.47847 0.500062-0.03297 0.183355 8.25599 6.67004 18.4198 14.4149 10.1638 7.74484 18.5202 14.0833 18.5697 14.0853 0.04951 2e-3 3.80014-2.823 8.33454-6.27764 4.53439-3.45464 12.8196-9.76486 18.412-14.0227 5.59236-4.25788 10.2164-7.95728 10.2757-8.22075 0.09124-0.405498-1.04748-0.479064-7.41987-0.479064h-7.52828l0.1719-39.7218 7.25676 0.03663c6.56404 0.03325 7.27784-0.01775 7.47603-0.534247 0.14175-0.369386-0.0072-0.721709-0.422418-0.998171-0.353009-0.235045-2.46721-1.82092-4.69785-3.52436-9.08395-6.93703-17.344-13.2328-24.3961-18.5941zm0.0093 1.65792c0.212759 0 4.77491 3.34909 10.1385 7.44185 13.8543 10.5718 18.3448 13.9909 21.6863 16.5138l2.93298 2.21463-6.85046 0.08985-6.84998 0.09034v41.9916h6.85388c3.76963 0 6.7745 0.128429 6.67759 0.285193-0.09688 0.156765-7.8364 6.12001-17.1989 13.2516-9.36252 7.13164-17.1416 13.0079-17.2868 13.0583-0.145253 0.05034-2.58385-1.67505-5.41913-3.83398-9.05872-6.89781-18.5548-14.1532-23.4136-17.8894-2.59605-1.9963-4.98252-3.79532-5.3034-3.99757-0.320875-0.202242-0.58308-0.478392-0.58308-0.613843 0-0.135455 3.03788-0.286836 6.75084-0.33647l6.75084-0.09034v-41.6722l-13.6687-0.333049 3.94922-3.00037c2.17207-1.6502 8.24783-6.28075 13.5017-10.2899 15.2372-11.6272 16.9232-12.88 17.3322-12.88zm-0.07862 11.9829c-1.23335-0.04395-2.43213 0.366611-2.74888 1.19204-0.112747 0.293834-0.02485 2.13538 0.195336 4.09231 0.46159 4.10216 0.535207 3.96109-2.9994 5.74534-2.25534 1.13849-2.58111 1.50943-3.12295 3.55562-0.233361 0.881283-0.532296 1.9398-0.664145 2.35235l-0.239775 0.750093h9.52413c7.40292 0 9.52093-0.09312 9.51193-0.417044-0.0065-0.229196-0.281152-1.39152-0.610426-2.58333l-0.598707-2.16726-2.89001-1.61983c-2.84358-1.59406-2.89001-1.64058-2.89001-2.89294 0-0.700049 0.16103-2.43103 0.357954-3.84667 0.329241-2.36719 0.306334-2.62519-0.283237-3.21476-0.602498-0.602503-1.58255-0.911739-2.54182-0.945918zm0.143573 18.3543c-5.30139 0-9.71434 0.122768-9.80689 0.272494-0.09251 0.149731-0.467124 1.34972-0.832134 2.66684l-0.663658 2.39483h22.366l-0.216824-0.917107c-0.119283-0.50423-0.440058-1.70422-0.712491-2.66684l-0.49518-1.75022zm-11.5381 6.3255-0.380905 1.42108c-0.209591 0.781597-0.482317 1.68377-0.606033 2.00464-0.201892 0.523718 0.03061 0.58357 2.27226 0.58357 2.25658 0 2.5145-0.06744 2.68002-0.700282 0.196257-0.750493 0.895132-0.578977 0.895132 0.219753 0 0.40216 1.07908 0.480529 6.62826 0.480529 6.58548 0 6.63038-0.0049 6.85291-0.750093l0.223661-0.750093 0.366255 0.750093c0.326473 0.669216 0.611729 0.750093 2.64828 0.750093 1.25549 0 2.27984-0.112514 2.27616-0.250031-0.0035-0.137517-0.200445-1.00045-0.438042-1.91723l-0.432181-1.66671-11.4926-0.08741zm1.39666 5.00941c-2.43523 0-2.50263 0.08907-1.99537 2.62533 0.198693 0.993451 0.282906 1.04163 1.81126 1.04163 1.73158 0 1.74015-0.0097 2.16678-2.4168l0.221707-1.25016zm10.1507 0c-3.47293 0-6.37318 0.112514-6.44465 0.250031-0.07134 0.137517-0.06495 0.962295 0.01415 1.83324l0.143573 1.58369h12.6012v-3.66696zm9.75805 0c-1.99805 0.0044-1.94377 0.111279-1.5627 2.4168 0.205361 1.24235 0.216522 1.25016 1.80736 1.25016 1.72938 0 1.73876-0.01008 2.16531-2.4168l0.22122-1.25016h-2.20391c-0.151959 0-0.294097-2.5e-4 -0.427301 0zm-3.4433 4.98597-6.41779 0.09083-6.4173 0.09034-0.101575 1.5837-0.101575 1.5832h13.4494l-0.201198-0.750093c-0.110579-0.412551-0.202265-1.16585-0.20559-1.67404zm-18.0325 0.01465 0.207546 1.25016c0.114279 0.687585 0.266293 1.43752 0.337932 1.66671 0.07164 0.229194 0.510119 0.416554 0.974244 0.416554 0.464158 0 0.844435-0.18736 0.847761-0.416554 2e-3 -0.229196 0.09634-0.979127 0.209988-1.66671l0.207056-1.25016h-1.39226zm21.8855 0c-0.630908 0-1.20585 0.112514-1.27799 0.250031-0.07211 0.137517 0.0027 0.887448 0.166523 1.66671 0.246599 1.17335 0.430512 1.41668 1.06996 1.41668 0.598107 0 0.819202-0.234659 0.980589-1.04163 0.407951-2.03969 0.304308-2.29179-0.939082-2.29179zm-10.1873 5.00062c-5.53352 0-6.66733 0.08033-6.66733 0.472716 0 0.260037-0.09135 0.710093-0.202663 1.00012-0.18049 0.470341 0.53991 0.527408 6.66734 0.527408h6.87v-2.00025zm-3.96485 3.66696c-3.01604 0-3.03602 0.0056-3.03602 0.833599 0 0.823635 0.0335 0.833111 2.83385 0.833111 1.55853 0 2.83336-0.137344 2.83336-0.3057 0-0.168361 0.09135-0.54357 0.202662-0.833601 0.17539-0.457067-0.20236-0.527409-2.83385-0.527409zm7.96535 0c-2.6872 0-3.00037 0.06401-3.00037 0.611404 0 0.336154 0.09995 0.710876 0.222198 0.833111 0.122215 0.122238 1.47238 0.222195 3.00037 0.222195 2.74107 0 2.77818-0.01078 2.77818-0.833111 0-0.827268-0.02223-0.833599-3.00037-0.833599zm0.340865 4.0005c-2.57425 0-2.58149 0.0026-2.42267 0.833598 0.153619 0.803533 0.251756 0.833112 2.74106 0.833112 2.57425 0 2.58148-0.0023 2.42267-0.833112-0.153619-0.803532-0.251757-0.833598-2.74106-0.833598zm-8.92543 5e-4c-2.52055 2.3e-4 -2.58477 0.02025-2.63168 0.833111-0.04747 0.822365-0.01373 0.833111 2.58382 0.833111 2.58492 0 2.63168-0.0145 2.63168-0.833111 0-0.817329-0.0501-0.833346-2.58382-0.833111zm-2.75034 4.33355v2.00025h4.66757v-2.00025h-2.33379zm10.9017 0.04346c-1.38943 0.0193-1.45691 0.320502-1.03138 1.42938 0.157685 0.410959 0.714197 0.527411 2.52229 0.527411h2.32011l-0.105483-0.917107c-0.103045-0.895591-0.161195-0.918602-2.52229-1.01429-0.471631-0.0191-0.862615-0.02985-1.18325-0.02539zm1.59981 4.62362c-1.94468 0-2.16678 0.06822-2.16678 0.666585s0.2221 0.667076 2.16678 0.667076c1.94467 0 2.16726-0.06871 2.16726-0.667076 0-0.598362-0.222591-0.666585-2.16726-0.666585zm-11.5551 0.03174c-0.856649 0.0044-0.946408 0.150911-0.946408 0.634841 0 0.645243 0.159218 0.691359 2.08376 0.599685 1.58573-0.07554 2.08376-0.219112 2.08376-0.599685 0-0.380572-0.498027-0.523658-2.08376-0.599192-0.481133-0.02293-0.851799-0.03713-1.13735-0.03565zm0.887316 5.30241c-1.40757 0-1.83372 0.116175-1.83372 0.500063s0.426151 0.500062 1.83372 0.500062c1.40758 0 1.83372-0.116174 1.83372-0.500062s-0.42615-0.500063-1.83372-0.500063zm10.8451 0c-1.63173 0-1.95546 0.08999-1.79807 0.500063 0.137752 0.358962 0.6994 0.500062 1.98999 0.500062 1.37587 0 1.79808-0.117377 1.79808-0.500062 0-0.388644-0.443536-0.500063-1.99-0.500063zm-10.8451 4.33355c-1.55752 0-1.92241 0.387933-0.916617 0.973756 0.78683 0.458285 1.53339 0.443418 2.01685-0.04005 0.70492-0.704908 0.435457-0.933711-1.10023-0.933711zm11.0531 0c-1.1166 0-1.55195 0.132894-1.55195 0.472716 0 0.259752 0.187361 0.547736 0.416557 0.640217 0.847905 0.34213 1.49605 0.203541 2.08375-0.445858 0.595174-0.657669 0.582363-0.667075-0.94836-0.667075z" style="stroke-width:.496667"/>
		</g>
		<g id="g111267" transform="translate(197.93 98.9999)" style="stroke-width:.496667">
			<path id="medical" d="m50.2361 1.00024c-0.21728 1e-3 -0.43928 8e-3 -0.66601 0.0199-2.1762 0.11578-3.1957 0.40681-4.54023 1.29658-5.12602 3.39224-5.38414 10.8833-0.50992 14.8004 2.52852 2.03198 2.15647 2.92275-1.22072 2.92275-1.92767 0-2.59752 0.60619-2.59752 2.35065 0 1.59138 3.6915 26.9596 4.06449 27.9316 0.14286 0.37226 2.20036 1.43761 4.57194 2.36743 4.98885 1.95595 4.71502 1.89294 5.28397 1.20579 0.41863-0.50557 4.77491-29.0281 4.85302-31.7747 0.0444-1.56184-0.6141-2.06579-2.71256-2.07454-3.35786-0.014-3.72173-0.90212-1.19958-2.92897 2.41045-1.93709 3.39351-4.08468 3.39351-7.41323 0-2.37661-0.17809-2.99122-1.37991-4.76845-1.86293-2.75482-4.08122-3.95493-7.34048-3.93515zm-32.021 4.18078c-12.2177 0-14.393 0.0948-15.2014 0.66105-0.51893 0.36347-0.94337 0.90265-0.94337 1.19833 0 0.29567 0.8768 1.90868 1.94892 3.58442l1.94954 3.04712h29.0727l-0.49127-3.66588c-0.36188-2.69811-0.70096-3.81901-1.28415-4.24546-0.6322-0.46228-3.67476-0.57958-15.051-0.57958zm63.9288 0c-11.6097 0-14.6941 0.11679-15.3271 0.57958-0.58321 0.42644-0.92228 1.54741-1.28415 4.24546-0.26954 2.01618-0.39346 3.7637-0.27361 3.88354 0.11979 0.11982 6.63121 0.16777 14.4695 0.10634l14.2512-0.11194 1.99369-2.97188c2.16758-3.23076 2.38852-4.04714 1.37183-5.06383-0.5805-0.58049-2.55417-0.66727-15.2014-0.66727zm-61.024 10.1886c-11.0882 0-13.9408 0.11096-13.6934 0.53107 0.17181 0.29186 1.23976 1.91526 2.37303 3.60805l2.06023 3.07823h26.7196v-1.29534c0-0.92364-0.41417-1.68505-1.44335-2.6535-0.79377-0.74693-1.571-1.78798-1.72691-2.31333l-0.28295-0.95518zm43.837 0-0.28357 0.95518c-0.15593 0.52535-0.93252 1.5664-1.72629 2.31333-1.02918 0.96845-1.44335 1.72986-1.44335 2.6535v1.29534h26.9596l1.65478-2.65349c0.91001-1.45931 1.93402-3.08333 2.27601-3.60868l0.62187-0.95518h-14.0292zm-52.3217 8.49092 0.76676 1.31089c0.42181 0.72114 1.14925 1.51984 1.61622 1.7748 0.46698 0.25495 6.10277 2.03712 12.5237 3.96002s11.9128 3.51195 12.2047 3.53156c0.78602 0.0528 0.66562-1.96985-0.5491-9.19798l-0.23196-1.37929h-13.1655zm56.689 0.0696c-4.69434-0.0141-8.05053 0.0192-8.12153 0.0902-0.24423 0.24421-1.38053 7.87408-1.38986 9.33168-9e-3 1.46931-1.38122 1.74467 13.9279-2.79527 11.3692-3.37157 11.6212-3.47021 12.635-4.96185l1.03478-1.52232-13.0181-0.11256c-1.78996-0.0155-3.50341-0.0252-5.06819-0.0298zm-10.211 17.6143c-0.45528-7e-3 -0.60984 0.20031-0.75183 0.72944-0.58504 2.17996-0.27819 3.43266 1.02234 4.17271 2.26947 1.29138 1.6085 3.64186-1.3824 4.91645-0.78121 0.33292-1.16922 0.81672-1.17346 1.462-3e-3 0.53035-0.12099 1.39434-0.2618 1.91969-0.23536 0.8782-0.11378 0.95518 1.50553 0.95518 4.90606 0 8.67466-3.94364 7.86968-8.23471-0.57264-3.05242-2.61382-5.02391-5.99414-5.78955-0.3582-0.0811-0.62697-0.12817-0.83392-0.13121zm-18.6528 0.19899c-1.06519 0.0289-2.64653 0.45979-3.51663 1.10941-3.89555 2.90844-4.02905 8.84963-0.25559 11.3527 0.71099 0.47163 5.58242 2.46393 10.8254 4.42767 5.24296 1.96374 9.86706 3.85607 10.2757 4.20504 1.16401 0.99409 0.9495 2.89899-0.42473 3.77346-1.59286 1.0136-1.79016 1.36502-1.79781 3.20322-8e-3 1.84646 0.65769 2.03576 3.29153 0.93528 3.13104-1.30824 4.76782-3.63324 4.76782-6.77209 0-2.31477-0.80782-4.05503-2.35313-5.06756-0.61781-0.40482-5.64236-2.43562-11.1656-4.51286-5.52318-2.07724-10.2811-4.10319-10.5729-4.50229s-0.53045-1.07137-0.53045-1.49372c0-0.9563 1.46344-2.46631 2.39044-2.46631 0.5638 0 0.64337-0.29557 0.42909-1.59197-0.14472-0.87558-0.26548-1.85578-0.26803-2.17838-3e-3 -0.31154-0.45598-0.43898-1.0951-0.42163zm0.52672 17.3382c-0.48711 0.0294-1.15877 0.20236-2.11185 0.46702-2.07219 0.57544-3.26379 2.4406-3.26602 5.10985-3e-3 3.41762 1.03924 4.4127 8.28259 7.90886 13.6081 6.56822 13.579 6.55114 13.579 7.96171 0 0.96445-0.2798 1.4014-1.16786 1.82704-0.6421 0.30774-1.16922 0.88331-1.17346 1.27917-3e-3 0.39586-0.12036 1.14995-0.26118 1.6753-0.22576 0.84252-0.0989 0.95518 1.08018 0.95518 4.37638 0 7.55571-4.28321 5.84365-7.87341-0.99101-2.07816-2.4214-2.96026-12.0977-7.458-7.04833-3.2762-8.89265-4.3079-9.34909-5.23112-0.49658-1.00441-0.47447-1.25357 0.17225-1.9682 0.40729-0.45004 1.08804-0.81837 1.513-0.81837 0.63758 0 0.73089-0.24138 0.53418-1.37991-0.3262-1.88793-0.50602-2.51969-1.57767-2.45512zm4.70315 0.86626c-0.56631-5e-3 -0.366 6.28437 0.21206 6.65829 0.29186 0.18878 1.86791 0.94707 3.50233 1.68525 4.56033 2.05963 4.70924 2.01086 5.01657-1.65478 0.14167-1.69004 0.12143-3.20412-0.0448-3.36428-0.3307-0.31871-8.17127-3.31956-8.68619-3.32448zm-2.16097 14.4676c-0.18883 9e-3 -0.4405 0.0592-0.77547 0.12624-1.80713 0.36143-4.0795 2.15542-4.89468 3.86488-1.22826 2.57569 0.21037 6.03233 3.01915 7.25528 1.32337 0.5762 3.3213 0.78486 3.71811 0.38804 0.11862-0.11859 0.10324-0.88994-0.0348-1.71385-0.17219-1.02758-0.58474-1.66284-1.31275-2.02292-1.51123-0.74747-1.62619-2.50123-0.23569-3.59499 0.85797-0.67488 1.08515-1.22848 1.08515-2.64914 0-1.34276-3e-3 -1.68126-0.569-1.65354zm2.80647 1.85378c-0.0185 2e-3 -0.0317 7e-3 -0.0392 0.0149-0.40044 0.40044 0.71899 20.974 1.189 21.8523 0.55671 1.04021 2.62041 1.17341 3.41154 0.22014 0.31393-0.37826 0.85679-3.93336 1.31276-8.59664 1.14258-11.6854 1.38704-10.4667-2.44579-12.2134-1.67534-0.76348-3.1515-1.31077-3.42833-1.27731z" style="stroke-width:.496667"/>
		</g>
		<g id="g111496" transform="translate(200)" style="stroke-width:.496667">
			<path id="science" d="m47.1804 97.8405c-3.06572-2.57964-6.17402-12.0904-7.84786-24.0128-1.17786-8.38962-1.19625-7.98526 0.322424-7.08816 1.1207 0.662006 1.31396 1.18398 2.2478 6.07085 1.54479 8.08401 3.95674 14.0396 6.16435 15.2211 3.51838 1.88298 6.53624-1.74777 8.67296-10.4344 0.400134-1.62679 0.779778-3.02308 0.843581-3.10286 0.06385-0.07978 0.646371 0.202394 1.2945 0.627063 1.10622 0.724826 1.16066 0.9142 0.888652 3.09126-0.159397 1.27552-0.874712 4.54858-1.58959 7.27347-3.0091 11.4693-6.88021 15.8184-10.9968 12.3545zm-31.8558-13.0675c-1.10653-1.10653-1.17799-1.39557-0.973815-3.93911 0.35746-4.45318 4.62539-12.6574 10.9358-21.0217 4.2588-5.645 5.20183-6.65855 5.45286-5.86077 0.117887 0.374631 0.305361 0.973521 0.416613 1.33086 0.111255 0.357345-1.24466 2.79077-3.01314 5.4076-4.00903 5.9322-5.98157 10.0191-6.29326 13.0391-0.204632 1.98268-0.100936 2.47809 0.682717 3.26174 0.5082 0.508196 1.45423 1.05708 2.1023 1.21973 1.65632 0.415709 6.28314-1.16677 10.2765-3.51479l3.29781-1.93906 0.310529 1.38104c0.269886 1.20029 0.126754 1.53457-1.09356 2.55405-2.13355 1.78241-9.8508 6.28934-13.0672 7.63138-1.57166 0.655761-3.9786 1.29394-5.34876 1.41819-2.27421 0.206212-2.59521 0.121877-3.68535-0.968261zm60.6926-0.168997c-4.33267-1.71021-10.805-5.6156-16.8576-10.1719-6.55321-4.93313-6.69406-5.0973-4.65704-5.42786 1.36472-0.221468 1.91554-4e-3 4.14135 1.63447 5.36022 3.94596 12.9985 7.73804 15.5866 7.73804 2.47714 0 4.05182-2.31935 3.55825-5.24094-0.306344-1.81304-2.96152-7.5703-4.57209-9.91364-1.00416-1.46107-0.661014-1.97576 1.32493-1.98732 0.967711-0.0056 1.57306 0.619893 3.71681 3.84072 4.94166 7.42434 7.96932 14.7173 7.36476 17.7401-0.637355 3.18674-4.32422 3.87312-9.60596 1.7883zm-33.631-13.4669c0-1.85006 0.951135-2.48799 3.06493-2.05567l1.49808 0.306386-1.99701 1.6364c-1.09836 0.900016-2.12503 1.6364-2.2815 1.6364-0.156475 0-0.284496-0.685582-0.284496-1.52351zm17.0984-0.698913c-1.46902-1.07596-1.24728-2.61748 0.527343-3.66576l1.28175-0.757158-0.04397 1.67376c-0.02417 0.920575-0.172495 2.10517-0.329781 2.63243-0.284357 0.953372-0.292272 0.954018-1.43547 0.116726zm-14.0098-3.29098c-5.11806-1.43548-9.30491-4.97255-11.5862-9.78814-1.27329-2.68772-1.3934-3.31304-1.36842-7.12359 0.02137-3.25825 0.247227-4.7368 1.02663-6.72076 1.39608-3.5537 5.03223-7.37583 8.7627-9.21089 2.76253-1.35891 3.18362-1.43684 7.76467-1.43684 4.4626 0 5.03989 0.09939 7.33658 1.26316 3.34688 1.69595 6.695 5.12381 8.41101 8.61138 1.31354 2.66966 1.40799 3.1718 1.40799 7.48624 0 4.17313-0.119997 4.86899-1.22912 7.12754-3.84529 7.83045-12.6105 12.0119-20.5258 9.79189zm0.149489-7.84443c4.07438-1.70238 5.0007-6.9551 1.79234-10.1635-4.03673-4.03673-10.5268-1.27983-10.5268 4.47165 0 4.66559 4.37196 7.51458 8.73446 5.69181zm14.6956-0.645646c3.91582-2.78832 3.33382-8.75171-1.05746-10.8355-4.37039-2.07388-9.53237 1.74516-8.77348 6.49095 0.765277 4.78579 5.97685 7.08894 9.83094 4.34458zm-5.98039-12.745c1.46067-1.56594 1.67744-2.07089 1.67603-3.9042-0.0044-3.87309-2.46294-6.45199-6.15429-6.45199-3.67738 0-6.15123 2.58053-6.15427 6.41966-0.0013 1.70614 0.247177 2.35671 1.40337 3.67353 1.79124 2.04011 2.70468 2.41703 5.3817 2.22068 1.87739-0.137694 2.39584-0.401495 3.84746-1.95769zm-23.7594 15.3599-1.91262-0.263742 0.909326-1.15089c1.1575-1.46499 2.69816-1.24764 3.74745 0.528679 0.858576 1.45346 1.01204 1.40391-2.74416 0.885951zm35.7541-0.892141c0.711183-1.37536 1.10727-1.56541 4.19332-2.01226 3.70498-0.536462 10.623-2.42331 12.9893-3.54281 2.72478-1.28902 4.599-3.28631 4.599-4.90099 0-2.46725-4.17151-4.95766-11.0824-6.61628-1.64354-0.394448-2.98826-0.865758-2.98826-1.04736s0.445204-0.836589 0.989344-1.45553l0.989344-1.12535 5.05665 1.04802c13.5803 2.81462 19.8722 6.91002 17.3017 11.2616-1.53916 2.6056-6.06398 4.7793-14.2633 6.85202-3.96652 1.00272-15.1126 2.80398-17.4502 2.82005-0.965115 0.0066-0.976987-0.03882-0.334573-1.28108zm-47.6923-0.921672c-11.5646-2.48323-17.5883-5.6511-17.5883-9.24974 0-0.965458 0.36535-2.07775 0.90984-2.76996 2.2089-2.80815 12.1982-6.12497 23.2741-7.72784 7.86962-1.13887 8.84232-1.24454 8.68197-0.943165-0.07473 0.140451-0.399523 0.779537-0.721759 1.42019-0.493396 0.980931-0.977089 1.21326-3.06385 1.47161-3.74037 0.463076-11.9526 2.63056-14.1576 3.73665-4.08423 2.04879-5.38711 4.51039-3.67845 6.94986 0.980687 1.40012 5.30978 3.47042 9.68609 4.63216l3.74093 0.993071-0.935141 1.18884c-1.07519 1.36688-1.15372 1.37069-6.14782 0.298331zm50.1949-2.51723c-0.427133-0.816565-0.172674-3.6276 0.328373-3.6276 0.511029 0 3.53226 3.83942 3.24632 4.12539-0.611108 0.611082-3.18191 0.253084-3.5747-0.497798zm-0.210269-11.3686c-0.219196-1.35087-0.01408-1.91931 1.38846-3.84745 6.71998-9.23812 9.37362-16.6474 6.72965-18.7898-2.01976-1.63656-5.7057-0.769393-12.0063 2.82465l-3.3708 1.92278-0.289373-1.54258c-0.349611-1.86362 0.08139-2.26988 6.59123-6.21265 10.4362-6.32083 16.3562-7.28941 17.8008-2.9124 1.46291 4.43276-4.72181 16.1071-15.6507 29.5423-0.731851 0.89964-0.911163 0.751569-1.19297-0.984918zm-39.8874-0.633761c-0.774996-0.978514-1.33536-1.85284-1.24525-1.94295 0.09011-0.09011 0.666762-0.290063 1.28144-0.444338 1.55215-0.389564 2.58986 0.846186 2.29865 2.73734-0.12103 0.785977-0.37884 1.42905-0.57291 1.42905-0.194069 0-0.98694-0.8006-1.76193-1.77911zm37.8057-4.70659c-0.333343-0.665057-0.66752-1.32488-0.742536-1.46625-0.139913-0.263637 4.80892 0.02457 5.11451 0.297884 0.09322 0.08337-0.158691 0.65243-0.559791 1.26457-1.03279 1.57624-2.99877 1.52662-3.81219-0.0962zm-43.5968-2.93981c-4.39014-6.04798-8.22143-13.7349-8.5807-17.216-0.338197-3.27683 0.0766-4.47733 1.83711-5.31685 2.06348-0.984001 5.39177-0.277029 10.5632 2.24377 6.38809 3.11383 20.5663 13.125 19.6952 13.9068-0.18658 0.167453-0.845483 0.423195-1.46422 0.568322-0.879323 0.206245-1.69088-0.159413-3.71652-1.67452-3.21408-2.40404-8.19336-5.27379-11.5345-6.64776-3.42036-1.40657-5.54717-1.38403-7.00545 0.07425-1.00554 1.00554-1.10702 1.38221-0.882696 3.27627 0.254228 2.14657 2.31788 6.97493 4.43644 10.38l1.13302 1.82107-1.59189 0.185842c-1.4435 0.168518-1.71281 0.01926-2.88909-1.60121zm15.4867-4.55568c0.0069-1.85822 0.404022-3.61178 0.814771-3.59736 0.153174 0.0054 0.710329 0.351649 1.23811 0.769489 1.28399 1.01651 0.925344 2.74362-0.772008 3.71777l-1.28688 0.738565 6e-3 -1.62846zm21.4528 0.823629c-1.00975-0.572025-1.26249-1.13159-1.69877-3.7606-0.7935-4.78207-2.52142-11.0874-3.75001-13.6845-1.79575-3.79594-4.3251-5.09809-6.68797-3.44307-1.38889 0.972822-3.34712 5.06046-4.5208 9.43678-0.549116 2.04752-1.04701 3.78966-1.10642 3.87141-0.05941 0.08176-0.690153-0.281745-1.40165-0.807779l-1.29364-0.956425 0.613808-3.36945c0.337591-1.8532 1.21588-5.44707 1.95176-7.98639 4.46109-15.3941 10.8321-15.847 15.4646-1.09927 1.80795 5.75569 4.17006 19.2645 3.77143 21.5688-0.146951 0.849332-0.226013 0.862906-1.34234 0.230471zm-5.18957-2.12842c-1.90079-0.308259-1.8569-0.796929 0.224733-2.50267 1.11211-0.911285 2.10405-1.57484 2.20435-1.47456 0.100254 0.100277 0.237796 0.833978 0.305642 1.63045 0.143477 1.68389-0.963711 2.63399-2.73472 2.34679z" style="stroke-width:.496667"/>
		</g>
		<g id="g12346" transform="translate(100)" style="stroke-width:.496667">
			<path id="radioactive" d="m76.3174 4.83157c-0.512432 0-1.36048 0.750156-2.0044 1.77369-3.16051 5.02336-15.4498 26.8581-15.4498 27.4499 0 0.377156 0.665948 1.4452 1.48061 2.373 1.54362 1.75812 3.22038 5.00207 3.23836 6.2654 0.0057 0.403216 0.265667 0.988997 0.577836 1.30117 0.420292 0.420293 4.95936 0.567441 17.4916 0.567441h16.9242l0.3291-1.30117c0.499045-1.97205-1.04238-10.0001-2.83721-14.7784-2.16006-5.75076-5.50948-11.1469-9.7719-15.7422-3.8786-4.18154-8.58133-7.90884-9.97837-7.90884zm-52.6494 0.126098c-0.745934-0.02657-1.73046 0.492003-3.4767 1.79794-8.4915 6.3504-15.2251 16.4707-17.8581 26.8395-1.12944 4.44173-1.6523 9.12787-1.13003 10.1038 0.44399 0.82961 1.34695 0.868819 17.5546 0.751046l17.087-0.124715 0.884765-2.65498c0.486841-1.46062 1.63584-3.53297 2.55314-4.60466 1.20947-1.41294 1.6273-2.30922 1.51941-3.26054-0.08182-0.721533-3.66087-7.43546-7.95318-14.9198-5.89086-10.2716-8.0665-13.675-8.87397-13.8833-0.09832-0.02533-0.20037-0.04055-0.306933-0.04434zm26.1743 33.0439c-0.84181-0.0036-1.68121 0.119394-2.48039 0.383145-2.17307 0.717183-4.91323 3.76461-5.31621 5.91275-0.669081 3.56662 1.00662 7.23679 4.03929 8.84834 3.72493 1.97943 8.31297 0.754683 10.7564-2.87116 1.28609-1.90839 1.46923-5.94407 0.366515-8.07651-1.32402-2.56031-4.35919-4.18379-7.36565-4.19657zm5.41944 21.8648c-0.519545-6e-3 -1.27546 0.11705-2.48662 0.36721-2.26668 0.468161-3.49339 0.480102-5.52476 0.05404-1.43616-0.301044-2.88296-0.443308-3.21481-0.315936-0.506281 0.194254-5.95883 9.34549-11.9433 20.0447-0.806201 1.44132-2.09587 3.68502-2.86631 4.98572-2.04608 3.45424-2.11511 3.80337-0.95474 4.83953 0.869245 0.776165 3.78653 2.21403 4.57763 2.2566 0.130072 7e-3 0.464334 0.158521 0.742731 0.336032 0.278348 0.177557 1.0725 0.425188 1.76538 0.550811 0.69287 0.125627 1.49378 0.373007 1.77923 0.549428 0.285492 0.176422 2.04476 0.597665 3.90973 0.936035 7.90874 1.43498 17.5775 0.623532 25.3596-2.12842 5.13687-1.81654 6.33448-2.61423 5.98896-3.9908-0.315195-1.25591-15.1197-27.1337-16.0623-28.0762-0.267188-0.26728-0.5509-0.402772-1.07045-0.408777z" style="stroke-width:.496667"/>
		</g>
		<g id="g112062" transform="translate(0,200)" style="stroke-width:.496667">
			<path id="cargo" d="m49.3216 20.9852c-7.75692 0.0731-16.55 1.12668-25.7908 3.10936-4.95151 1.06238-17.3827 4.82187-18.2093 5.50706-0.710592 0.589042-2.67495 6.55214-3.60261 10.9362-0.953002 4.50386-0.959591 13.7628-0.01346 18.5748 0.705946 3.59044 2.65553 9.96375 3.41377 11.1599 1.04866 1.6544 21.4092 6.7486 32.1856 8.05261 16.5659 2.00457 35.7329-0.365271 54.3213-6.71666l3.18193-1.0873 1.10477-3.17857c4.03479-11.6141 4.11138-22.1541 0.248638-34.0396l-1.23245-3.79346-6.24762-2.01198c-10.4823-3.37532-20.1524-5.26804-31.9699-6.25702-2.33359-0.195297-4.80437-0.279724-7.39002-0.25536zm-4.8317 3.03746h3.81362v24.3137h-44.5652l0.318529-2.63761c0.386626-3.20448 2.14987-10.2667 3.1443-12.5933 0.685196-1.60311 0.975233-1.77732 5.20197-3.13624 11.2777-3.6258 23.7988-5.94655 32.0868-5.94655zm7.02512 0h3.81362c7.93606 0 22.0293 2.60663 31.7179 5.86658l5.06086 1.70286 0.846049 2.29354c1.13321 3.072 2.44706 8.57278 2.82174 11.8131l0.305083 2.63761h-44.5652v-12.1565zm6.80201 2.29354c-3.04843 0-3.6265 0.12747-4.03336 0.887718-0.275851 0.515405-0.475107 4.27762-0.475107 8.97594 0 4.69833 0.199256 8.46053 0.475107 8.97594 0.457662 0.85527 1.1575 0.887049 19.2824 0.887049h18.8073l0.370269-1.00129c0.577992-1.56242-1.37213-9.77074-2.86139-12.0436-1.62715-2.48337-21.4603-6.68173-31.5653-6.68173zm-16.5944 0.01883c-2.60032 0.01066-6.31441 0.323496-10.4853 0.920645-8.92488 1.27781-20.0289 4.02089-20.8926 5.16098-1.0047 1.32635-3.3291 9.30022-3.3291 11.4214 0 0.607023 0.247593 1.3517 0.55037 1.65447 0.79089 0.790895 37.1027 0.790895 37.8936 0 0.776748-0.776759 0.776748-17.8485 0-18.6252-0.365817-0.365827-1.71453-0.540515-3.737-0.53223zm13.4622 0.780869 5.16098 0.325249c2.83854 0.178916 7.53526 0.721356 10.4369 1.20557 5.46762 0.91242 16.1554 3.44797 17.5292 4.15836 0.978659 0.506096 3.16769 7.21916 3.26929 10.0263l0.07459 2.06439-18.2355 0.120292-18.2355 0.119617v-9.00954zm-12.0215 0.183459c0.986748 0.01563 1.33316 0.157258 1.50999 0.432766 0.228983 0.356726 0.365449 4.3644 0.303074 8.90605l-0.11357 8.25757-18.2476 0.120292c-14.9286 0.098123-18.2908 0.007903-18.4841-0.495936-0.611487-1.59348 2.23107-10.6323 3.63016-11.543 1.10434-0.718822 9.96954-3.02248 15.8028-4.10661 2.09204-0.388835 6.70346-0.949611 10.248-1.24656 2.7372-0.229332 4.36441-0.340202 5.35116-0.324573zm-39.4251 24.7075h44.5652v24.3137l-4.47285-0.04975c-8.29318-0.09202-21.2547-2.5681-31.7662-6.06885l-4.35525-1.45086-0.845379-2.29355c-1.13304-3.07626-2.44617-8.57676-2.82039-11.8131zm47.7767 0h44.5652l-0.296348 2.63761c-0.389481 3.46767-1.94551 9.85619-2.99982 12.3158-0.824072 1.9225-0.921931 1.9845-5.33974 3.39966-6.73237 2.15656-14.7715 4.02541-21.7077 5.0454v-3e-3c-3.40624 0.500872-7.99997 0.913255-10.2077 0.913255l-4.01387 0.0047v-12.1571zm22.0202 1.83457c-9.87968 0-17.4036 0.186248-18.091 0.447554l-1.17668 0.447555v9.09488c0 6.66321 0.153088 9.24809 0.57322 9.66945 1.54912 1.55366 25.3706-2.00359 33.0303-4.9325 1.67486-0.640423 2.83228-2.64972 3.98296-6.91423 1.33205-4.93665 1.27458-6.79391-0.22781-7.36515-0.687346-0.261306-8.21131-0.447554-18.091-0.447554zm-34.9878 0.116928c-2.79827 1.19e-4 -6.88052 0.06003-12.9105 0.166658-21.0062 0.371495-19.2452-0.166284-17.9512 5.48354 1.07842 4.70851 2.0217 7.33973 2.92456 8.15676 1.87528 1.69712 16.4937 4.84519 26.913 5.79535 6.00396 0.547522 6.99629 0.514689 7.76566-0.254685 0.604523-0.604546 0.721059-2.12108 0.721059-9.39393 0-8.63636-0.0046-8.67583-1.09536-9.39056-0.605514-0.396736-1.70344-0.56334-6.36723-0.563139zm-30.7401 1.24925 18.5278 0.119617 18.5278 0.120287v17.4324l-2.5227 0.06182c-7.65642 0.187861-27.7272-3.56118-30.7367-5.74159-1.18037-0.855205-2.93497-5.85566-3.52196-10.0377z" style="stroke-width:.496667"/>
		</g>
		<g id="g112195" transform="translate(198.824 199)" style="stroke-width:.496667">
			<path id="tactical" d="m49.7772 98.9907c-0.177082-0.1797-0.321969-2.78094-0.321969-5.78053v-5.4538l-2.6831-0.2966c-9.68718-1.07085-17.412-4.80793-23.7478-11.4886-6.25888-6.5996-9.55597-13.6497-10.3184-22.0637l-0.286069-3.15697-5.63001-0.11938c-7.48262-0.15866-7.48536-0.9386-0.00386-1.09731l5.62615-0.11936 0.266976-3.10033c0.459901-5.34087 2.23994-10.8414 5.07088-15.6695 2.17954-3.71712 9.78248-11.0963 13.6749-13.2724 4.17159-2.33219 8.71631-3.82448 13.6464-4.48087l3.95462-0.52652 0.0064-5.18152c0.0064-5.13543 0.312053-6.63914 1.23334-6.06977 0.310024 0.191619 0.477286 2.22411 0.477286 5.80043v5.50545l2.89772 0.31c10.3048 1.10242 18.8829 5.76238 25.4069 13.8019 1.36792 1.68572 3.08192 4.10452 3.80889 5.37511 1.97644 3.45448 3.89402 9.62302 4.26516 13.7203l0.325832 3.59717 5.6881 0.11978c4.61275 0.0971 5.68813 0.23681 5.68813 0.7388s-1.07538 0.64166-5.68813 0.7388l-5.6881 0.11978-0.308124 3.43434c-0.960401 10.7043-7.0667 20.6145-16.765 27.2088-4.48496 3.04951-10.6087 5.19613-16.6745 5.84503l-2.83861 0.30368-0.381082 5.7923c-0.20957 3.18577-0.525936 5.64527-0.703019 5.46556zm-0.536625-13.9568v-1.46675l-3.28782-0.29819c-6.48185-0.58788-13.1079-3.58551-18.255-8.25855-6.54437-5.94164-10.0352-12.8182-11.0747-21.8157l-0.285168-2.46843h-3.0116l0.302297 2.89772c0.395378 3.79005 1.65112 8.68901 2.96025 11.5485 3.57672 7.81263 11.4898 15.4767 19.3436 18.7349 3.47514 1.4417 10.8843 2.97219 12.8788 2.66033 0.236099-0.0369 0.429281-0.72716 0.429281-1.53387zm9.66164 0.48918c7.36211-1.88775 14.0467-6.2483 19.3217-12.604 4.40946-5.3129 7.15628-12.0078 7.91648-19.295l0.302297-2.89772h-1.52852c-1.63712 0-1.74056 0.16591-2.14122 3.43433-0.101292 0.82639-0.131943-0.23611-0.06813-2.3611 0.29312-9.75603-2.44323-17.2728-8.70362-23.9092-3.49552-3.70543-7.34105-6.49568-11.1442-8.08602-2.9861-1.24868-8.52806-2.5628-10.8079-2.5628h-1.30597v11.5909l1.60984 0.0428c0.885414 0.0235 2.0928 0.19746 2.68306 0.3865 0.64207 0.20562-1.42755 0.34371-5.1515 0.34371s-5.79357-0.13809-5.1515-0.34371c0.590265-0.18904 1.79765-0.36296 2.68306-0.3865l1.60984-0.0428v-11.5909h-1.30597c-2.09801 0-7.70984 1.28123-10.4004 2.37449-3.86218 1.56934-8.09562 4.61994-11.6402 8.38789-5.01425 5.33016-7.674 11.3288-8.59982 19.3954l-0.234071 2.03913h11.4863l0.498375-2.89772c0.274093-1.59374 0.960305-3.91398 1.52491-5.15608l1.02656-2.25835 18.5886 0.11189 18.5885 0.1119 0.963266 2.0157c0.529768 1.10863 1.1917 3.4268 1.47098 5.1515 0.279243 1.72469 0.763388 3.35029 1.07586 3.61243 0.446506 0.37456 0.568178 3.05344 0.568178 12.5109 0 10.3011-0.09276 12.0698-0.643937 12.2813-0.563253 0.21614-0.643938-1.31105-0.643938-12.1889v-12.436h-20.606v36.3158l3.11492-0.29753c1.71323-0.16365 3.98311-0.52015 5.04419-0.79222zm-9.66164-24.3149v-10.2672l-10.4517-0.11504-10.4517-0.11505 0.306836 2.2615c0.97122 7.15782 5.72345 13.5362 12.44 16.6968 2.3035 1.08394 6.58913 2.1358 7.72726 1.89655 0.271709-0.0571 0.429281-3.85901 0.429281-10.3575zm-32.6377-14.6003c0.817769-7.63616 3.73648-13.8577 9.21868-19.6503 5.52869-5.84182 12.3399-9.30076 19.7701-10.0398l3.21969-0.32023 0.134518-1.3952c0.12779-1.32539 0.06191-1.39519-1.31637-1.39519-4.21821 0-11.738 2.21487-15.7387 4.63567-10.5148 6.36248-17.0397 16.4595-18.296 28.3125l-0.284395 2.68307h2.98932zm69.5361 0.14743c-1.08162-10.4379-5.64663-18.7805-13.8387-25.2904-5.42495-4.31102-11.7337-6.86805-18.4954-7.49648l-3.1258-0.29052 0.139316 1.45982 0.139348 1.45982 3.21071 0.3201c7.66882 0.76455 13.0322 3.43983 19.1219 9.53813 2.5717 2.57532 4.95056 5.43086 5.91373 7.0988 2.06411 3.57432 3.68326 8.69236 4.02355 12.718l0.267621 3.16576h2.92168z" style="stroke-width:.496667"/>
		</g>
		<g id="g312" style="stroke-width:.496667">
			<path id="delta-filled" d="m50.5942 1c-0.758371 0-6.6684 8.75423-9.71118 14.3848-1.26464 2.34018-1.44128 2.51335-3.13344 3.06773-4.37496 1.43333-9.62078 4.75834-13.391 8.48844-7.97994 7.89492-11.7284 18.3406-10.6534 29.686 0.615874 6.49997 3.08369 12.9572 6.8674 17.9686l1.47344 1.95114-0.723821 5.27413c-0.921029 6.71193-1.74936 14.2154-1.7535 15.8851-0.0026 0.711709 0.06025 1.29402 0.137994 1.29402 0.07775 0 2.07581-2.44569 4.44008-5.43487 2.36424-2.98918 5.02094-6.23723 5.90395-7.21819l1.60541-1.78382 1.51842 0.84869c2.35169 1.31438 6.70127 2.79471 10.0721 3.42813 4.22672 0.794265 11.8992 0.554882 16.0018-0.49941 3.92421-1.00845 9.9595-4.0261 12.8942-6.44683 1.8361-1.51454 2.43829-1.84805 2.67295-1.48205 0.166539 0.259803 1.4265 2.76236 2.79981 5.56174 1.37331 2.79938 2.61601 5.09014 2.76192 5.09014 0.460385 0 0.292681-2.52903-0.612639-9.23351l-0.87799-6.50243 1.62003-2.39798c7.94837-11.7632 7.95939-28.0303 0.02679-39.9239-4.37936-6.56615-11.796-12.4292-18.4236-14.5643-1.79159-0.577163-1.80344-0.590401-3.76072-4.2657-3.24682-6.09683-7.41339-13.1757-7.75501-13.1757zm-0.0207 0.30834 2.52281 4.24549c6.61486 11.1326 14.1623 27.8974 18.2234 40.4779 4.19321 12.9898 7.6173 29.3337 8.78314 41.9261l0.207249 2.2428-3.90684-7.59173c-8.63458-16.7771-12.9731-21.9619-17.5-20.9155-2.67251 0.617704-7.82906 3.74533-12.5949 7.63925-6.33719 5.17776-13.7201 12.9958-21.6611 22.9385-4.66695 5.84326-4.7368 5.92596-4.7368 5.58044 0-1.1499 1.25898-11.8285 2.10226-17.8306 4.64417-33.0543 14.1119-59.7079 27.4321-77.2275zm-0.0075 5.50816c-0.333624-0.0575-0.801436 0.61165-2.24584 2.85644-9.6581 15.0101-16.5722 32.809-20.6244 53.0946-1.23061 6.16057-2.7532 16.0755-3.17438 20.6714l-0.234035 2.55518 4.10902-4.42392c2.25997-2.43313 6.28279-6.44104 8.93982-8.90647 10.93-10.1417 17.7802-14.6223 22.9178-14.9899 1.36389-0.09758 2.86845 0.0037 3.5909 0.24212 1.61894 0.534305 5.32796 4.50098 8.31152 8.88878 1.25144 1.84043 2.27514 3.17716 2.27514 2.97068 0-0.206491-0.303318-1.85093-0.674312-3.65408-2.28244-11.0928-6.3604-23.5534-11.9949-36.653-2.32154-5.39731-10.0316-21.2647-10.8763-22.3834-0.112579-0.14911-0.20875-0.24924-0.319958-0.26841zm-0.234036 7.2005c0.163331 7.76e-4 0.704851 3.9868 1.83639 13.386 0.866681 7.19932 1.68856 13.186 1.82627 13.3036 0.137735 0.117606 1.76421 0.651843 3.61465 1.18736 1.85044 0.535521 3.36444 1.03554 3.36444 1.11104s-1.48902 0.842676-3.30934 1.70497c-3.28597 1.55658-3.30828 1.57589-3.11423 2.65273 0.539423 2.99346 0.947375 6.1586 0.811296 6.29468-0.08411 0.08412-1.13195-1.33138-2.32822-3.14557s-2.29-3.36969-2.43034-3.45644c-0.140349-0.08674-1.12264 1.36162-2.18314 3.21836s-2.16075 3.68052-2.44499 4.0529c-0.489681 0.641545-0.508108 0.622543-0.3528-0.358381 0.336573-2.12565 0.858787-6.45785 0.858787-7.12265 0-0.532731-0.762021-1.04754-3.36444-2.27413l-3.36444-1.58567 3.278-0.997301c1.803-0.548412 3.46799-1.05966 3.69957-1.13631 0.231577-0.07665 0.494366-0.495427 0.584351-0.930579 0.21931-1.06069 2.96257-24.4748 2.96257-25.2859 0-0.406691 0.01786-0.6189 0.05562-0.6187z" style="stroke-width:.496667"/>
		</g>
	</g>
</svg>
